<mxfile host="65bd71144e">
    <diagram id="8UxRQYJ8Orr1BTl11sPY" name="question_1_answer">
        <mxGraphModel dx="1893" dy="2358" grid="1" gridSize="10" guides="1" tooltips="1" connect="1" arrows="1" fold="1" page="1" pageScale="1" pageWidth="850" pageHeight="1100" math="0" shadow="0">
            <root>
                <mxCell id="0"/>
                <mxCell id="1" parent="0"/>
                <UserObject label="" mermaidData="{&#xa;  &quot;data&quot;: &quot;erDiagram\n    %% Note: ER Diagram updated per best practices.\n    %% Naming Convention: Singular entity names with camelCase attributes.\n    %% Subject Areas are denoted via comments for improved clarity and reduced reference overlaps.\n\n    %% Subject Area: HR (Employee Data)\n    EMPLOYEE {\n        string employeeId PK \&quot;Unique identifier (UUID)\&quot;\n        string firstName \&quot;Employee first name\&quot;\n        string lastName \&quot;Employee last name\&quot;\n        string gender \&quot;Gender (Male/Female)\&quot;\n        string email \&quot;Email address\&quot;\n        int age \&quot;Employee age\&quot;\n        date birthday \&quot;Date of birth\&quot;\n        boolean active \&quot;Employee active status\&quot;\n        %% Note: Consistent camelCase naming for attributes.\n    }\n\n    LOCATION {\n        string locationId PK \&quot;Unique location identifier\&quot;\n        string employeeId FK \&quot;Reference to Employee\&quot;\n        string street \&quot;Street address\&quot;\n        string postalCode \&quot;Postal code\&quot;\n        string province \&quot;Province code (e.g., AB, BC)\&quot;\n        string city \&quot;City name\&quot;\n        decimal longitude \&quot;Geographic longitude\&quot;\n        decimal latitude \&quot;Geographic latitude\&quot;\n    }\n\n    %% Subject Area: Subscriptions (Vendors, Packages, and Subscriptions)\n    VENDOR {\n        string vendorId PK \&quot;Unique vendor identifier\&quot;\n        string vendorName \&quot;Vendor name (e.g., Vodacom, MTN, Cell C)\&quot;\n        string description \&quot;Additional vendor details\&quot;\n    }\n\n    PACKAGE {\n        string packageId PK \&quot;Unique package identifier\&quot;\n        string packageName \&quot;Package name/code\&quot;\n        decimal packageCost \&quot;Cost of the package\&quot;\n        string description \&quot;Package description\&quot;\n    }\n\n    SUBSCRIPTION {\n        string phoneNumber PK \&quot;Mobile phone number used as primary key\&quot;\n        string employeeId FK \&quot;Reference to Employee\&quot;\n        string vendorId FK \&quot;Reference to Vendor\&quot;\n        string packageId FK \&quot;Reference to Package\&quot;\n        date contractStart \&quot;Contract start date\&quot;\n        date contractEnd \&quot;Contract end date\&quot;\n        boolean active \&quot;Subscription active status\&quot;\n    }\n\n    %% Subject Area: Events (Event Types and Event Records)\n    EVENT_TYPE {\n        int eventTypeId PK \&quot;Unique event type identifier\&quot;\n        string eventTypeName \&quot;Event type name (e.g., Voice, SMS, Data)\&quot;\n        string description \&quot;Description of event type\&quot;\n    }\n\n    EVENT {\n        string eventId PK \&quot;Unique event identifier\&quot;\n        string phoneNumber FK \&quot;Reference to Subscription\&quot;\n        int eventTypeId FK \&quot;Reference to Event Type\&quot;\n        datetime timestamp \&quot;Event timestamp\&quot;\n        decimal duration \&quot;Duration (for voice events)\&quot;\n        decimal dataUsage \&quot;Data usage (for data events)\&quot;\n        decimal cost \&quot;Cost of the event\&quot;\n    }\n\n    %% Define Relationships with Cardinality\n    EMPLOYEE ||--o{ LOCATION : \&quot;has\&quot;\n    EMPLOYEE ||--o{ SUBSCRIPTION : \&quot;owns\&quot;\n    VENDOR ||--o{ SUBSCRIPTION : \&quot;provides\&quot;\n    PACKAGE ||--o{ SUBSCRIPTION : \&quot;defines\&quot;\n    SUBSCRIPTION ||--o{ EVENT : \&quot;generates\&quot;\n    EVENT_TYPE ||--o{ EVENT : \&quot;categorizes\&quot;\n&quot;&#xa;}" id="zPA-8Ma1c1PnJJ-WWS9A-1">
                    <mxCell style="shape=image;noLabel=1;verticalAlign=top;imageAspect=1;image=data:image/svg+xml,PHN2ZyBhcmlhLXJvbGVkZXNjcmlwdGlvbj0iZXIiIHJvbGU9ImdyYXBoaWNzLWRvY3VtZW50IGRvY3VtZW50IiB2aWV3Qm94PSIwIDAgMTIzNC4yMzA0Njg3NSA4MjAuMjE4NzUiIHN0eWxlPSJtYXgtd2lkdGg6IDEyMzQuMjMwNDY4NzVweDsiIHhtbG5zPSJodHRwOi8vd3d3LnczLm9yZy8yMDAwL3N2ZyIgd2lkdGg9IjEwMCUiIGlkPSJnZU1lcm1haWRPdXRwdXQtMTc0NDE0ODczNzg1NSI+PHN0eWxlPiNnZU1lcm1haWRPdXRwdXQtMTc0NDE0ODczNzg1NXtmb250LWZhbWlseToidHJlYnVjaGV0IG1zIix2ZXJkYW5hLGFyaWFsLHNhbnMtc2VyaWY7Zm9udC1zaXplOjE2cHg7ZmlsbDojMDAwMDAwO30jZ2VNZXJtYWlkT3V0cHV0LTE3NDQxNDg3Mzc4NTUgLmVycm9yLWljb257ZmlsbDojNTUyMjIyO30jZ2VNZXJtYWlkT3V0cHV0LTE3NDQxNDg3Mzc4NTUgLmVycm9yLXRleHR7ZmlsbDojNTUyMjIyO3N0cm9rZTojNTUyMjIyO30jZ2VNZXJtYWlkT3V0cHV0LTE3NDQxNDg3Mzc4NTUgLmVkZ2UtdGhpY2tuZXNzLW5vcm1hbHtzdHJva2Utd2lkdGg6MXB4O30jZ2VNZXJtYWlkT3V0cHV0LTE3NDQxNDg3Mzc4NTUgLmVkZ2UtdGhpY2tuZXNzLXRoaWNre3N0cm9rZS13aWR0aDozLjVweDt9I2dlTWVybWFpZE91dHB1dC0xNzQ0MTQ4NzM3ODU1IC5lZGdlLXBhdHRlcm4tc29saWR7c3Ryb2tlLWRhc2hhcnJheTowO30jZ2VNZXJtYWlkT3V0cHV0LTE3NDQxNDg3Mzc4NTUgLmVkZ2UtdGhpY2tuZXNzLWludmlzaWJsZXtzdHJva2Utd2lkdGg6MDtmaWxsOm5vbmU7fSNnZU1lcm1haWRPdXRwdXQtMTc0NDE0ODczNzg1NSAuZWRnZS1wYXR0ZXJuLWRhc2hlZHtzdHJva2UtZGFzaGFycmF5OjM7fSNnZU1lcm1haWRPdXRwdXQtMTc0NDE0ODczNzg1NSAuZWRnZS1wYXR0ZXJuLWRvdHRlZHtzdHJva2UtZGFzaGFycmF5OjI7fSNnZU1lcm1haWRPdXRwdXQtMTc0NDE0ODczNzg1NSAubWFya2Vye2ZpbGw6IzY2NjtzdHJva2U6IzY2Njt9I2dlTWVybWFpZE91dHB1dC0xNzQ0MTQ4NzM3ODU1IC5tYXJrZXIuY3Jvc3N7c3Ryb2tlOiM2NjY7fSNnZU1lcm1haWRPdXRwdXQtMTc0NDE0ODczNzg1NSBzdmd7Zm9udC1mYW1pbHk6InRyZWJ1Y2hldCBtcyIsdmVyZGFuYSxhcmlhbCxzYW5zLXNlcmlmO2ZvbnQtc2l6ZToxNnB4O30jZ2VNZXJtYWlkT3V0cHV0LTE3NDQxNDg3Mzc4NTUgcHttYXJnaW46MDt9I2dlTWVybWFpZE91dHB1dC0xNzQ0MTQ4NzM3ODU1IC5lbnRpdHlCb3h7ZmlsbDojZWVlO3N0cm9rZTojOTk5O30jZ2VNZXJtYWlkT3V0cHV0LTE3NDQxNDg3Mzc4NTUgLmF0dHJpYnV0ZUJveE9kZHtmaWxsOiNmZmZmZmY7c3Ryb2tlOiM5OTk7fSNnZU1lcm1haWRPdXRwdXQtMTc0NDE0ODczNzg1NSAuYXR0cmlidXRlQm94RXZlbntmaWxsOiNmMmYyZjI7c3Ryb2tlOiM5OTk7fSNnZU1lcm1haWRPdXRwdXQtMTc0NDE0ODczNzg1NSAucmVsYXRpb25zaGlwTGFiZWxCb3h7ZmlsbDpoc2woLTE2MCwgMCUsIDkzLjMzMzMzMzMzMzMlKTtvcGFjaXR5OjAuNztiYWNrZ3JvdW5kLWNvbG9yOmhzbCgtMTYwLCAwJSwgOTMuMzMzMzMzMzMzMyUpO30jZ2VNZXJtYWlkT3V0cHV0LTE3NDQxNDg3Mzc4NTUgLnJlbGF0aW9uc2hpcExhYmVsQm94IHJlY3R7b3BhY2l0eTowLjU7fSNnZU1lcm1haWRPdXRwdXQtMTc0NDE0ODczNzg1NSAucmVsYXRpb25zaGlwTGluZXtzdHJva2U6IzY2Njt9I2dlTWVybWFpZE91dHB1dC0xNzQ0MTQ4NzM3ODU1IC5lbnRpdHlUaXRsZVRleHR7dGV4dC1hbmNob3I6bWlkZGxlO2ZvbnQtc2l6ZToxOHB4O2ZpbGw6IzAwMDAwMDt9I2dlTWVybWFpZE91dHB1dC0xNzQ0MTQ4NzM3ODU1ICNNRF9QQVJFTlRfU1RBUlR7ZmlsbDojZjVmNWY1IWltcG9ydGFudDtzdHJva2U6IzY2NiFpbXBvcnRhbnQ7c3Ryb2tlLXdpZHRoOjE7fSNnZU1lcm1haWRPdXRwdXQtMTc0NDE0ODczNzg1NSAjTURfUEFSRU5UX0VORHtmaWxsOiNmNWY1ZjUhaW1wb3J0YW50O3N0cm9rZTojNjY2IWltcG9ydGFudDtzdHJva2Utd2lkdGg6MTt9I2dlTWVybWFpZE91dHB1dC0xNzQ0MTQ4NzM3ODU1IDpyb290ey0tbWVybWFpZC1mb250LWZhbWlseToidHJlYnVjaGV0IG1zIix2ZXJkYW5hLGFyaWFsLHNhbnMtc2VyaWY7fTwvc3R5bGU+PGc+PC9nPjxkZWZzPjxtYXJrZXIgb3JpZW50PSJhdXRvIiBtYXJrZXJIZWlnaHQ9IjI0MCIgbWFya2VyV2lkdGg9IjE5MCIgcmVmWT0iNyIgcmVmWD0iMCIgaWQ9Ik1EX1BBUkVOVF9TVEFSVCI+PHBhdGggZD0iTSAxOCw3IEw5LDEzIEwxLDcgTDksMSBaIj48L3BhdGg+PC9tYXJrZXI+PC9kZWZzPjxkZWZzPjxtYXJrZXIgb3JpZW50PSJhdXRvIiBtYXJrZXJIZWlnaHQ9IjI4IiBtYXJrZXJXaWR0aD0iMjAiIHJlZlk9IjciIHJlZlg9IjE5IiBpZD0iTURfUEFSRU5UX0VORCI+PHBhdGggZD0iTSAxOCw3IEw5LDEzIEwxLDcgTDksMSBaIj48L3BhdGg+PC9tYXJrZXI+PC9kZWZzPjxkZWZzPjxtYXJrZXIgb3JpZW50PSJhdXRvIiBtYXJrZXJIZWlnaHQ9IjE4IiBtYXJrZXJXaWR0aD0iMTgiIHJlZlk9IjkiIHJlZlg9IjAiIGlkPSJPTkxZX09ORV9TVEFSVCI+PHBhdGggZD0iTTksMCBMOSwxOCBNMTUsMCBMMTUsMTgiIGZpbGw9Im5vbmUiIHN0cm9rZT0iZ3JheSI+PC9wYXRoPjwvbWFya2VyPjwvZGVmcz48ZGVmcz48bWFya2VyIG9yaWVudD0iYXV0byIgbWFya2VySGVpZ2h0PSIxOCIgbWFya2VyV2lkdGg9IjE4IiByZWZZPSI5IiByZWZYPSIxOCIgaWQ9Ik9OTFlfT05FX0VORCI+PHBhdGggZD0iTTMsMCBMMywxOCBNOSwwIEw5LDE4IiBmaWxsPSJub25lIiBzdHJva2U9ImdyYXkiPjwvcGF0aD48L21hcmtlcj48L2RlZnM+PGRlZnM+PG1hcmtlciBvcmllbnQ9ImF1dG8iIG1hcmtlckhlaWdodD0iMTgiIG1hcmtlcldpZHRoPSIzMCIgcmVmWT0iOSIgcmVmWD0iMCIgaWQ9IlpFUk9fT1JfT05FX1NUQVJUIj48Y2lyY2xlIHI9IjYiIGN5PSI5IiBjeD0iMjEiIGZpbGw9IndoaXRlIiBzdHJva2U9ImdyYXkiPjwvY2lyY2xlPjxwYXRoIGQ9Ik05LDAgTDksMTgiIGZpbGw9Im5vbmUiIHN0cm9rZT0iZ3JheSI+PC9wYXRoPjwvbWFya2VyPjwvZGVmcz48ZGVmcz48bWFya2VyIG9yaWVudD0iYXV0byIgbWFya2VySGVpZ2h0PSIxOCIgbWFya2VyV2lkdGg9IjMwIiByZWZZPSI5IiByZWZYPSIzMCIgaWQ9IlpFUk9fT1JfT05FX0VORCI+PGNpcmNsZSByPSI2IiBjeT0iOSIgY3g9IjkiIGZpbGw9IndoaXRlIiBzdHJva2U9ImdyYXkiPjwvY2lyY2xlPjxwYXRoIGQ9Ik0yMSwwIEwyMSwxOCIgZmlsbD0ibm9uZSIgc3Ryb2tlPSJncmF5Ij48L3BhdGg+PC9tYXJrZXI+PC9kZWZzPjxkZWZzPjxtYXJrZXIgb3JpZW50PSJhdXRvIiBtYXJrZXJIZWlnaHQ9IjM2IiBtYXJrZXJXaWR0aD0iNDUiIHJlZlk9IjE4IiByZWZYPSIxOCIgaWQ9Ik9ORV9PUl9NT1JFX1NUQVJUIj48cGF0aCBkPSJNMCwxOCBRIDE4LDAgMzYsMTggUSAxOCwzNiAwLDE4IE00Miw5IEw0MiwyNyIgZmlsbD0ibm9uZSIgc3Ryb2tlPSJncmF5Ij48L3BhdGg+PC9tYXJrZXI+PC9kZWZzPjxkZWZzPjxtYXJrZXIgb3JpZW50PSJhdXRvIiBtYXJrZXJIZWlnaHQ9IjM2IiBtYXJrZXJXaWR0aD0iNDUiIHJlZlk9IjE4IiByZWZYPSIyNyIgaWQ9Ik9ORV9PUl9NT1JFX0VORCI+PHBhdGggZD0iTTMsOSBMMywyNyBNOSwxOCBRMjcsMCA0NSwxOCBRMjcsMzYgOSwxOCIgZmlsbD0ibm9uZSIgc3Ryb2tlPSJncmF5Ij48L3BhdGg+PC9tYXJrZXI+PC9kZWZzPjxkZWZzPjxtYXJrZXIgb3JpZW50PSJhdXRvIiBtYXJrZXJIZWlnaHQ9IjM2IiBtYXJrZXJXaWR0aD0iNTciIHJlZlk9IjE4IiByZWZYPSIxOCIgaWQ9IlpFUk9fT1JfTU9SRV9TVEFSVCI+PGNpcmNsZSByPSI2IiBjeT0iMTgiIGN4PSI0OCIgZmlsbD0id2hpdGUiIHN0cm9rZT0iZ3JheSI+PC9jaXJjbGU+PHBhdGggZD0iTTAsMTggUTE4LDAgMzYsMTggUTE4LDM2IDAsMTgiIGZpbGw9Im5vbmUiIHN0cm9rZT0iZ3JheSI+PC9wYXRoPjwvbWFya2VyPjwvZGVmcz48ZGVmcz48bWFya2VyIG9yaWVudD0iYXV0byIgbWFya2VySGVpZ2h0PSIzNiIgbWFya2VyV2lkdGg9IjU3IiByZWZZPSIxOCIgcmVmWD0iMzkiIGlkPSJaRVJPX09SX01PUkVfRU5EIj48Y2lyY2xlIHI9IjYiIGN5PSIxOCIgY3g9IjkiIGZpbGw9IndoaXRlIiBzdHJva2U9ImdyYXkiPjwvY2lyY2xlPjxwYXRoIGQ9Ik0yMSwxOCBRMzksMCA1NywxOCBRMzksMzYgMjEsMTgiIGZpbGw9Im5vbmUiIHN0cm9rZT0iZ3JheSI+PC9wYXRoPjwvbWFya2VyPjwvZGVmcz48cGF0aCBzdHlsZT0ic3Ryb2tlOiBncmF5OyBmaWxsOiBub25lOyIgbWFya2VyLXN0YXJ0PSJ1cmwoI09OTFlfT05FX1NUQVJUKSIgbWFya2VyLWVuZD0idXJsKCNaRVJPX09SX01PUkVfRU5EKSIgZD0iTTE2OC43ODEsMjIwLjgxNEwxNjYuNDQ2LDIyOS4xNDdDMTY0LjExMiwyMzcuNDgxLDE1OS40NDMsMjU0LjE0NywxNTcuMTA4LDI3MC44MTRDMTU0Ljc3MywyODcuNDgxLDE1NC43NzMsMzA0LjE0NywxNTQuNzczLDMxMi40ODFMMTU0Ljc3MywzMjAuODE0IiBjbGFzcz0iZXIgcmVsYXRpb25zaGlwTGluZSI+PC9wYXRoPjxwYXRoIHN0eWxlPSJzdHJva2U6IGdyYXk7IGZpbGw6IG5vbmU7IiBtYXJrZXItc3RhcnQ9InVybCgjT05MWV9PTkVfU1RBUlQpIiBtYXJrZXItZW5kPSJ1cmwoI1pFUk9fT1JfTU9SRV9FTkQpIiBkPSJNMzA0LjU0LDIyMC44MTRMMzEzLjQ3MywyMjkuMTQ3QzMyMi40MDYsMjM3LjQ4MSwzNDAuMjcxLDI1NC4xNDcsMzY1Ljg0MywyNzIuNjc0QzM5MS40MTYsMjkxLjIsNDI0LjY5NSwzMTEuNTg2LDQ0MS4zMzQsMzIxLjc3OUw0NTcuOTc0LDMzMS45NzIiIGNsYXNzPSJlciByZWxhdGlvbnNoaXBMaW5lIj48L3BhdGg+PHBhdGggc3R5bGU9InN0cm9rZTogZ3JheTsgZmlsbDogbm9uZTsiIG1hcmtlci1zdGFydD0idXJsKCNPTkxZX09ORV9TVEFSVCkiIG1hcmtlci1lbmQ9InVybCgjWkVST19PUl9NT1JFX0VORCkiIGQ9Ik02MDMuNjM3LDE2NS41NjVMNjAzLjYzNywxODMuMTA2QzYwMy42MzcsMjAwLjY0OCw2MDMuNjM3LDIzNS43MzEsNjAzLjYzNywyNjMuNDY1QzYwMy42MzcsMjkxLjIsNjAzLjYzNywzMTEuNTg2LDYwMy42MzcsMzIxLjc3OUw2MDMuNjM3LDMzMS45NzIiIGNsYXNzPSJlciByZWxhdGlvbnNoaXBMaW5lIj48L3BhdGg+PHBhdGggc3R5bGU9InN0cm9rZTogZ3JheTsgZmlsbDogbm9uZTsiIG1hcmtlci1zdGFydD0idXJsKCNPTkxZX09ORV9TVEFSVCkiIG1hcmtlci1lbmQ9InVybCgjWkVST19PUl9NT1JFX0VORCkiIGQ9Ik0xMDAzLjQ4LDE3Ni41OTFMMTAwMy40OCwxOTIuMjk1QzEwMDMuNDgsMjA3Ljk5OCwxMDAzLjQ4LDIzOS40MDYsOTY1LjQ5OSwyNjkuMzk2QzkyNy41MTcsMjk5LjM4NSw4NTEuNTUzLDMyNy45NTYsODEzLjU3MiwzNDIuMjQyTDc3NS41OSwzNTYuNTI3IiBjbGFzcz0iZXIgcmVsYXRpb25zaGlwTGluZSI+PC9wYXRoPjxwYXRoIHN0eWxlPSJzdHJva2U6IGdyYXk7IGZpbGw6IG5vbmU7IiBtYXJrZXItc3RhcnQ9InVybCgjT05MWV9PTkVfU1RBUlQpIiBtYXJrZXItZW5kPSJ1cmwoI1pFUk9fT1JfTU9SRV9FTkQpIiBkPSJNNjAzLjYzNyw1MTAuNDMxTDYwMy42MzcsNTIwLjYyNEM2MDMuNjM3LDUzMC44MTcsNjAzLjYzNyw1NTEuMjAyLDYxNi44MzQsNTY5LjcyOUM2MzAuMDMyLDU4OC4yNTUsNjU2LjQyNyw2MDQuOTIyLDY2OS42MjUsNjEzLjI1NUw2ODIuODIzLDYyMS41ODgiIGNsYXNzPSJlciByZWxhdGlvbnNoaXBMaW5lIj48L3BhdGg+PHBhdGggc3R5bGU9InN0cm9rZTogZ3JheTsgZmlsbDogbm9uZTsiIG1hcmtlci1zdGFydD0idXJsKCNPTkxZX09ORV9TVEFSVCkiIG1hcmtlci1lbmQ9InVybCgjWkVST19PUl9NT1JFX0VORCkiIGQ9Ik0xMDQ0LjkxLDQ2Ni4zNTlMMTA0NC45MSw0ODMuODk3QzEwNDQuOTEsNTAxLjQzNSwxMDQ0LjkxLDUzNi41MTIsMTAzMS43MTIsNTYyLjM4M0MxMDE4LjUxNSw1ODguMjU1LDk5Mi4xMTksNjA0LjkyMiw5NzguOTIyLDYxMy4yNTVMOTY1LjcyNCw2MjEuNTg4IiBjbGFzcz0iZXIgcmVsYXRpb25zaGlwTGluZSI+PC9wYXRoPjxnIHRyYW5zZm9ybT0idHJhbnNsYXRlKDcxLjIzODI4MTI1LDIwICkiIGlkPSJlbnRpdHktRU1QTE9ZRUUtZmNhYWJhNDEtMDg0Ny01NzQwLTkxY2UtNjUxODkyNTdhMTliIj48cmVjdCBoZWlnaHQ9IjIwMC44MTQwNjQwMjU4Nzg5IiB3aWR0aD0iMjUxLjM0Mzc1IiB5PSIwIiB4PSIwIiBjbGFzcz0iZXIgZW50aXR5Qm94Ij48L3JlY3Q+PHRleHQgc3R5bGU9ImRvbWluYW50LWJhc2VsaW5lOiBtaWRkbGU7IHRleHQtYW5jaG9yOiBtaWRkbGU7IGZvbnQtc2l6ZTogMTJweDsiIHRyYW5zZm9ybT0idHJhbnNsYXRlKDEyNS42NzE4NzUsMTIpIiB5PSIwIiB4PSIwIiBpZD0idGV4dC1lbnRpdHktRU1QTE9ZRUUtZmNhYWJhNDEtMDg0Ny01NzQwLTkxY2UtNjUxODkyNTdhMTliIiBjbGFzcz0iZXIgZW50aXR5TGFiZWwiPkVNUExPWUVFPC90ZXh0PjxyZWN0IGhlaWdodD0iMjIuMTMxNjQxMzg3OTM5NDUzIiB3aWR0aD0iNDYuMTQwNjI1IiB5PSIyNCIgeD0iMCIgY2xhc3M9ImVyIGF0dHJpYnV0ZUJveE9kZCI+PC9yZWN0Pjx0ZXh0IHN0eWxlPSJkb21pbmFudC1iYXNlbGluZTogbWlkZGxlOyBmb250LXNpemU6IDEwLjJweDsiIHRyYW5zZm9ybT0idHJhbnNsYXRlKDUsMzUuMDY1ODIwNjkzOTY5NzMpIiB5PSIwIiB4PSIwIiBpZD0idGV4dC1lbnRpdHktRU1QTE9ZRUUtZmNhYWJhNDEtMDg0Ny01NzQwLTkxY2UtNjUxODkyNTdhMTliLWF0dHItMS10eXBlIiBjbGFzcz0iZXIgZW50aXR5TGFiZWwiPnN0cmluZzwvdGV4dD48cmVjdCBoZWlnaHQ9IjIyLjEzMTY0MTM4NzkzOTQ1MyIgd2lkdGg9IjYyLjg3NSIgeT0iMjQiIHg9IjQ2LjE0MDYyNSIgY2xhc3M9ImVyIGF0dHJpYnV0ZUJveE9kZCI+PC9yZWN0Pjx0ZXh0IHN0eWxlPSJkb21pbmFudC1iYXNlbGluZTogbWlkZGxlOyBmb250LXNpemU6IDEwLjJweDsiIHRyYW5zZm9ybT0idHJhbnNsYXRlKDUxLjE0MDYyNSwzNS4wNjU4MjA2OTM5Njk3MykiIHk9IjAiIHg9IjAiIGlkPSJ0ZXh0LWVudGl0eS1FTVBMT1lFRS1mY2FhYmE0MS0wODQ3LTU3NDAtOTFjZS02NTE4OTI1N2ExOWItYXR0ci0xLW5hbWUiIGNsYXNzPSJlciBlbnRpdHlMYWJlbCI+ZW1wbG95ZWVJZDwvdGV4dD48cmVjdCBoZWlnaHQ9IjIyLjEzMTY0MTM4NzkzOTQ1MyIgd2lkdGg9IjIxLjU2MjUiIHk9IjI0IiB4PSIxMDkuMDE1NjI1IiBjbGFzcz0iZXIgYXR0cmlidXRlQm94T2RkIj48L3JlY3Q+PHRleHQgc3R5bGU9ImRvbWluYW50LWJhc2VsaW5lOiBtaWRkbGU7IGZvbnQtc2l6ZTogMTAuMnB4OyIgdHJhbnNmb3JtPSJ0cmFuc2xhdGUoMTE0LjAxNTYyNSwzNS4wNjU4MjA2OTM5Njk3MykiIHk9IjAiIHg9IjAiIGlkPSJ0ZXh0LWVudGl0eS1FTVBMT1lFRS1mY2FhYmE0MS0wODQ3LTU3NDAtOTFjZS02NTE4OTI1N2ExOWItYXR0ci0xLWtleSIgY2xhc3M9ImVyIGVudGl0eUxhYmVsIj5QSzwvdGV4dD48cmVjdCBoZWlnaHQ9IjIyLjEzMTY0MTM4NzkzOTQ1MyIgd2lkdGg9IjEyMC43NjU2MjUiIHk9IjI0IiB4PSIxMzAuNTc4MTI1IiBjbGFzcz0iZXIgYXR0cmlidXRlQm94T2RkIj48L3JlY3Q+PHRleHQgc3R5bGU9ImRvbWluYW50LWJhc2VsaW5lOiBtaWRkbGU7IGZvbnQtc2l6ZTogMTAuMnB4OyIgdHJhbnNmb3JtPSJ0cmFuc2xhdGUoMTM1LjU3ODEyNSwzNS4wNjU4MjA2OTM5Njk3MykiIHk9IjAiIHg9IjAiIGlkPSJ0ZXh0LWVudGl0eS1FTVBMT1lFRS1mY2FhYmE0MS0wODQ3LTU3NDAtOTFjZS02NTE4OTI1N2ExOWItYXR0ci0xLWNvbW1lbnQiIGNsYXNzPSJlciBlbnRpdHlMYWJlbCI+VW5pcXVlIGlkZW50aWZpZXIgKFVVSUQpPC90ZXh0PjxyZWN0IGhlaWdodD0iMjIuMDkxNzk2ODc1IiB3aWR0aD0iNDYuMTQwNjI1IiB5PSI0Ni4xMzE2NDEzODc5Mzk0NSIgeD0iMCIgY2xhc3M9ImVyIGF0dHJpYnV0ZUJveEV2ZW4iPjwvcmVjdD48dGV4dCBzdHlsZT0iZG9taW5hbnQtYmFzZWxpbmU6IG1pZGRsZTsgZm9udC1zaXplOiAxMC4ycHg7IiB0cmFuc2Zvcm09InRyYW5zbGF0ZSg1LDU3LjE3NzUzOTgyNTQzOTQ1KSIgeT0iMCIgeD0iMCIgaWQ9InRleHQtZW50aXR5LUVNUExPWUVFLWZjYWFiYTQxLTA4NDctNTc0MC05MWNlLTY1MTg5MjU3YTE5Yi1hdHRyLTItdHlwZSIgY2xhc3M9ImVyIGVudGl0eUxhYmVsIj5zdHJpbmc8L3RleHQ+PHJlY3QgaGVpZ2h0PSIyMi4wOTE3OTY4NzUiIHdpZHRoPSI2Mi44NzUiIHk9IjQ2LjEzMTY0MTM4NzkzOTQ1IiB4PSI0Ni4xNDA2MjUiIGNsYXNzPSJlciBhdHRyaWJ1dGVCb3hFdmVuIj48L3JlY3Q+PHRleHQgc3R5bGU9ImRvbWluYW50LWJhc2VsaW5lOiBtaWRkbGU7IGZvbnQtc2l6ZTogMTAuMnB4OyIgdHJhbnNmb3JtPSJ0cmFuc2xhdGUoNTEuMTQwNjI1LDU3LjE3NzUzOTgyNTQzOTQ1KSIgeT0iMCIgeD0iMCIgaWQ9InRleHQtZW50aXR5LUVNUExPWUVFLWZjYWFiYTQxLTA4NDctNTc0MC05MWNlLTY1MTg5MjU3YTE5Yi1hdHRyLTItbmFtZSIgY2xhc3M9ImVyIGVudGl0eUxhYmVsIj5maXJzdE5hbWU8L3RleHQ+PHJlY3QgaGVpZ2h0PSIyMi4wOTE3OTY4NzUiIHdpZHRoPSIyMS41NjI1IiB5PSI0Ni4xMzE2NDEzODc5Mzk0NSIgeD0iMTA5LjAxNTYyNSIgY2xhc3M9ImVyIGF0dHJpYnV0ZUJveEV2ZW4iPjwvcmVjdD48dGV4dCBzdHlsZT0iZG9taW5hbnQtYmFzZWxpbmU6IG1pZGRsZTsgZm9udC1zaXplOiAxMC4ycHg7IiB0cmFuc2Zvcm09InRyYW5zbGF0ZSgxMTQuMDE1NjI1LDU3LjE3NzUzOTgyNTQzOTQ1KSIgeT0iMCIgeD0iMCIgaWQ9InRleHQtZW50aXR5LUVNUExPWUVFLWZjYWFiYTQxLTA4NDctNTc0MC05MWNlLTY1MTg5MjU3YTE5Yi1hdHRyLTIta2V5IiBjbGFzcz0iZXIgZW50aXR5TGFiZWwiPjwvdGV4dD48cmVjdCBoZWlnaHQ9IjIyLjA5MTc5Njg3NSIgd2lkdGg9IjEyMC43NjU2MjUiIHk9IjQ2LjEzMTY0MTM4NzkzOTQ1IiB4PSIxMzAuNTc4MTI1IiBjbGFzcz0iZXIgYXR0cmlidXRlQm94RXZlbiI+PC9yZWN0Pjx0ZXh0IHN0eWxlPSJkb21pbmFudC1iYXNlbGluZTogbWlkZGxlOyBmb250LXNpemU6IDEwLjJweDsiIHRyYW5zZm9ybT0idHJhbnNsYXRlKDEzNS41NzgxMjUsNTcuMTc3NTM5ODI1NDM5NDUpIiB5PSIwIiB4PSIwIiBpZD0idGV4dC1lbnRpdHktRU1QTE9ZRUUtZmNhYWJhNDEtMDg0Ny01NzQwLTkxY2UtNjUxODkyNTdhMTliLWF0dHItMi1jb21tZW50IiBjbGFzcz0iZXIgZW50aXR5TGFiZWwiPkVtcGxveWVlIGZpcnN0IG5hbWU8L3RleHQ+PHJlY3QgaGVpZ2h0PSIyMi4wOTE3OTY4NzUiIHdpZHRoPSI0Ni4xNDA2MjUiIHk9IjY4LjIyMzQzODI2MjkzOTQ1IiB4PSIwIiBjbGFzcz0iZXIgYXR0cmlidXRlQm94T2RkIj48L3JlY3Q+PHRleHQgc3R5bGU9ImRvbWluYW50LWJhc2VsaW5lOiBtaWRkbGU7IGZvbnQtc2l6ZTogMTAuMnB4OyIgdHJhbnNmb3JtPSJ0cmFuc2xhdGUoNSw3OS4yNjkzMzY3MDA0Mzk0NSkiIHk9IjAiIHg9IjAiIGlkPSJ0ZXh0LWVudGl0eS1FTVBMT1lFRS1mY2FhYmE0MS0wODQ3LTU3NDAtOTFjZS02NTE4OTI1N2ExOWItYXR0ci0zLXR5cGUiIGNsYXNzPSJlciBlbnRpdHlMYWJlbCI+c3RyaW5nPC90ZXh0PjxyZWN0IGhlaWdodD0iMjIuMDkxNzk2ODc1IiB3aWR0aD0iNjIuODc1IiB5PSI2OC4yMjM0MzgyNjI5Mzk0NSIgeD0iNDYuMTQwNjI1IiBjbGFzcz0iZXIgYXR0cmlidXRlQm94T2RkIj48L3JlY3Q+PHRleHQgc3R5bGU9ImRvbWluYW50LWJhc2VsaW5lOiBtaWRkbGU7IGZvbnQtc2l6ZTogMTAuMnB4OyIgdHJhbnNmb3JtPSJ0cmFuc2xhdGUoNTEuMTQwNjI1LDc5LjI2OTMzNjcwMDQzOTQ1KSIgeT0iMCIgeD0iMCIgaWQ9InRleHQtZW50aXR5LUVNUExPWUVFLWZjYWFiYTQxLTA4NDctNTc0MC05MWNlLTY1MTg5MjU3YTE5Yi1hdHRyLTMtbmFtZSIgY2xhc3M9ImVyIGVudGl0eUxhYmVsIj5sYXN0TmFtZTwvdGV4dD48cmVjdCBoZWlnaHQ9IjIyLjA5MTc5Njg3NSIgd2lkdGg9IjIxLjU2MjUiIHk9IjY4LjIyMzQzODI2MjkzOTQ1IiB4PSIxMDkuMDE1NjI1IiBjbGFzcz0iZXIgYXR0cmlidXRlQm94T2RkIj48L3JlY3Q+PHRleHQgc3R5bGU9ImRvbWluYW50LWJhc2VsaW5lOiBtaWRkbGU7IGZvbnQtc2l6ZTogMTAuMnB4OyIgdHJhbnNmb3JtPSJ0cmFuc2xhdGUoMTE0LjAxNTYyNSw3OS4yNjkzMzY3MDA0Mzk0NSkiIHk9IjAiIHg9IjAiIGlkPSJ0ZXh0LWVudGl0eS1FTVBMT1lFRS1mY2FhYmE0MS0wODQ3LTU3NDAtOTFjZS02NTE4OTI1N2ExOWItYXR0ci0zLWtleSIgY2xhc3M9ImVyIGVudGl0eUxhYmVsIj48L3RleHQ+PHJlY3QgaGVpZ2h0PSIyMi4wOTE3OTY4NzUiIHdpZHRoPSIxMjAuNzY1NjI1IiB5PSI2OC4yMjM0MzgyNjI5Mzk0NSIgeD0iMTMwLjU3ODEyNSIgY2xhc3M9ImVyIGF0dHJpYnV0ZUJveE9kZCI+PC9yZWN0Pjx0ZXh0IHN0eWxlPSJkb21pbmFudC1iYXNlbGluZTogbWlkZGxlOyBmb250LXNpemU6IDEwLjJweDsiIHRyYW5zZm9ybT0idHJhbnNsYXRlKDEzNS41NzgxMjUsNzkuMjY5MzM2NzAwNDM5NDUpIiB5PSIwIiB4PSIwIiBpZD0idGV4dC1lbnRpdHktRU1QTE9ZRUUtZmNhYWJhNDEtMDg0Ny01NzQwLTkxY2UtNjUxODkyNTdhMTliLWF0dHItMy1jb21tZW50IiBjbGFzcz0iZXIgZW50aXR5TGFiZWwiPkVtcGxveWVlIGxhc3QgbmFtZTwvdGV4dD48cmVjdCBoZWlnaHQ9IjIyLjEzMTY0MTM4NzkzOTQ1MyIgd2lkdGg9IjQ2LjE0MDYyNSIgeT0iOTAuMzE1MjM1MTM3OTM5NDUiIHg9IjAiIGNsYXNzPSJlciBhdHRyaWJ1dGVCb3hFdmVuIj48L3JlY3Q+PHRleHQgc3R5bGU9ImRvbWluYW50LWJhc2VsaW5lOiBtaWRkbGU7IGZvbnQtc2l6ZTogMTAuMnB4OyIgdHJhbnNmb3JtPSJ0cmFuc2xhdGUoNSwxMDEuMzgxMDU1ODMxOTA5MTgpIiB5PSIwIiB4PSIwIiBpZD0idGV4dC1lbnRpdHktRU1QTE9ZRUUtZmNhYWJhNDEtMDg0Ny01NzQwLTkxY2UtNjUxODkyNTdhMTliLWF0dHItNC10eXBlIiBjbGFzcz0iZXIgZW50aXR5TGFiZWwiPnN0cmluZzwvdGV4dD48cmVjdCBoZWlnaHQ9IjIyLjEzMTY0MTM4NzkzOTQ1MyIgd2lkdGg9IjYyLjg3NSIgeT0iOTAuMzE1MjM1MTM3OTM5NDUiIHg9IjQ2LjE0MDYyNSIgY2xhc3M9ImVyIGF0dHJpYnV0ZUJveEV2ZW4iPjwvcmVjdD48dGV4dCBzdHlsZT0iZG9taW5hbnQtYmFzZWxpbmU6IG1pZGRsZTsgZm9udC1zaXplOiAxMC4ycHg7IiB0cmFuc2Zvcm09InRyYW5zbGF0ZSg1MS4xNDA2MjUsMTAxLjM4MTA1NTgzMTkwOTE4KSIgeT0iMCIgeD0iMCIgaWQ9InRleHQtZW50aXR5LUVNUExPWUVFLWZjYWFiYTQxLTA4NDctNTc0MC05MWNlLTY1MTg5MjU3YTE5Yi1hdHRyLTQtbmFtZSIgY2xhc3M9ImVyIGVudGl0eUxhYmVsIj5nZW5kZXI8L3RleHQ+PHJlY3QgaGVpZ2h0PSIyMi4xMzE2NDEzODc5Mzk0NTMiIHdpZHRoPSIyMS41NjI1IiB5PSI5MC4zMTUyMzUxMzc5Mzk0NSIgeD0iMTA5LjAxNTYyNSIgY2xhc3M9ImVyIGF0dHJpYnV0ZUJveEV2ZW4iPjwvcmVjdD48dGV4dCBzdHlsZT0iZG9taW5hbnQtYmFzZWxpbmU6IG1pZGRsZTsgZm9udC1zaXplOiAxMC4ycHg7IiB0cmFuc2Zvcm09InRyYW5zbGF0ZSgxMTQuMDE1NjI1LDEwMS4zODEwNTU4MzE5MDkxOCkiIHk9IjAiIHg9IjAiIGlkPSJ0ZXh0LWVudGl0eS1FTVBMT1lFRS1mY2FhYmE0MS0wODQ3LTU3NDAtOTFjZS02NTE4OTI1N2ExOWItYXR0ci00LWtleSIgY2xhc3M9ImVyIGVudGl0eUxhYmVsIj48L3RleHQ+PHJlY3QgaGVpZ2h0PSIyMi4xMzE2NDEzODc5Mzk0NTMiIHdpZHRoPSIxMjAuNzY1NjI1IiB5PSI5MC4zMTUyMzUxMzc5Mzk0NSIgeD0iMTMwLjU3ODEyNSIgY2xhc3M9ImVyIGF0dHJpYnV0ZUJveEV2ZW4iPjwvcmVjdD48dGV4dCBzdHlsZT0iZG9taW5hbnQtYmFzZWxpbmU6IG1pZGRsZTsgZm9udC1zaXplOiAxMC4ycHg7IiB0cmFuc2Zvcm09InRyYW5zbGF0ZSgxMzUuNTc4MTI1LDEwMS4zODEwNTU4MzE5MDkxOCkiIHk9IjAiIHg9IjAiIGlkPSJ0ZXh0LWVudGl0eS1FTVBMT1lFRS1mY2FhYmE0MS0wODQ3LTU3NDAtOTFjZS02NTE4OTI1N2ExOWItYXR0ci00LWNvbW1lbnQiIGNsYXNzPSJlciBlbnRpdHlMYWJlbCI+R2VuZGVyIChNYWxlL0ZlbWFsZSk8L3RleHQ+PHJlY3QgaGVpZ2h0PSIyMi4wOTE3OTY4NzUiIHdpZHRoPSI0Ni4xNDA2MjUiIHk9IjExMi40NDY4NzY1MjU4Nzg5IiB4PSIwIiBjbGFzcz0iZXIgYXR0cmlidXRlQm94T2RkIj48L3JlY3Q+PHRleHQgc3R5bGU9ImRvbWluYW50LWJhc2VsaW5lOiBtaWRkbGU7IGZvbnQtc2l6ZTogMTAuMnB4OyIgdHJhbnNmb3JtPSJ0cmFuc2xhdGUoNSwxMjMuNDkyNzc0OTYzMzc4OSkiIHk9IjAiIHg9IjAiIGlkPSJ0ZXh0LWVudGl0eS1FTVBMT1lFRS1mY2FhYmE0MS0wODQ3LTU3NDAtOTFjZS02NTE4OTI1N2ExOWItYXR0ci01LXR5cGUiIGNsYXNzPSJlciBlbnRpdHlMYWJlbCI+c3RyaW5nPC90ZXh0PjxyZWN0IGhlaWdodD0iMjIuMDkxNzk2ODc1IiB3aWR0aD0iNjIuODc1IiB5PSIxMTIuNDQ2ODc2NTI1ODc4OSIgeD0iNDYuMTQwNjI1IiBjbGFzcz0iZXIgYXR0cmlidXRlQm94T2RkIj48L3JlY3Q+PHRleHQgc3R5bGU9ImRvbWluYW50LWJhc2VsaW5lOiBtaWRkbGU7IGZvbnQtc2l6ZTogMTAuMnB4OyIgdHJhbnNmb3JtPSJ0cmFuc2xhdGUoNTEuMTQwNjI1LDEyMy40OTI3NzQ5NjMzNzg5KSIgeT0iMCIgeD0iMCIgaWQ9InRleHQtZW50aXR5LUVNUExPWUVFLWZjYWFiYTQxLTA4NDctNTc0MC05MWNlLTY1MTg5MjU3YTE5Yi1hdHRyLTUtbmFtZSIgY2xhc3M9ImVyIGVudGl0eUxhYmVsIj5lbWFpbDwvdGV4dD48cmVjdCBoZWlnaHQ9IjIyLjA5MTc5Njg3NSIgd2lkdGg9IjIxLjU2MjUiIHk9IjExMi40NDY4NzY1MjU4Nzg5IiB4PSIxMDkuMDE1NjI1IiBjbGFzcz0iZXIgYXR0cmlidXRlQm94T2RkIj48L3JlY3Q+PHRleHQgc3R5bGU9ImRvbWluYW50LWJhc2VsaW5lOiBtaWRkbGU7IGZvbnQtc2l6ZTogMTAuMnB4OyIgdHJhbnNmb3JtPSJ0cmFuc2xhdGUoMTE0LjAxNTYyNSwxMjMuNDkyNzc0OTYzMzc4OSkiIHk9IjAiIHg9IjAiIGlkPSJ0ZXh0LWVudGl0eS1FTVBMT1lFRS1mY2FhYmE0MS0wODQ3LTU3NDAtOTFjZS02NTE4OTI1N2ExOWItYXR0ci01LWtleSIgY2xhc3M9ImVyIGVudGl0eUxhYmVsIj48L3RleHQ+PHJlY3QgaGVpZ2h0PSIyMi4wOTE3OTY4NzUiIHdpZHRoPSIxMjAuNzY1NjI1IiB5PSIxMTIuNDQ2ODc2NTI1ODc4OSIgeD0iMTMwLjU3ODEyNSIgY2xhc3M9ImVyIGF0dHJpYnV0ZUJveE9kZCI+PC9yZWN0Pjx0ZXh0IHN0eWxlPSJkb21pbmFudC1iYXNlbGluZTogbWlkZGxlOyBmb250LXNpemU6IDEwLjJweDsiIHRyYW5zZm9ybT0idHJhbnNsYXRlKDEzNS41NzgxMjUsMTIzLjQ5Mjc3NDk2MzM3ODkpIiB5PSIwIiB4PSIwIiBpZD0idGV4dC1lbnRpdHktRU1QTE9ZRUUtZmNhYWJhNDEtMDg0Ny01NzQwLTkxY2UtNjUxODkyNTdhMTliLWF0dHItNS1jb21tZW50IiBjbGFzcz0iZXIgZW50aXR5TGFiZWwiPkVtYWlsIGFkZHJlc3M8L3RleHQ+PHJlY3QgaGVpZ2h0PSIyMi4wOTE3OTY4NzUiIHdpZHRoPSI0Ni4xNDA2MjUiIHk9IjEzNC41Mzg2NzM0MDA4Nzg5IiB4PSIwIiBjbGFzcz0iZXIgYXR0cmlidXRlQm94RXZlbiI+PC9yZWN0Pjx0ZXh0IHN0eWxlPSJkb21pbmFudC1iYXNlbGluZTogbWlkZGxlOyBmb250LXNpemU6IDEwLjJweDsiIHRyYW5zZm9ybT0idHJhbnNsYXRlKDUsMTQ1LjU4NDU3MTgzODM3ODkpIiB5PSIwIiB4PSIwIiBpZD0idGV4dC1lbnRpdHktRU1QTE9ZRUUtZmNhYWJhNDEtMDg0Ny01NzQwLTkxY2UtNjUxODkyNTdhMTliLWF0dHItNi10eXBlIiBjbGFzcz0iZXIgZW50aXR5TGFiZWwiPmludDwvdGV4dD48cmVjdCBoZWlnaHQ9IjIyLjA5MTc5Njg3NSIgd2lkdGg9IjYyLjg3NSIgeT0iMTM0LjUzODY3MzQwMDg3ODkiIHg9IjQ2LjE0MDYyNSIgY2xhc3M9ImVyIGF0dHJpYnV0ZUJveEV2ZW4iPjwvcmVjdD48dGV4dCBzdHlsZT0iZG9taW5hbnQtYmFzZWxpbmU6IG1pZGRsZTsgZm9udC1zaXplOiAxMC4ycHg7IiB0cmFuc2Zvcm09InRyYW5zbGF0ZSg1MS4xNDA2MjUsMTQ1LjU4NDU3MTgzODM3ODkpIiB5PSIwIiB4PSIwIiBpZD0idGV4dC1lbnRpdHktRU1QTE9ZRUUtZmNhYWJhNDEtMDg0Ny01NzQwLTkxY2UtNjUxODkyNTdhMTliLWF0dHItNi1uYW1lIiBjbGFzcz0iZXIgZW50aXR5TGFiZWwiPmFnZTwvdGV4dD48cmVjdCBoZWlnaHQ9IjIyLjA5MTc5Njg3NSIgd2lkdGg9IjIxLjU2MjUiIHk9IjEzNC41Mzg2NzM0MDA4Nzg5IiB4PSIxMDkuMDE1NjI1IiBjbGFzcz0iZXIgYXR0cmlidXRlQm94RXZlbiI+PC9yZWN0Pjx0ZXh0IHN0eWxlPSJkb21pbmFudC1iYXNlbGluZTogbWlkZGxlOyBmb250LXNpemU6IDEwLjJweDsiIHRyYW5zZm9ybT0idHJhbnNsYXRlKDExNC4wMTU2MjUsMTQ1LjU4NDU3MTgzODM3ODkpIiB5PSIwIiB4PSIwIiBpZD0idGV4dC1lbnRpdHktRU1QTE9ZRUUtZmNhYWJhNDEtMDg0Ny01NzQwLTkxY2UtNjUxODkyNTdhMTliLWF0dHItNi1rZXkiIGNsYXNzPSJlciBlbnRpdHlMYWJlbCI+PC90ZXh0PjxyZWN0IGhlaWdodD0iMjIuMDkxNzk2ODc1IiB3aWR0aD0iMTIwLjc2NTYyNSIgeT0iMTM0LjUzODY3MzQwMDg3ODkiIHg9IjEzMC41NzgxMjUiIGNsYXNzPSJlciBhdHRyaWJ1dGVCb3hFdmVuIj48L3JlY3Q+PHRleHQgc3R5bGU9ImRvbWluYW50LWJhc2VsaW5lOiBtaWRkbGU7IGZvbnQtc2l6ZTogMTAuMnB4OyIgdHJhbnNmb3JtPSJ0cmFuc2xhdGUoMTM1LjU3ODEyNSwxNDUuNTg0NTcxODM4Mzc4OSkiIHk9IjAiIHg9IjAiIGlkPSJ0ZXh0LWVudGl0eS1FTVBMT1lFRS1mY2FhYmE0MS0wODQ3LTU3NDAtOTFjZS02NTE4OTI1N2ExOWItYXR0ci02LWNvbW1lbnQiIGNsYXNzPSJlciBlbnRpdHlMYWJlbCI+RW1wbG95ZWUgYWdlPC90ZXh0PjxyZWN0IGhlaWdodD0iMjIuMDkxNzk2ODc1IiB3aWR0aD0iNDYuMTQwNjI1IiB5PSIxNTYuNjMwNDcwMjc1ODc4OSIgeD0iMCIgY2xhc3M9ImVyIGF0dHJpYnV0ZUJveE9kZCI+PC9yZWN0Pjx0ZXh0IHN0eWxlPSJkb21pbmFudC1iYXNlbGluZTogbWlkZGxlOyBmb250LXNpemU6IDEwLjJweDsiIHRyYW5zZm9ybT0idHJhbnNsYXRlKDUsMTY3LjY3NjM2ODcxMzM3ODkpIiB5PSIwIiB4PSIwIiBpZD0idGV4dC1lbnRpdHktRU1QTE9ZRUUtZmNhYWJhNDEtMDg0Ny01NzQwLTkxY2UtNjUxODkyNTdhMTliLWF0dHItNy10eXBlIiBjbGFzcz0iZXIgZW50aXR5TGFiZWwiPmRhdGU8L3RleHQ+PHJlY3QgaGVpZ2h0PSIyMi4wOTE3OTY4NzUiIHdpZHRoPSI2Mi44NzUiIHk9IjE1Ni42MzA0NzAyNzU4Nzg5IiB4PSI0Ni4xNDA2MjUiIGNsYXNzPSJlciBhdHRyaWJ1dGVCb3hPZGQiPjwvcmVjdD48dGV4dCBzdHlsZT0iZG9taW5hbnQtYmFzZWxpbmU6IG1pZGRsZTsgZm9udC1zaXplOiAxMC4ycHg7IiB0cmFuc2Zvcm09InRyYW5zbGF0ZSg1MS4xNDA2MjUsMTY3LjY3NjM2ODcxMzM3ODkpIiB5PSIwIiB4PSIwIiBpZD0idGV4dC1lbnRpdHktRU1QTE9ZRUUtZmNhYWJhNDEtMDg0Ny01NzQwLTkxY2UtNjUxODkyNTdhMTliLWF0dHItNy1uYW1lIiBjbGFzcz0iZXIgZW50aXR5TGFiZWwiPmJpcnRoZGF5PC90ZXh0PjxyZWN0IGhlaWdodD0iMjIuMDkxNzk2ODc1IiB3aWR0aD0iMjEuNTYyNSIgeT0iMTU2LjYzMDQ3MDI3NTg3ODkiIHg9IjEwOS4wMTU2MjUiIGNsYXNzPSJlciBhdHRyaWJ1dGVCb3hPZGQiPjwvcmVjdD48dGV4dCBzdHlsZT0iZG9taW5hbnQtYmFzZWxpbmU6IG1pZGRsZTsgZm9udC1zaXplOiAxMC4ycHg7IiB0cmFuc2Zvcm09InRyYW5zbGF0ZSgxMTQuMDE1NjI1LDE2Ny42NzYzNjg3MTMzNzg5KSIgeT0iMCIgeD0iMCIgaWQ9InRleHQtZW50aXR5LUVNUExPWUVFLWZjYWFiYTQxLTA4NDctNTc0MC05MWNlLTY1MTg5MjU3YTE5Yi1hdHRyLTcta2V5IiBjbGFzcz0iZXIgZW50aXR5TGFiZWwiPjwvdGV4dD48cmVjdCBoZWlnaHQ9IjIyLjA5MTc5Njg3NSIgd2lkdGg9IjEyMC43NjU2MjUiIHk9IjE1Ni42MzA0NzAyNzU4Nzg5IiB4PSIxMzAuNTc4MTI1IiBjbGFzcz0iZXIgYXR0cmlidXRlQm94T2RkIj48L3JlY3Q+PHRleHQgc3R5bGU9ImRvbWluYW50LWJhc2VsaW5lOiBtaWRkbGU7IGZvbnQtc2l6ZTogMTAuMnB4OyIgdHJhbnNmb3JtPSJ0cmFuc2xhdGUoMTM1LjU3ODEyNSwxNjcuNjc2MzY4NzEzMzc4OSkiIHk9IjAiIHg9IjAiIGlkPSJ0ZXh0LWVudGl0eS1FTVBMT1lFRS1mY2FhYmE0MS0wODQ3LTU3NDAtOTFjZS02NTE4OTI1N2ExOWItYXR0ci03LWNvbW1lbnQiIGNsYXNzPSJlciBlbnRpdHlMYWJlbCI+RGF0ZSBvZiBiaXJ0aDwvdGV4dD48cmVjdCBoZWlnaHQ9IjIyLjA5MTc5Njg3NSIgd2lkdGg9IjQ2LjE0MDYyNSIgeT0iMTc4LjcyMjI2NzE1MDg3ODkiIHg9IjAiIGNsYXNzPSJlciBhdHRyaWJ1dGVCb3hFdmVuIj48L3JlY3Q+PHRleHQgc3R5bGU9ImRvbWluYW50LWJhc2VsaW5lOiBtaWRkbGU7IGZvbnQtc2l6ZTogMTAuMnB4OyIgdHJhbnNmb3JtPSJ0cmFuc2xhdGUoNSwxODkuNzY4MTY1NTg4Mzc4OSkiIHk9IjAiIHg9IjAiIGlkPSJ0ZXh0LWVudGl0eS1FTVBMT1lFRS1mY2FhYmE0MS0wODQ3LTU3NDAtOTFjZS02NTE4OTI1N2ExOWItYXR0ci04LXR5cGUiIGNsYXNzPSJlciBlbnRpdHlMYWJlbCI+Ym9vbGVhbjwvdGV4dD48cmVjdCBoZWlnaHQ9IjIyLjA5MTc5Njg3NSIgd2lkdGg9IjYyLjg3NSIgeT0iMTc4LjcyMjI2NzE1MDg3ODkiIHg9IjQ2LjE0MDYyNSIgY2xhc3M9ImVyIGF0dHJpYnV0ZUJveEV2ZW4iPjwvcmVjdD48dGV4dCBzdHlsZT0iZG9taW5hbnQtYmFzZWxpbmU6IG1pZGRsZTsgZm9udC1zaXplOiAxMC4ycHg7IiB0cmFuc2Zvcm09InRyYW5zbGF0ZSg1MS4xNDA2MjUsMTg5Ljc2ODE2NTU4ODM3ODkpIiB5PSIwIiB4PSIwIiBpZD0idGV4dC1lbnRpdHktRU1QTE9ZRUUtZmNhYWJhNDEtMDg0Ny01NzQwLTkxY2UtNjUxODkyNTdhMTliLWF0dHItOC1uYW1lIiBjbGFzcz0iZXIgZW50aXR5TGFiZWwiPmFjdGl2ZTwvdGV4dD48cmVjdCBoZWlnaHQ9IjIyLjA5MTc5Njg3NSIgd2lkdGg9IjIxLjU2MjUiIHk9IjE3OC43MjIyNjcxNTA4Nzg5IiB4PSIxMDkuMDE1NjI1IiBjbGFzcz0iZXIgYXR0cmlidXRlQm94RXZlbiI+PC9yZWN0Pjx0ZXh0IHN0eWxlPSJkb21pbmFudC1iYXNlbGluZTogbWlkZGxlOyBmb250LXNpemU6IDEwLjJweDsiIHRyYW5zZm9ybT0idHJhbnNsYXRlKDExNC4wMTU2MjUsMTg5Ljc2ODE2NTU4ODM3ODkpIiB5PSIwIiB4PSIwIiBpZD0idGV4dC1lbnRpdHktRU1QTE9ZRUUtZmNhYWJhNDEtMDg0Ny01NzQwLTkxY2UtNjUxODkyNTdhMTliLWF0dHItOC1rZXkiIGNsYXNzPSJlciBlbnRpdHlMYWJlbCI+PC90ZXh0PjxyZWN0IGhlaWdodD0iMjIuMDkxNzk2ODc1IiB3aWR0aD0iMTIwLjc2NTYyNSIgeT0iMTc4LjcyMjI2NzE1MDg3ODkiIHg9IjEzMC41NzgxMjUiIGNsYXNzPSJlciBhdHRyaWJ1dGVCb3hFdmVuIj48L3JlY3Q+PHRleHQgc3R5bGU9ImRvbWluYW50LWJhc2VsaW5lOiBtaWRkbGU7IGZvbnQtc2l6ZTogMTAuMnB4OyIgdHJhbnNmb3JtPSJ0cmFuc2xhdGUoMTM1LjU3ODEyNSwxODkuNzY4MTY1NTg4Mzc4OSkiIHk9IjAiIHg9IjAiIGlkPSJ0ZXh0LWVudGl0eS1FTVBMT1lFRS1mY2FhYmE0MS0wODQ3LTU3NDAtOTFjZS02NTE4OTI1N2ExOWItYXR0ci04LWNvbW1lbnQiIGNsYXNzPSJlciBlbnRpdHlMYWJlbCI+RW1wbG95ZWUgYWN0aXZlIHN0YXR1czwvdGV4dD48L2c+PGcgdHJhbnNmb3JtPSJ0cmFuc2xhdGUoMjAsMzIwLjgxNDA1NjM5NjQ4NDQgKSIgaWQ9ImVudGl0eS1MT0NBVElPTi1lZTZjMjMzZC04ODI3LTU2MzUtODg5ZS03MGE1NjA3OGUzMmMiPjxyZWN0IGhlaWdodD0iMjAwLjc3NDIxOTUxMjkzOTQ1IiB3aWR0aD0iMjY5LjU0Njg3NSIgeT0iMCIgeD0iMCIgY2xhc3M9ImVyIGVudGl0eUJveCI+PC9yZWN0Pjx0ZXh0IHN0eWxlPSJkb21pbmFudC1iYXNlbGluZTogbWlkZGxlOyB0ZXh0LWFuY2hvcjogbWlkZGxlOyBmb250LXNpemU6IDEycHg7IiB0cmFuc2Zvcm09InRyYW5zbGF0ZSgxMzQuNzczNDM3NSwxMikiIHk9IjAiIHg9IjAiIGlkPSJ0ZXh0LWVudGl0eS1MT0NBVElPTi1lZTZjMjMzZC04ODI3LTU2MzUtODg5ZS03MGE1NjA3OGUzMmMiIGNsYXNzPSJlciBlbnRpdHlMYWJlbCI+TE9DQVRJT048L3RleHQ+PHJlY3QgaGVpZ2h0PSIyMi4wOTE3OTY4NzUiIHdpZHRoPSI0Ni4wNDY4NzUiIHk9IjI0IiB4PSIwIiBjbGFzcz0iZXIgYXR0cmlidXRlQm94T2RkIj48L3JlY3Q+PHRleHQgc3R5bGU9ImRvbWluYW50LWJhc2VsaW5lOiBtaWRkbGU7IGZvbnQtc2l6ZTogMTAuMnB4OyIgdHJhbnNmb3JtPSJ0cmFuc2xhdGUoNSwzNS4wNDU4OTg0Mzc1KSIgeT0iMCIgeD0iMCIgaWQ9InRleHQtZW50aXR5LUxPQ0FUSU9OLWVlNmMyMzNkLTg4MjctNTYzNS04ODllLTcwYTU2MDc4ZTMyYy1hdHRyLTEtdHlwZSIgY2xhc3M9ImVyIGVudGl0eUxhYmVsIj5zdHJpbmc8L3RleHQ+PHJlY3QgaGVpZ2h0PSIyMi4wOTE3OTY4NzUiIHdpZHRoPSI2Mi44NzUiIHk9IjI0IiB4PSI0Ni4wNDY4NzUiIGNsYXNzPSJlciBhdHRyaWJ1dGVCb3hPZGQiPjwvcmVjdD48dGV4dCBzdHlsZT0iZG9taW5hbnQtYmFzZWxpbmU6IG1pZGRsZTsgZm9udC1zaXplOiAxMC4ycHg7IiB0cmFuc2Zvcm09InRyYW5zbGF0ZSg1MS4wNDY4NzUsMzUuMDQ1ODk4NDM3NSkiIHk9IjAiIHg9IjAiIGlkPSJ0ZXh0LWVudGl0eS1MT0NBVElPTi1lZTZjMjMzZC04ODI3LTU2MzUtODg5ZS03MGE1NjA3OGUzMmMtYXR0ci0xLW5hbWUiIGNsYXNzPSJlciBlbnRpdHlMYWJlbCI+bG9jYXRpb25JZDwvdGV4dD48cmVjdCBoZWlnaHQ9IjIyLjA5MTc5Njg3NSIgd2lkdGg9IjIxLjU2MjUiIHk9IjI0IiB4PSIxMDguOTIxODc1IiBjbGFzcz0iZXIgYXR0cmlidXRlQm94T2RkIj48L3JlY3Q+PHRleHQgc3R5bGU9ImRvbWluYW50LWJhc2VsaW5lOiBtaWRkbGU7IGZvbnQtc2l6ZTogMTAuMnB4OyIgdHJhbnNmb3JtPSJ0cmFuc2xhdGUoMTEzLjkyMTg3NSwzNS4wNDU4OTg0Mzc1KSIgeT0iMCIgeD0iMCIgaWQ9InRleHQtZW50aXR5LUxPQ0FUSU9OLWVlNmMyMzNkLTg4MjctNTYzNS04ODllLTcwYTU2MDc4ZTMyYy1hdHRyLTEta2V5IiBjbGFzcz0iZXIgZW50aXR5TGFiZWwiPlBLPC90ZXh0PjxyZWN0IGhlaWdodD0iMjIuMDkxNzk2ODc1IiB3aWR0aD0iMTM5LjA2MjUiIHk9IjI0IiB4PSIxMzAuNDg0Mzc1IiBjbGFzcz0iZXIgYXR0cmlidXRlQm94T2RkIj48L3JlY3Q+PHRleHQgc3R5bGU9ImRvbWluYW50LWJhc2VsaW5lOiBtaWRkbGU7IGZvbnQtc2l6ZTogMTAuMnB4OyIgdHJhbnNmb3JtPSJ0cmFuc2xhdGUoMTM1LjQ4NDM3NSwzNS4wNDU4OTg0Mzc1KSIgeT0iMCIgeD0iMCIgaWQ9InRleHQtZW50aXR5LUxPQ0FUSU9OLWVlNmMyMzNkLTg4MjctNTYzNS04ODllLTcwYTU2MDc4ZTMyYy1hdHRyLTEtY29tbWVudCIgY2xhc3M9ImVyIGVudGl0eUxhYmVsIj5VbmlxdWUgbG9jYXRpb24gaWRlbnRpZmllcjwvdGV4dD48cmVjdCBoZWlnaHQ9IjIyLjA5MTc5Njg3NSIgd2lkdGg9IjQ2LjA0Njg3NSIgeT0iNDYuMDkxNzk2ODc1IiB4PSIwIiBjbGFzcz0iZXIgYXR0cmlidXRlQm94RXZlbiI+PC9yZWN0Pjx0ZXh0IHN0eWxlPSJkb21pbmFudC1iYXNlbGluZTogbWlkZGxlOyBmb250LXNpemU6IDEwLjJweDsiIHRyYW5zZm9ybT0idHJhbnNsYXRlKDUsNTcuMTM3Njk1MzEyNSkiIHk9IjAiIHg9IjAiIGlkPSJ0ZXh0LWVudGl0eS1MT0NBVElPTi1lZTZjMjMzZC04ODI3LTU2MzUtODg5ZS03MGE1NjA3OGUzMmMtYXR0ci0yLXR5cGUiIGNsYXNzPSJlciBlbnRpdHlMYWJlbCI+c3RyaW5nPC90ZXh0PjxyZWN0IGhlaWdodD0iMjIuMDkxNzk2ODc1IiB3aWR0aD0iNjIuODc1IiB5PSI0Ni4wOTE3OTY4NzUiIHg9IjQ2LjA0Njg3NSIgY2xhc3M9ImVyIGF0dHJpYnV0ZUJveEV2ZW4iPjwvcmVjdD48dGV4dCBzdHlsZT0iZG9taW5hbnQtYmFzZWxpbmU6IG1pZGRsZTsgZm9udC1zaXplOiAxMC4ycHg7IiB0cmFuc2Zvcm09InRyYW5zbGF0ZSg1MS4wNDY4NzUsNTcuMTM3Njk1MzEyNSkiIHk9IjAiIHg9IjAiIGlkPSJ0ZXh0LWVudGl0eS1MT0NBVElPTi1lZTZjMjMzZC04ODI3LTU2MzUtODg5ZS03MGE1NjA3OGUzMmMtYXR0ci0yLW5hbWUiIGNsYXNzPSJlciBlbnRpdHlMYWJlbCI+ZW1wbG95ZWVJZDwvdGV4dD48cmVjdCBoZWlnaHQ9IjIyLjA5MTc5Njg3NSIgd2lkdGg9IjIxLjU2MjUiIHk9IjQ2LjA5MTc5Njg3NSIgeD0iMTA4LjkyMTg3NSIgY2xhc3M9ImVyIGF0dHJpYnV0ZUJveEV2ZW4iPjwvcmVjdD48dGV4dCBzdHlsZT0iZG9taW5hbnQtYmFzZWxpbmU6IG1pZGRsZTsgZm9udC1zaXplOiAxMC4ycHg7IiB0cmFuc2Zvcm09InRyYW5zbGF0ZSgxMTMuOTIxODc1LDU3LjEzNzY5NTMxMjUpIiB5PSIwIiB4PSIwIiBpZD0idGV4dC1lbnRpdHktTE9DQVRJT04tZWU2YzIzM2QtODgyNy01NjM1LTg4OWUtNzBhNTYwNzhlMzJjLWF0dHItMi1rZXkiIGNsYXNzPSJlciBlbnRpdHlMYWJlbCI+Rks8L3RleHQ+PHJlY3QgaGVpZ2h0PSIyMi4wOTE3OTY4NzUiIHdpZHRoPSIxMzkuMDYyNSIgeT0iNDYuMDkxNzk2ODc1IiB4PSIxMzAuNDg0Mzc1IiBjbGFzcz0iZXIgYXR0cmlidXRlQm94RXZlbiI+PC9yZWN0Pjx0ZXh0IHN0eWxlPSJkb21pbmFudC1iYXNlbGluZTogbWlkZGxlOyBmb250LXNpemU6IDEwLjJweDsiIHRyYW5zZm9ybT0idHJhbnNsYXRlKDEzNS40ODQzNzUsNTcuMTM3Njk1MzEyNSkiIHk9IjAiIHg9IjAiIGlkPSJ0ZXh0LWVudGl0eS1MT0NBVElPTi1lZTZjMjMzZC04ODI3LTU2MzUtODg5ZS03MGE1NjA3OGUzMmMtYXR0ci0yLWNvbW1lbnQiIGNsYXNzPSJlciBlbnRpdHlMYWJlbCI+UmVmZXJlbmNlIHRvIEVtcGxveWVlPC90ZXh0PjxyZWN0IGhlaWdodD0iMjIuMDkxNzk2ODc1IiB3aWR0aD0iNDYuMDQ2ODc1IiB5PSI2OC4xODM1OTM3NSIgeD0iMCIgY2xhc3M9ImVyIGF0dHJpYnV0ZUJveE9kZCI+PC9yZWN0Pjx0ZXh0IHN0eWxlPSJkb21pbmFudC1iYXNlbGluZTogbWlkZGxlOyBmb250LXNpemU6IDEwLjJweDsiIHRyYW5zZm9ybT0idHJhbnNsYXRlKDUsNzkuMjI5NDkyMTg3NSkiIHk9IjAiIHg9IjAiIGlkPSJ0ZXh0LWVudGl0eS1MT0NBVElPTi1lZTZjMjMzZC04ODI3LTU2MzUtODg5ZS03MGE1NjA3OGUzMmMtYXR0ci0zLXR5cGUiIGNsYXNzPSJlciBlbnRpdHlMYWJlbCI+c3RyaW5nPC90ZXh0PjxyZWN0IGhlaWdodD0iMjIuMDkxNzk2ODc1IiB3aWR0aD0iNjIuODc1IiB5PSI2OC4xODM1OTM3NSIgeD0iNDYuMDQ2ODc1IiBjbGFzcz0iZXIgYXR0cmlidXRlQm94T2RkIj48L3JlY3Q+PHRleHQgc3R5bGU9ImRvbWluYW50LWJhc2VsaW5lOiBtaWRkbGU7IGZvbnQtc2l6ZTogMTAuMnB4OyIgdHJhbnNmb3JtPSJ0cmFuc2xhdGUoNTEuMDQ2ODc1LDc5LjIyOTQ5MjE4NzUpIiB5PSIwIiB4PSIwIiBpZD0idGV4dC1lbnRpdHktTE9DQVRJT04tZWU2YzIzM2QtODgyNy01NjM1LTg4OWUtNzBhNTYwNzhlMzJjLWF0dHItMy1uYW1lIiBjbGFzcz0iZXIgZW50aXR5TGFiZWwiPnN0cmVldDwvdGV4dD48cmVjdCBoZWlnaHQ9IjIyLjA5MTc5Njg3NSIgd2lkdGg9IjIxLjU2MjUiIHk9IjY4LjE4MzU5Mzc1IiB4PSIxMDguOTIxODc1IiBjbGFzcz0iZXIgYXR0cmlidXRlQm94T2RkIj48L3JlY3Q+PHRleHQgc3R5bGU9ImRvbWluYW50LWJhc2VsaW5lOiBtaWRkbGU7IGZvbnQtc2l6ZTogMTAuMnB4OyIgdHJhbnNmb3JtPSJ0cmFuc2xhdGUoMTEzLjkyMTg3NSw3OS4yMjk0OTIxODc1KSIgeT0iMCIgeD0iMCIgaWQ9InRleHQtZW50aXR5LUxPQ0FUSU9OLWVlNmMyMzNkLTg4MjctNTYzNS04ODllLTcwYTU2MDc4ZTMyYy1hdHRyLTMta2V5IiBjbGFzcz0iZXIgZW50aXR5TGFiZWwiPjwvdGV4dD48cmVjdCBoZWlnaHQ9IjIyLjA5MTc5Njg3NSIgd2lkdGg9IjEzOS4wNjI1IiB5PSI2OC4xODM1OTM3NSIgeD0iMTMwLjQ4NDM3NSIgY2xhc3M9ImVyIGF0dHJpYnV0ZUJveE9kZCI+PC9yZWN0Pjx0ZXh0IHN0eWxlPSJkb21pbmFudC1iYXNlbGluZTogbWlkZGxlOyBmb250LXNpemU6IDEwLjJweDsiIHRyYW5zZm9ybT0idHJhbnNsYXRlKDEzNS40ODQzNzUsNzkuMjI5NDkyMTg3NSkiIHk9IjAiIHg9IjAiIGlkPSJ0ZXh0LWVudGl0eS1MT0NBVElPTi1lZTZjMjMzZC04ODI3LTU2MzUtODg5ZS03MGE1NjA3OGUzMmMtYXR0ci0zLWNvbW1lbnQiIGNsYXNzPSJlciBlbnRpdHlMYWJlbCI+U3RyZWV0IGFkZHJlc3M8L3RleHQ+PHJlY3QgaGVpZ2h0PSIyMi4wOTE3OTY4NzUiIHdpZHRoPSI0Ni4wNDY4NzUiIHk9IjkwLjI3NTM5MDYyNSIgeD0iMCIgY2xhc3M9ImVyIGF0dHJpYnV0ZUJveEV2ZW4iPjwvcmVjdD48dGV4dCBzdHlsZT0iZG9taW5hbnQtYmFzZWxpbmU6IG1pZGRsZTsgZm9udC1zaXplOiAxMC4ycHg7IiB0cmFuc2Zvcm09InRyYW5zbGF0ZSg1LDEwMS4zMjEyODkwNjI1KSIgeT0iMCIgeD0iMCIgaWQ9InRleHQtZW50aXR5LUxPQ0FUSU9OLWVlNmMyMzNkLTg4MjctNTYzNS04ODllLTcwYTU2MDc4ZTMyYy1hdHRyLTQtdHlwZSIgY2xhc3M9ImVyIGVudGl0eUxhYmVsIj5zdHJpbmc8L3RleHQ+PHJlY3QgaGVpZ2h0PSIyMi4wOTE3OTY4NzUiIHdpZHRoPSI2Mi44NzUiIHk9IjkwLjI3NTM5MDYyNSIgeD0iNDYuMDQ2ODc1IiBjbGFzcz0iZXIgYXR0cmlidXRlQm94RXZlbiI+PC9yZWN0Pjx0ZXh0IHN0eWxlPSJkb21pbmFudC1iYXNlbGluZTogbWlkZGxlOyBmb250LXNpemU6IDEwLjJweDsiIHRyYW5zZm9ybT0idHJhbnNsYXRlKDUxLjA0Njg3NSwxMDEuMzIxMjg5MDYyNSkiIHk9IjAiIHg9IjAiIGlkPSJ0ZXh0LWVudGl0eS1MT0NBVElPTi1lZTZjMjMzZC04ODI3LTU2MzUtODg5ZS03MGE1NjA3OGUzMmMtYXR0ci00LW5hbWUiIGNsYXNzPSJlciBlbnRpdHlMYWJlbCI+cG9zdGFsQ29kZTwvdGV4dD48cmVjdCBoZWlnaHQ9IjIyLjA5MTc5Njg3NSIgd2lkdGg9IjIxLjU2MjUiIHk9IjkwLjI3NTM5MDYyNSIgeD0iMTA4LjkyMTg3NSIgY2xhc3M9ImVyIGF0dHJpYnV0ZUJveEV2ZW4iPjwvcmVjdD48dGV4dCBzdHlsZT0iZG9taW5hbnQtYmFzZWxpbmU6IG1pZGRsZTsgZm9udC1zaXplOiAxMC4ycHg7IiB0cmFuc2Zvcm09InRyYW5zbGF0ZSgxMTMuOTIxODc1LDEwMS4zMjEyODkwNjI1KSIgeT0iMCIgeD0iMCIgaWQ9InRleHQtZW50aXR5LUxPQ0FUSU9OLWVlNmMyMzNkLTg4MjctNTYzNS04ODllLTcwYTU2MDc4ZTMyYy1hdHRyLTQta2V5IiBjbGFzcz0iZXIgZW50aXR5TGFiZWwiPjwvdGV4dD48cmVjdCBoZWlnaHQ9IjIyLjA5MTc5Njg3NSIgd2lkdGg9IjEzOS4wNjI1IiB5PSI5MC4yNzUzOTA2MjUiIHg9IjEzMC40ODQzNzUiIGNsYXNzPSJlciBhdHRyaWJ1dGVCb3hFdmVuIj48L3JlY3Q+PHRleHQgc3R5bGU9ImRvbWluYW50LWJhc2VsaW5lOiBtaWRkbGU7IGZvbnQtc2l6ZTogMTAuMnB4OyIgdHJhbnNmb3JtPSJ0cmFuc2xhdGUoMTM1LjQ4NDM3NSwxMDEuMzIxMjg5MDYyNSkiIHk9IjAiIHg9IjAiIGlkPSJ0ZXh0LWVudGl0eS1MT0NBVElPTi1lZTZjMjMzZC04ODI3LTU2MzUtODg5ZS03MGE1NjA3OGUzMmMtYXR0ci00LWNvbW1lbnQiIGNsYXNzPSJlciBlbnRpdHlMYWJlbCI+UG9zdGFsIGNvZGU8L3RleHQ+PHJlY3QgaGVpZ2h0PSIyMi4xMzE2NDEzODc5Mzk0NTMiIHdpZHRoPSI0Ni4wNDY4NzUiIHk9IjExMi4zNjcxODc1IiB4PSIwIiBjbGFzcz0iZXIgYXR0cmlidXRlQm94T2RkIj48L3JlY3Q+PHRleHQgc3R5bGU9ImRvbWluYW50LWJhc2VsaW5lOiBtaWRkbGU7IGZvbnQtc2l6ZTogMTAuMnB4OyIgdHJhbnNmb3JtPSJ0cmFuc2xhdGUoNSwxMjMuNDMzMDA4MTkzOTY5NzMpIiB5PSIwIiB4PSIwIiBpZD0idGV4dC1lbnRpdHktTE9DQVRJT04tZWU2YzIzM2QtODgyNy01NjM1LTg4OWUtNzBhNTYwNzhlMzJjLWF0dHItNS10eXBlIiBjbGFzcz0iZXIgZW50aXR5TGFiZWwiPnN0cmluZzwvdGV4dD48cmVjdCBoZWlnaHQ9IjIyLjEzMTY0MTM4NzkzOTQ1MyIgd2lkdGg9IjYyLjg3NSIgeT0iMTEyLjM2NzE4NzUiIHg9IjQ2LjA0Njg3NSIgY2xhc3M9ImVyIGF0dHJpYnV0ZUJveE9kZCI+PC9yZWN0Pjx0ZXh0IHN0eWxlPSJkb21pbmFudC1iYXNlbGluZTogbWlkZGxlOyBmb250LXNpemU6IDEwLjJweDsiIHRyYW5zZm9ybT0idHJhbnNsYXRlKDUxLjA0Njg3NSwxMjMuNDMzMDA4MTkzOTY5NzMpIiB5PSIwIiB4PSIwIiBpZD0idGV4dC1lbnRpdHktTE9DQVRJT04tZWU2YzIzM2QtODgyNy01NjM1LTg4OWUtNzBhNTYwNzhlMzJjLWF0dHItNS1uYW1lIiBjbGFzcz0iZXIgZW50aXR5TGFiZWwiPnByb3ZpbmNlPC90ZXh0PjxyZWN0IGhlaWdodD0iMjIuMTMxNjQxMzg3OTM5NDUzIiB3aWR0aD0iMjEuNTYyNSIgeT0iMTEyLjM2NzE4NzUiIHg9IjEwOC45MjE4NzUiIGNsYXNzPSJlciBhdHRyaWJ1dGVCb3hPZGQiPjwvcmVjdD48dGV4dCBzdHlsZT0iZG9taW5hbnQtYmFzZWxpbmU6IG1pZGRsZTsgZm9udC1zaXplOiAxMC4ycHg7IiB0cmFuc2Zvcm09InRyYW5zbGF0ZSgxMTMuOTIxODc1LDEyMy40MzMwMDgxOTM5Njk3MykiIHk9IjAiIHg9IjAiIGlkPSJ0ZXh0LWVudGl0eS1MT0NBVElPTi1lZTZjMjMzZC04ODI3LTU2MzUtODg5ZS03MGE1NjA3OGUzMmMtYXR0ci01LWtleSIgY2xhc3M9ImVyIGVudGl0eUxhYmVsIj48L3RleHQ+PHJlY3QgaGVpZ2h0PSIyMi4xMzE2NDEzODc5Mzk0NTMiIHdpZHRoPSIxMzkuMDYyNSIgeT0iMTEyLjM2NzE4NzUiIHg9IjEzMC40ODQzNzUiIGNsYXNzPSJlciBhdHRyaWJ1dGVCb3hPZGQiPjwvcmVjdD48dGV4dCBzdHlsZT0iZG9taW5hbnQtYmFzZWxpbmU6IG1pZGRsZTsgZm9udC1zaXplOiAxMC4ycHg7IiB0cmFuc2Zvcm09InRyYW5zbGF0ZSgxMzUuNDg0Mzc1LDEyMy40MzMwMDgxOTM5Njk3MykiIHk9IjAiIHg9IjAiIGlkPSJ0ZXh0LWVudGl0eS1MT0NBVElPTi1lZTZjMjMzZC04ODI3LTU2MzUtODg5ZS03MGE1NjA3OGUzMmMtYXR0ci01LWNvbW1lbnQiIGNsYXNzPSJlciBlbnRpdHlMYWJlbCI+UHJvdmluY2UgY29kZSAoZS5nLiwgQUIsIEJDKTwvdGV4dD48cmVjdCBoZWlnaHQ9IjIyLjA5MTc5Njg3NSIgd2lkdGg9IjQ2LjA0Njg3NSIgeT0iMTM0LjQ5ODgyODg4NzkzOTQ1IiB4PSIwIiBjbGFzcz0iZXIgYXR0cmlidXRlQm94RXZlbiI+PC9yZWN0Pjx0ZXh0IHN0eWxlPSJkb21pbmFudC1iYXNlbGluZTogbWlkZGxlOyBmb250LXNpemU6IDEwLjJweDsiIHRyYW5zZm9ybT0idHJhbnNsYXRlKDUsMTQ1LjU0NDcyNzMyNTQzOTQ1KSIgeT0iMCIgeD0iMCIgaWQ9InRleHQtZW50aXR5LUxPQ0FUSU9OLWVlNmMyMzNkLTg4MjctNTYzNS04ODllLTcwYTU2MDc4ZTMyYy1hdHRyLTYtdHlwZSIgY2xhc3M9ImVyIGVudGl0eUxhYmVsIj5zdHJpbmc8L3RleHQ+PHJlY3QgaGVpZ2h0PSIyMi4wOTE3OTY4NzUiIHdpZHRoPSI2Mi44NzUiIHk9IjEzNC40OTg4Mjg4ODc5Mzk0NSIgeD0iNDYuMDQ2ODc1IiBjbGFzcz0iZXIgYXR0cmlidXRlQm94RXZlbiI+PC9yZWN0Pjx0ZXh0IHN0eWxlPSJkb21pbmFudC1iYXNlbGluZTogbWlkZGxlOyBmb250LXNpemU6IDEwLjJweDsiIHRyYW5zZm9ybT0idHJhbnNsYXRlKDUxLjA0Njg3NSwxNDUuNTQ0NzI3MzI1NDM5NDUpIiB5PSIwIiB4PSIwIiBpZD0idGV4dC1lbnRpdHktTE9DQVRJT04tZWU2YzIzM2QtODgyNy01NjM1LTg4OWUtNzBhNTYwNzhlMzJjLWF0dHItNi1uYW1lIiBjbGFzcz0iZXIgZW50aXR5TGFiZWwiPmNpdHk8L3RleHQ+PHJlY3QgaGVpZ2h0PSIyMi4wOTE3OTY4NzUiIHdpZHRoPSIyMS41NjI1IiB5PSIxMzQuNDk4ODI4ODg3OTM5NDUiIHg9IjEwOC45MjE4NzUiIGNsYXNzPSJlciBhdHRyaWJ1dGVCb3hFdmVuIj48L3JlY3Q+PHRleHQgc3R5bGU9ImRvbWluYW50LWJhc2VsaW5lOiBtaWRkbGU7IGZvbnQtc2l6ZTogMTAuMnB4OyIgdHJhbnNmb3JtPSJ0cmFuc2xhdGUoMTEzLjkyMTg3NSwxNDUuNTQ0NzI3MzI1NDM5NDUpIiB5PSIwIiB4PSIwIiBpZD0idGV4dC1lbnRpdHktTE9DQVRJT04tZWU2YzIzM2QtODgyNy01NjM1LTg4OWUtNzBhNTYwNzhlMzJjLWF0dHItNi1rZXkiIGNsYXNzPSJlciBlbnRpdHlMYWJlbCI+PC90ZXh0PjxyZWN0IGhlaWdodD0iMjIuMDkxNzk2ODc1IiB3aWR0aD0iMTM5LjA2MjUiIHk9IjEzNC40OTg4Mjg4ODc5Mzk0NSIgeD0iMTMwLjQ4NDM3NSIgY2xhc3M9ImVyIGF0dHJpYnV0ZUJveEV2ZW4iPjwvcmVjdD48dGV4dCBzdHlsZT0iZG9taW5hbnQtYmFzZWxpbmU6IG1pZGRsZTsgZm9udC1zaXplOiAxMC4ycHg7IiB0cmFuc2Zvcm09InRyYW5zbGF0ZSgxMzUuNDg0Mzc1LDE0NS41NDQ3MjczMjU0Mzk0NSkiIHk9IjAiIHg9IjAiIGlkPSJ0ZXh0LWVudGl0eS1MT0NBVElPTi1lZTZjMjMzZC04ODI3LTU2MzUtODg5ZS03MGE1NjA3OGUzMmMtYXR0ci02LWNvbW1lbnQiIGNsYXNzPSJlciBlbnRpdHlMYWJlbCI+Q2l0eSBuYW1lPC90ZXh0PjxyZWN0IGhlaWdodD0iMjIuMDkxNzk2ODc1IiB3aWR0aD0iNDYuMDQ2ODc1IiB5PSIxNTYuNTkwNjI1NzYyOTM5NDUiIHg9IjAiIGNsYXNzPSJlciBhdHRyaWJ1dGVCb3hPZGQiPjwvcmVjdD48dGV4dCBzdHlsZT0iZG9taW5hbnQtYmFzZWxpbmU6IG1pZGRsZTsgZm9udC1zaXplOiAxMC4ycHg7IiB0cmFuc2Zvcm09InRyYW5zbGF0ZSg1LDE2Ny42MzY1MjQyMDA0Mzk0NSkiIHk9IjAiIHg9IjAiIGlkPSJ0ZXh0LWVudGl0eS1MT0NBVElPTi1lZTZjMjMzZC04ODI3LTU2MzUtODg5ZS03MGE1NjA3OGUzMmMtYXR0ci03LXR5cGUiIGNsYXNzPSJlciBlbnRpdHlMYWJlbCI+ZGVjaW1hbDwvdGV4dD48cmVjdCBoZWlnaHQ9IjIyLjA5MTc5Njg3NSIgd2lkdGg9IjYyLjg3NSIgeT0iMTU2LjU5MDYyNTc2MjkzOTQ1IiB4PSI0Ni4wNDY4NzUiIGNsYXNzPSJlciBhdHRyaWJ1dGVCb3hPZGQiPjwvcmVjdD48dGV4dCBzdHlsZT0iZG9taW5hbnQtYmFzZWxpbmU6IG1pZGRsZTsgZm9udC1zaXplOiAxMC4ycHg7IiB0cmFuc2Zvcm09InRyYW5zbGF0ZSg1MS4wNDY4NzUsMTY3LjYzNjUyNDIwMDQzOTQ1KSIgeT0iMCIgeD0iMCIgaWQ9InRleHQtZW50aXR5LUxPQ0FUSU9OLWVlNmMyMzNkLTg4MjctNTYzNS04ODllLTcwYTU2MDc4ZTMyYy1hdHRyLTctbmFtZSIgY2xhc3M9ImVyIGVudGl0eUxhYmVsIj5sb25naXR1ZGU8L3RleHQ+PHJlY3QgaGVpZ2h0PSIyMi4wOTE3OTY4NzUiIHdpZHRoPSIyMS41NjI1IiB5PSIxNTYuNTkwNjI1NzYyOTM5NDUiIHg9IjEwOC45MjE4NzUiIGNsYXNzPSJlciBhdHRyaWJ1dGVCb3hPZGQiPjwvcmVjdD48dGV4dCBzdHlsZT0iZG9taW5hbnQtYmFzZWxpbmU6IG1pZGRsZTsgZm9udC1zaXplOiAxMC4ycHg7IiB0cmFuc2Zvcm09InRyYW5zbGF0ZSgxMTMuOTIxODc1LDE2Ny42MzY1MjQyMDA0Mzk0NSkiIHk9IjAiIHg9IjAiIGlkPSJ0ZXh0LWVudGl0eS1MT0NBVElPTi1lZTZjMjMzZC04ODI3LTU2MzUtODg5ZS03MGE1NjA3OGUzMmMtYXR0ci03LWtleSIgY2xhc3M9ImVyIGVudGl0eUxhYmVsIj48L3RleHQ+PHJlY3QgaGVpZ2h0PSIyMi4wOTE3OTY4NzUiIHdpZHRoPSIxMzkuMDYyNSIgeT0iMTU2LjU5MDYyNTc2MjkzOTQ1IiB4PSIxMzAuNDg0Mzc1IiBjbGFzcz0iZXIgYXR0cmlidXRlQm94T2RkIj48L3JlY3Q+PHRleHQgc3R5bGU9ImRvbWluYW50LWJhc2VsaW5lOiBtaWRkbGU7IGZvbnQtc2l6ZTogMTAuMnB4OyIgdHJhbnNmb3JtPSJ0cmFuc2xhdGUoMTM1LjQ4NDM3NSwxNjcuNjM2NTI0MjAwNDM5NDUpIiB5PSIwIiB4PSIwIiBpZD0idGV4dC1lbnRpdHktTE9DQVRJT04tZWU2YzIzM2QtODgyNy01NjM1LTg4OWUtNzBhNTYwNzhlMzJjLWF0dHItNy1jb21tZW50IiBjbGFzcz0iZXIgZW50aXR5TGFiZWwiPkdlb2dyYXBoaWMgbG9uZ2l0dWRlPC90ZXh0PjxyZWN0IGhlaWdodD0iMjIuMDkxNzk2ODc1IiB3aWR0aD0iNDYuMDQ2ODc1IiB5PSIxNzguNjgyNDIyNjM3OTM5NDUiIHg9IjAiIGNsYXNzPSJlciBhdHRyaWJ1dGVCb3hFdmVuIj48L3JlY3Q+PHRleHQgc3R5bGU9ImRvbWluYW50LWJhc2VsaW5lOiBtaWRkbGU7IGZvbnQtc2l6ZTogMTAuMnB4OyIgdHJhbnNmb3JtPSJ0cmFuc2xhdGUoNSwxODkuNzI4MzIxMDc1NDM5NDUpIiB5PSIwIiB4PSIwIiBpZD0idGV4dC1lbnRpdHktTE9DQVRJT04tZWU2YzIzM2QtODgyNy01NjM1LTg4OWUtNzBhNTYwNzhlMzJjLWF0dHItOC10eXBlIiBjbGFzcz0iZXIgZW50aXR5TGFiZWwiPmRlY2ltYWw8L3RleHQ+PHJlY3QgaGVpZ2h0PSIyMi4wOTE3OTY4NzUiIHdpZHRoPSI2Mi44NzUiIHk9IjE3OC42ODI0MjI2Mzc5Mzk0NSIgeD0iNDYuMDQ2ODc1IiBjbGFzcz0iZXIgYXR0cmlidXRlQm94RXZlbiI+PC9yZWN0Pjx0ZXh0IHN0eWxlPSJkb21pbmFudC1iYXNlbGluZTogbWlkZGxlOyBmb250LXNpemU6IDEwLjJweDsiIHRyYW5zZm9ybT0idHJhbnNsYXRlKDUxLjA0Njg3NSwxODkuNzI4MzIxMDc1NDM5NDUpIiB5PSIwIiB4PSIwIiBpZD0idGV4dC1lbnRpdHktTE9DQVRJT04tZWU2YzIzM2QtODgyNy01NjM1LTg4OWUtNzBhNTYwNzhlMzJjLWF0dHItOC1uYW1lIiBjbGFzcz0iZXIgZW50aXR5TGFiZWwiPmxhdGl0dWRlPC90ZXh0PjxyZWN0IGhlaWdodD0iMjIuMDkxNzk2ODc1IiB3aWR0aD0iMjEuNTYyNSIgeT0iMTc4LjY4MjQyMjYzNzkzOTQ1IiB4PSIxMDguOTIxODc1IiBjbGFzcz0iZXIgYXR0cmlidXRlQm94RXZlbiI+PC9yZWN0Pjx0ZXh0IHN0eWxlPSJkb21pbmFudC1iYXNlbGluZTogbWlkZGxlOyBmb250LXNpemU6IDEwLjJweDsiIHRyYW5zZm9ybT0idHJhbnNsYXRlKDExMy45MjE4NzUsMTg5LjcyODMyMTA3NTQzOTQ1KSIgeT0iMCIgeD0iMCIgaWQ9InRleHQtZW50aXR5LUxPQ0FUSU9OLWVlNmMyMzNkLTg4MjctNTYzNS04ODllLTcwYTU2MDc4ZTMyYy1hdHRyLTgta2V5IiBjbGFzcz0iZXIgZW50aXR5TGFiZWwiPjwvdGV4dD48cmVjdCBoZWlnaHQ9IjIyLjA5MTc5Njg3NSIgd2lkdGg9IjEzOS4wNjI1IiB5PSIxNzguNjgyNDIyNjM3OTM5NDUiIHg9IjEzMC40ODQzNzUiIGNsYXNzPSJlciBhdHRyaWJ1dGVCb3hFdmVuIj48L3JlY3Q+PHRleHQgc3R5bGU9ImRvbWluYW50LWJhc2VsaW5lOiBtaWRkbGU7IGZvbnQtc2l6ZTogMTAuMnB4OyIgdHJhbnNmb3JtPSJ0cmFuc2xhdGUoMTM1LjQ4NDM3NSwxODkuNzI4MzIxMDc1NDM5NDUpIiB5PSIwIiB4PSIwIiBpZD0idGV4dC1lbnRpdHktTE9DQVRJT04tZWU2YzIzM2QtODgyNy01NjM1LTg4OWUtNzBhNTYwNzhlMzJjLWF0dHItOC1jb21tZW50IiBjbGFzcz0iZXIgZW50aXR5TGFiZWwiPkdlb2dyYXBoaWMgbGF0aXR1ZGU8L3RleHQ+PC9nPjxnIHRyYW5zZm9ybT0idHJhbnNsYXRlKDQzOC4zMDg1OTM3NSw3NS4yNDk0MTI1MzY2MjExICkiIGlkPSJlbnRpdHktVkVORE9SLTQyZjk2NjM4LTNmYjctNWE0ZC04YWM3LTQzNzI0YmQ4Nzk5YyI+PHJlY3QgaGVpZ2h0PSI5MC4zMTUyMzUxMzc5Mzk0NSIgd2lkdGg9IjMzMC42NTYyNSIgeT0iMCIgeD0iMCIgY2xhc3M9ImVyIGVudGl0eUJveCI+PC9yZWN0Pjx0ZXh0IHN0eWxlPSJkb21pbmFudC1iYXNlbGluZTogbWlkZGxlOyB0ZXh0LWFuY2hvcjogbWlkZGxlOyBmb250LXNpemU6IDEycHg7IiB0cmFuc2Zvcm09InRyYW5zbGF0ZSgxNjUuMzI4MTI1LDEyKSIgeT0iMCIgeD0iMCIgaWQ9InRleHQtZW50aXR5LVZFTkRPUi00MmY5NjYzOC0zZmI3LTVhNGQtOGFjNy00MzcyNGJkODc5OWMiIGNsYXNzPSJlciBlbnRpdHlMYWJlbCI+VkVORE9SPC90ZXh0PjxyZWN0IGhlaWdodD0iMjIuMDkxNzk2ODc1IiB3aWR0aD0iMzUuNzUiIHk9IjI0IiB4PSIwIiBjbGFzcz0iZXIgYXR0cmlidXRlQm94T2RkIj48L3JlY3Q+PHRleHQgc3R5bGU9ImRvbWluYW50LWJhc2VsaW5lOiBtaWRkbGU7IGZvbnQtc2l6ZTogMTAuMnB4OyIgdHJhbnNmb3JtPSJ0cmFuc2xhdGUoNSwzNS4wNDU4OTg0Mzc1KSIgeT0iMCIgeD0iMCIgaWQ9InRleHQtZW50aXR5LVZFTkRPUi00MmY5NjYzOC0zZmI3LTVhNGQtOGFjNy00MzcyNGJkODc5OWMtYXR0ci0xLXR5cGUiIGNsYXNzPSJlciBlbnRpdHlMYWJlbCI+c3RyaW5nPC90ZXh0PjxyZWN0IGhlaWdodD0iMjIuMDkxNzk2ODc1IiB3aWR0aD0iNjcuMTU2MjUiIHk9IjI0IiB4PSIzNS43NSIgY2xhc3M9ImVyIGF0dHJpYnV0ZUJveE9kZCI+PC9yZWN0Pjx0ZXh0IHN0eWxlPSJkb21pbmFudC1iYXNlbGluZTogbWlkZGxlOyBmb250LXNpemU6IDEwLjJweDsiIHRyYW5zZm9ybT0idHJhbnNsYXRlKDQwLjc1LDM1LjA0NTg5ODQzNzUpIiB5PSIwIiB4PSIwIiBpZD0idGV4dC1lbnRpdHktVkVORE9SLTQyZjk2NjM4LTNmYjctNWE0ZC04YWM3LTQzNzI0YmQ4Nzk5Yy1hdHRyLTEtbmFtZSIgY2xhc3M9ImVyIGVudGl0eUxhYmVsIj52ZW5kb3JJZDwvdGV4dD48cmVjdCBoZWlnaHQ9IjIyLjA5MTc5Njg3NSIgd2lkdGg9IjIxLjU2MjUiIHk9IjI0IiB4PSIxMDIuOTA2MjUiIGNsYXNzPSJlciBhdHRyaWJ1dGVCb3hPZGQiPjwvcmVjdD48dGV4dCBzdHlsZT0iZG9taW5hbnQtYmFzZWxpbmU6IG1pZGRsZTsgZm9udC1zaXplOiAxMC4ycHg7IiB0cmFuc2Zvcm09InRyYW5zbGF0ZSgxMDcuOTA2MjUsMzUuMDQ1ODk4NDM3NSkiIHk9IjAiIHg9IjAiIGlkPSJ0ZXh0LWVudGl0eS1WRU5ET1ItNDJmOTY2MzgtM2ZiNy01YTRkLThhYzctNDM3MjRiZDg3OTljLWF0dHItMS1rZXkiIGNsYXNzPSJlciBlbnRpdHlMYWJlbCI+UEs8L3RleHQ+PHJlY3QgaGVpZ2h0PSIyMi4wOTE3OTY4NzUiIHdpZHRoPSIyMDYuMTg3NSIgeT0iMjQiIHg9IjEyNC40Njg3NSIgY2xhc3M9ImVyIGF0dHJpYnV0ZUJveE9kZCI+PC9yZWN0Pjx0ZXh0IHN0eWxlPSJkb21pbmFudC1iYXNlbGluZTogbWlkZGxlOyBmb250LXNpemU6IDEwLjJweDsiIHRyYW5zZm9ybT0idHJhbnNsYXRlKDEyOS40Njg3NSwzNS4wNDU4OTg0Mzc1KSIgeT0iMCIgeD0iMCIgaWQ9InRleHQtZW50aXR5LVZFTkRPUi00MmY5NjYzOC0zZmI3LTVhNGQtOGFjNy00MzcyNGJkODc5OWMtYXR0ci0xLWNvbW1lbnQiIGNsYXNzPSJlciBlbnRpdHlMYWJlbCI+VW5pcXVlIHZlbmRvciBpZGVudGlmaWVyPC90ZXh0PjxyZWN0IGhlaWdodD0iMjIuMTMxNjQxMzg3OTM5NDUzIiB3aWR0aD0iMzUuNzUiIHk9IjQ2LjA5MTc5Njg3NSIgeD0iMCIgY2xhc3M9ImVyIGF0dHJpYnV0ZUJveEV2ZW4iPjwvcmVjdD48dGV4dCBzdHlsZT0iZG9taW5hbnQtYmFzZWxpbmU6IG1pZGRsZTsgZm9udC1zaXplOiAxMC4ycHg7IiB0cmFuc2Zvcm09InRyYW5zbGF0ZSg1LDU3LjE1NzYxNzU2ODk2OTczKSIgeT0iMCIgeD0iMCIgaWQ9InRleHQtZW50aXR5LVZFTkRPUi00MmY5NjYzOC0zZmI3LTVhNGQtOGFjNy00MzcyNGJkODc5OWMtYXR0ci0yLXR5cGUiIGNsYXNzPSJlciBlbnRpdHlMYWJlbCI+c3RyaW5nPC90ZXh0PjxyZWN0IGhlaWdodD0iMjIuMTMxNjQxMzg3OTM5NDUzIiB3aWR0aD0iNjcuMTU2MjUiIHk9IjQ2LjA5MTc5Njg3NSIgeD0iMzUuNzUiIGNsYXNzPSJlciBhdHRyaWJ1dGVCb3hFdmVuIj48L3JlY3Q+PHRleHQgc3R5bGU9ImRvbWluYW50LWJhc2VsaW5lOiBtaWRkbGU7IGZvbnQtc2l6ZTogMTAuMnB4OyIgdHJhbnNmb3JtPSJ0cmFuc2xhdGUoNDAuNzUsNTcuMTU3NjE3NTY4OTY5NzMpIiB5PSIwIiB4PSIwIiBpZD0idGV4dC1lbnRpdHktVkVORE9SLTQyZjk2NjM4LTNmYjctNWE0ZC04YWM3LTQzNzI0YmQ4Nzk5Yy1hdHRyLTItbmFtZSIgY2xhc3M9ImVyIGVudGl0eUxhYmVsIj52ZW5kb3JOYW1lPC90ZXh0PjxyZWN0IGhlaWdodD0iMjIuMTMxNjQxMzg3OTM5NDUzIiB3aWR0aD0iMjEuNTYyNSIgeT0iNDYuMDkxNzk2ODc1IiB4PSIxMDIuOTA2MjUiIGNsYXNzPSJlciBhdHRyaWJ1dGVCb3hFdmVuIj48L3JlY3Q+PHRleHQgc3R5bGU9ImRvbWluYW50LWJhc2VsaW5lOiBtaWRkbGU7IGZvbnQtc2l6ZTogMTAuMnB4OyIgdHJhbnNmb3JtPSJ0cmFuc2xhdGUoMTA3LjkwNjI1LDU3LjE1NzYxNzU2ODk2OTczKSIgeT0iMCIgeD0iMCIgaWQ9InRleHQtZW50aXR5LVZFTkRPUi00MmY5NjYzOC0zZmI3LTVhNGQtOGFjNy00MzcyNGJkODc5OWMtYXR0ci0yLWtleSIgY2xhc3M9ImVyIGVudGl0eUxhYmVsIj48L3RleHQ+PHJlY3QgaGVpZ2h0PSIyMi4xMzE2NDEzODc5Mzk0NTMiIHdpZHRoPSIyMDYuMTg3NSIgeT0iNDYuMDkxNzk2ODc1IiB4PSIxMjQuNDY4NzUiIGNsYXNzPSJlciBhdHRyaWJ1dGVCb3hFdmVuIj48L3JlY3Q+PHRleHQgc3R5bGU9ImRvbWluYW50LWJhc2VsaW5lOiBtaWRkbGU7IGZvbnQtc2l6ZTogMTAuMnB4OyIgdHJhbnNmb3JtPSJ0cmFuc2xhdGUoMTI5LjQ2ODc1LDU3LjE1NzYxNzU2ODk2OTczKSIgeT0iMCIgeD0iMCIgaWQ9InRleHQtZW50aXR5LVZFTkRPUi00MmY5NjYzOC0zZmI3LTVhNGQtOGFjNy00MzcyNGJkODc5OWMtYXR0ci0yLWNvbW1lbnQiIGNsYXNzPSJlciBlbnRpdHlMYWJlbCI+VmVuZG9yIG5hbWUgKGUuZy4sIFZvZGFjb20sIE1UTiwgQ2VsbCBDKTwvdGV4dD48cmVjdCBoZWlnaHQ9IjIyLjA5MTc5Njg3NSIgd2lkdGg9IjM1Ljc1IiB5PSI2OC4yMjM0MzgyNjI5Mzk0NSIgeD0iMCIgY2xhc3M9ImVyIGF0dHJpYnV0ZUJveE9kZCI+PC9yZWN0Pjx0ZXh0IHN0eWxlPSJkb21pbmFudC1iYXNlbGluZTogbWlkZGxlOyBmb250LXNpemU6IDEwLjJweDsiIHRyYW5zZm9ybT0idHJhbnNsYXRlKDUsNzkuMjY5MzM2NzAwNDM5NDUpIiB5PSIwIiB4PSIwIiBpZD0idGV4dC1lbnRpdHktVkVORE9SLTQyZjk2NjM4LTNmYjctNWE0ZC04YWM3LTQzNzI0YmQ4Nzk5Yy1hdHRyLTMtdHlwZSIgY2xhc3M9ImVyIGVudGl0eUxhYmVsIj5zdHJpbmc8L3RleHQ+PHJlY3QgaGVpZ2h0PSIyMi4wOTE3OTY4NzUiIHdpZHRoPSI2Ny4xNTYyNSIgeT0iNjguMjIzNDM4MjYyOTM5NDUiIHg9IjM1Ljc1IiBjbGFzcz0iZXIgYXR0cmlidXRlQm94T2RkIj48L3JlY3Q+PHRleHQgc3R5bGU9ImRvbWluYW50LWJhc2VsaW5lOiBtaWRkbGU7IGZvbnQtc2l6ZTogMTAuMnB4OyIgdHJhbnNmb3JtPSJ0cmFuc2xhdGUoNDAuNzUsNzkuMjY5MzM2NzAwNDM5NDUpIiB5PSIwIiB4PSIwIiBpZD0idGV4dC1lbnRpdHktVkVORE9SLTQyZjk2NjM4LTNmYjctNWE0ZC04YWM3LTQzNzI0YmQ4Nzk5Yy1hdHRyLTMtbmFtZSIgY2xhc3M9ImVyIGVudGl0eUxhYmVsIj5kZXNjcmlwdGlvbjwvdGV4dD48cmVjdCBoZWlnaHQ9IjIyLjA5MTc5Njg3NSIgd2lkdGg9IjIxLjU2MjUiIHk9IjY4LjIyMzQzODI2MjkzOTQ1IiB4PSIxMDIuOTA2MjUiIGNsYXNzPSJlciBhdHRyaWJ1dGVCb3hPZGQiPjwvcmVjdD48dGV4dCBzdHlsZT0iZG9taW5hbnQtYmFzZWxpbmU6IG1pZGRsZTsgZm9udC1zaXplOiAxMC4ycHg7IiB0cmFuc2Zvcm09InRyYW5zbGF0ZSgxMDcuOTA2MjUsNzkuMjY5MzM2NzAwNDM5NDUpIiB5PSIwIiB4PSIwIiBpZD0idGV4dC1lbnRpdHktVkVORE9SLTQyZjk2NjM4LTNmYjctNWE0ZC04YWM3LTQzNzI0YmQ4Nzk5Yy1hdHRyLTMta2V5IiBjbGFzcz0iZXIgZW50aXR5TGFiZWwiPjwvdGV4dD48cmVjdCBoZWlnaHQ9IjIyLjA5MTc5Njg3NSIgd2lkdGg9IjIwNi4xODc1IiB5PSI2OC4yMjM0MzgyNjI5Mzk0NSIgeD0iMTI0LjQ2ODc1IiBjbGFzcz0iZXIgYXR0cmlidXRlQm94T2RkIj48L3JlY3Q+PHRleHQgc3R5bGU9ImRvbWluYW50LWJhc2VsaW5lOiBtaWRkbGU7IGZvbnQtc2l6ZTogMTAuMnB4OyIgdHJhbnNmb3JtPSJ0cmFuc2xhdGUoMTI5LjQ2ODc1LDc5LjI2OTMzNjcwMDQzOTQ1KSIgeT0iMCIgeD0iMCIgaWQ9InRleHQtZW50aXR5LVZFTkRPUi00MmY5NjYzOC0zZmI3LTVhNGQtOGFjNy00MzcyNGJkODc5OWMtYXR0ci0zLWNvbW1lbnQiIGNsYXNzPSJlciBlbnRpdHlMYWJlbCI+QWRkaXRpb25hbCB2ZW5kb3IgZGV0YWlsczwvdGV4dD48L2c+PGcgdHJhbnNmb3JtPSJ0cmFuc2xhdGUoODY4Ljk2NDg0Mzc1LDY0LjIyMzQzNDQ0ODI0MjE5ICkiIGlkPSJlbnRpdHktUEFDS0FHRS0xN2IyMWY3NS00YTc0LTU4NDktYWI5Yi0yZjc2NDg4NmFhM2IiPjxyZWN0IGhlaWdodD0iMTEyLjM2NzE4NzUiIHdpZHRoPSIyNjkuMDMxMjUiIHk9IjAiIHg9IjAiIGNsYXNzPSJlciBlbnRpdHlCb3giPjwvcmVjdD48dGV4dCBzdHlsZT0iZG9taW5hbnQtYmFzZWxpbmU6IG1pZGRsZTsgdGV4dC1hbmNob3I6IG1pZGRsZTsgZm9udC1zaXplOiAxMnB4OyIgdHJhbnNmb3JtPSJ0cmFuc2xhdGUoMTM0LjUxNTYyNSwxMikiIHk9IjAiIHg9IjAiIGlkPSJ0ZXh0LWVudGl0eS1QQUNLQUdFLTE3YjIxZjc1LTRhNzQtNTg0OS1hYjliLTJmNzY0ODg2YWEzYiIgY2xhc3M9ImVyIGVudGl0eUxhYmVsIj5QQUNLQUdFPC90ZXh0PjxyZWN0IGhlaWdodD0iMjIuMDkxNzk2ODc1IiB3aWR0aD0iNDYuMDQ2ODc1IiB5PSIyNCIgeD0iMCIgY2xhc3M9ImVyIGF0dHJpYnV0ZUJveE9kZCI+PC9yZWN0Pjx0ZXh0IHN0eWxlPSJkb21pbmFudC1iYXNlbGluZTogbWlkZGxlOyBmb250LXNpemU6IDEwLjJweDsiIHRyYW5zZm9ybT0idHJhbnNsYXRlKDUsMzUuMDQ1ODk4NDM3NSkiIHk9IjAiIHg9IjAiIGlkPSJ0ZXh0LWVudGl0eS1QQUNLQUdFLTE3YjIxZjc1LTRhNzQtNTg0OS1hYjliLTJmNzY0ODg2YWEzYi1hdHRyLTEtdHlwZSIgY2xhc3M9ImVyIGVudGl0eUxhYmVsIj5zdHJpbmc8L3RleHQ+PHJlY3QgaGVpZ2h0PSIyMi4wOTE3OTY4NzUiIHdpZHRoPSI3My4xODc1IiB5PSIyNCIgeD0iNDYuMDQ2ODc1IiBjbGFzcz0iZXIgYXR0cmlidXRlQm94T2RkIj48L3JlY3Q+PHRleHQgc3R5bGU9ImRvbWluYW50LWJhc2VsaW5lOiBtaWRkbGU7IGZvbnQtc2l6ZTogMTAuMnB4OyIgdHJhbnNmb3JtPSJ0cmFuc2xhdGUoNTEuMDQ2ODc1LDM1LjA0NTg5ODQzNzUpIiB5PSIwIiB4PSIwIiBpZD0idGV4dC1lbnRpdHktUEFDS0FHRS0xN2IyMWY3NS00YTc0LTU4NDktYWI5Yi0yZjc2NDg4NmFhM2ItYXR0ci0xLW5hbWUiIGNsYXNzPSJlciBlbnRpdHlMYWJlbCI+cGFja2FnZUlkPC90ZXh0PjxyZWN0IGhlaWdodD0iMjIuMDkxNzk2ODc1IiB3aWR0aD0iMjEuNTYyNSIgeT0iMjQiIHg9IjExOS4yMzQzNzUiIGNsYXNzPSJlciBhdHRyaWJ1dGVCb3hPZGQiPjwvcmVjdD48dGV4dCBzdHlsZT0iZG9taW5hbnQtYmFzZWxpbmU6IG1pZGRsZTsgZm9udC1zaXplOiAxMC4ycHg7IiB0cmFuc2Zvcm09InRyYW5zbGF0ZSgxMjQuMjM0Mzc1LDM1LjA0NTg5ODQzNzUpIiB5PSIwIiB4PSIwIiBpZD0idGV4dC1lbnRpdHktUEFDS0FHRS0xN2IyMWY3NS00YTc0LTU4NDktYWI5Yi0yZjc2NDg4NmFhM2ItYXR0ci0xLWtleSIgY2xhc3M9ImVyIGVudGl0eUxhYmVsIj5QSzwvdGV4dD48cmVjdCBoZWlnaHQ9IjIyLjA5MTc5Njg3NSIgd2lkdGg9IjEyOC4yMzQzNzUiIHk9IjI0IiB4PSIxNDAuNzk2ODc1IiBjbGFzcz0iZXIgYXR0cmlidXRlQm94T2RkIj48L3JlY3Q+PHRleHQgc3R5bGU9ImRvbWluYW50LWJhc2VsaW5lOiBtaWRkbGU7IGZvbnQtc2l6ZTogMTAuMnB4OyIgdHJhbnNmb3JtPSJ0cmFuc2xhdGUoMTQ1Ljc5Njg3NSwzNS4wNDU4OTg0Mzc1KSIgeT0iMCIgeD0iMCIgaWQ9InRleHQtZW50aXR5LVBBQ0tBR0UtMTdiMjFmNzUtNGE3NC01ODQ5LWFiOWItMmY3NjQ4ODZhYTNiLWF0dHItMS1jb21tZW50IiBjbGFzcz0iZXIgZW50aXR5TGFiZWwiPlVuaXF1ZSBwYWNrYWdlIGlkZW50aWZpZXI8L3RleHQ+PHJlY3QgaGVpZ2h0PSIyMi4wOTE3OTY4NzUiIHdpZHRoPSI0Ni4wNDY4NzUiIHk9IjQ2LjA5MTc5Njg3NSIgeD0iMCIgY2xhc3M9ImVyIGF0dHJpYnV0ZUJveEV2ZW4iPjwvcmVjdD48dGV4dCBzdHlsZT0iZG9taW5hbnQtYmFzZWxpbmU6IG1pZGRsZTsgZm9udC1zaXplOiAxMC4ycHg7IiB0cmFuc2Zvcm09InRyYW5zbGF0ZSg1LDU3LjEzNzY5NTMxMjUpIiB5PSIwIiB4PSIwIiBpZD0idGV4dC1lbnRpdHktUEFDS0FHRS0xN2IyMWY3NS00YTc0LTU4NDktYWI5Yi0yZjc2NDg4NmFhM2ItYXR0ci0yLXR5cGUiIGNsYXNzPSJlciBlbnRpdHlMYWJlbCI+c3RyaW5nPC90ZXh0PjxyZWN0IGhlaWdodD0iMjIuMDkxNzk2ODc1IiB3aWR0aD0iNzMuMTg3NSIgeT0iNDYuMDkxNzk2ODc1IiB4PSI0Ni4wNDY4NzUiIGNsYXNzPSJlciBhdHRyaWJ1dGVCb3hFdmVuIj48L3JlY3Q+PHRleHQgc3R5bGU9ImRvbWluYW50LWJhc2VsaW5lOiBtaWRkbGU7IGZvbnQtc2l6ZTogMTAuMnB4OyIgdHJhbnNmb3JtPSJ0cmFuc2xhdGUoNTEuMDQ2ODc1LDU3LjEzNzY5NTMxMjUpIiB5PSIwIiB4PSIwIiBpZD0idGV4dC1lbnRpdHktUEFDS0FHRS0xN2IyMWY3NS00YTc0LTU4NDktYWI5Yi0yZjc2NDg4NmFhM2ItYXR0ci0yLW5hbWUiIGNsYXNzPSJlciBlbnRpdHlMYWJlbCI+cGFja2FnZU5hbWU8L3RleHQ+PHJlY3QgaGVpZ2h0PSIyMi4wOTE3OTY4NzUiIHdpZHRoPSIyMS41NjI1IiB5PSI0Ni4wOTE3OTY4NzUiIHg9IjExOS4yMzQzNzUiIGNsYXNzPSJlciBhdHRyaWJ1dGVCb3hFdmVuIj48L3JlY3Q+PHRleHQgc3R5bGU9ImRvbWluYW50LWJhc2VsaW5lOiBtaWRkbGU7IGZvbnQtc2l6ZTogMTAuMnB4OyIgdHJhbnNmb3JtPSJ0cmFuc2xhdGUoMTI0LjIzNDM3NSw1Ny4xMzc2OTUzMTI1KSIgeT0iMCIgeD0iMCIgaWQ9InRleHQtZW50aXR5LVBBQ0tBR0UtMTdiMjFmNzUtNGE3NC01ODQ5LWFiOWItMmY3NjQ4ODZhYTNiLWF0dHItMi1rZXkiIGNsYXNzPSJlciBlbnRpdHlMYWJlbCI+PC90ZXh0PjxyZWN0IGhlaWdodD0iMjIuMDkxNzk2ODc1IiB3aWR0aD0iMTI4LjIzNDM3NSIgeT0iNDYuMDkxNzk2ODc1IiB4PSIxNDAuNzk2ODc1IiBjbGFzcz0iZXIgYXR0cmlidXRlQm94RXZlbiI+PC9yZWN0Pjx0ZXh0IHN0eWxlPSJkb21pbmFudC1iYXNlbGluZTogbWlkZGxlOyBmb250LXNpemU6IDEwLjJweDsiIHRyYW5zZm9ybT0idHJhbnNsYXRlKDE0NS43OTY4NzUsNTcuMTM3Njk1MzEyNSkiIHk9IjAiIHg9IjAiIGlkPSJ0ZXh0LWVudGl0eS1QQUNLQUdFLTE3YjIxZjc1LTRhNzQtNTg0OS1hYjliLTJmNzY0ODg2YWEzYi1hdHRyLTItY29tbWVudCIgY2xhc3M9ImVyIGVudGl0eUxhYmVsIj5QYWNrYWdlIG5hbWUvY29kZTwvdGV4dD48cmVjdCBoZWlnaHQ9IjIyLjA5MTc5Njg3NSIgd2lkdGg9IjQ2LjA0Njg3NSIgeT0iNjguMTgzNTkzNzUiIHg9IjAiIGNsYXNzPSJlciBhdHRyaWJ1dGVCb3hPZGQiPjwvcmVjdD48dGV4dCBzdHlsZT0iZG9taW5hbnQtYmFzZWxpbmU6IG1pZGRsZTsgZm9udC1zaXplOiAxMC4ycHg7IiB0cmFuc2Zvcm09InRyYW5zbGF0ZSg1LDc5LjIyOTQ5MjE4NzUpIiB5PSIwIiB4PSIwIiBpZD0idGV4dC1lbnRpdHktUEFDS0FHRS0xN2IyMWY3NS00YTc0LTU4NDktYWI5Yi0yZjc2NDg4NmFhM2ItYXR0ci0zLXR5cGUiIGNsYXNzPSJlciBlbnRpdHlMYWJlbCI+ZGVjaW1hbDwvdGV4dD48cmVjdCBoZWlnaHQ9IjIyLjA5MTc5Njg3NSIgd2lkdGg9IjczLjE4NzUiIHk9IjY4LjE4MzU5Mzc1IiB4PSI0Ni4wNDY4NzUiIGNsYXNzPSJlciBhdHRyaWJ1dGVCb3hPZGQiPjwvcmVjdD48dGV4dCBzdHlsZT0iZG9taW5hbnQtYmFzZWxpbmU6IG1pZGRsZTsgZm9udC1zaXplOiAxMC4ycHg7IiB0cmFuc2Zvcm09InRyYW5zbGF0ZSg1MS4wNDY4NzUsNzkuMjI5NDkyMTg3NSkiIHk9IjAiIHg9IjAiIGlkPSJ0ZXh0LWVudGl0eS1QQUNLQUdFLTE3YjIxZjc1LTRhNzQtNTg0OS1hYjliLTJmNzY0ODg2YWEzYi1hdHRyLTMtbmFtZSIgY2xhc3M9ImVyIGVudGl0eUxhYmVsIj5wYWNrYWdlQ29zdDwvdGV4dD48cmVjdCBoZWlnaHQ9IjIyLjA5MTc5Njg3NSIgd2lkdGg9IjIxLjU2MjUiIHk9IjY4LjE4MzU5Mzc1IiB4PSIxMTkuMjM0Mzc1IiBjbGFzcz0iZXIgYXR0cmlidXRlQm94T2RkIj48L3JlY3Q+PHRleHQgc3R5bGU9ImRvbWluYW50LWJhc2VsaW5lOiBtaWRkbGU7IGZvbnQtc2l6ZTogMTAuMnB4OyIgdHJhbnNmb3JtPSJ0cmFuc2xhdGUoMTI0LjIzNDM3NSw3OS4yMjk0OTIxODc1KSIgeT0iMCIgeD0iMCIgaWQ9InRleHQtZW50aXR5LVBBQ0tBR0UtMTdiMjFmNzUtNGE3NC01ODQ5LWFiOWItMmY3NjQ4ODZhYTNiLWF0dHItMy1rZXkiIGNsYXNzPSJlciBlbnRpdHlMYWJlbCI+PC90ZXh0PjxyZWN0IGhlaWdodD0iMjIuMDkxNzk2ODc1IiB3aWR0aD0iMTI4LjIzNDM3NSIgeT0iNjguMTgzNTkzNzUiIHg9IjE0MC43OTY4NzUiIGNsYXNzPSJlciBhdHRyaWJ1dGVCb3hPZGQiPjwvcmVjdD48dGV4dCBzdHlsZT0iZG9taW5hbnQtYmFzZWxpbmU6IG1pZGRsZTsgZm9udC1zaXplOiAxMC4ycHg7IiB0cmFuc2Zvcm09InRyYW5zbGF0ZSgxNDUuNzk2ODc1LDc5LjIyOTQ5MjE4NzUpIiB5PSIwIiB4PSIwIiBpZD0idGV4dC1lbnRpdHktUEFDS0FHRS0xN2IyMWY3NS00YTc0LTU4NDktYWI5Yi0yZjc2NDg4NmFhM2ItYXR0ci0zLWNvbW1lbnQiIGNsYXNzPSJlciBlbnRpdHlMYWJlbCI+Q29zdCBvZiB0aGUgcGFja2FnZTwvdGV4dD48cmVjdCBoZWlnaHQ9IjIyLjA5MTc5Njg3NSIgd2lkdGg9IjQ2LjA0Njg3NSIgeT0iOTAuMjc1MzkwNjI1IiB4PSIwIiBjbGFzcz0iZXIgYXR0cmlidXRlQm94RXZlbiI+PC9yZWN0Pjx0ZXh0IHN0eWxlPSJkb21pbmFudC1iYXNlbGluZTogbWlkZGxlOyBmb250LXNpemU6IDEwLjJweDsiIHRyYW5zZm9ybT0idHJhbnNsYXRlKDUsMTAxLjMyMTI4OTA2MjUpIiB5PSIwIiB4PSIwIiBpZD0idGV4dC1lbnRpdHktUEFDS0FHRS0xN2IyMWY3NS00YTc0LTU4NDktYWI5Yi0yZjc2NDg4NmFhM2ItYXR0ci00LXR5cGUiIGNsYXNzPSJlciBlbnRpdHlMYWJlbCI+c3RyaW5nPC90ZXh0PjxyZWN0IGhlaWdodD0iMjIuMDkxNzk2ODc1IiB3aWR0aD0iNzMuMTg3NSIgeT0iOTAuMjc1MzkwNjI1IiB4PSI0Ni4wNDY4NzUiIGNsYXNzPSJlciBhdHRyaWJ1dGVCb3hFdmVuIj48L3JlY3Q+PHRleHQgc3R5bGU9ImRvbWluYW50LWJhc2VsaW5lOiBtaWRkbGU7IGZvbnQtc2l6ZTogMTAuMnB4OyIgdHJhbnNmb3JtPSJ0cmFuc2xhdGUoNTEuMDQ2ODc1LDEwMS4zMjEyODkwNjI1KSIgeT0iMCIgeD0iMCIgaWQ9InRleHQtZW50aXR5LVBBQ0tBR0UtMTdiMjFmNzUtNGE3NC01ODQ5LWFiOWItMmY3NjQ4ODZhYTNiLWF0dHItNC1uYW1lIiBjbGFzcz0iZXIgZW50aXR5TGFiZWwiPmRlc2NyaXB0aW9uPC90ZXh0PjxyZWN0IGhlaWdodD0iMjIuMDkxNzk2ODc1IiB3aWR0aD0iMjEuNTYyNSIgeT0iOTAuMjc1MzkwNjI1IiB4PSIxMTkuMjM0Mzc1IiBjbGFzcz0iZXIgYXR0cmlidXRlQm94RXZlbiI+PC9yZWN0Pjx0ZXh0IHN0eWxlPSJkb21pbmFudC1iYXNlbGluZTogbWlkZGxlOyBmb250LXNpemU6IDEwLjJweDsiIHRyYW5zZm9ybT0idHJhbnNsYXRlKDEyNC4yMzQzNzUsMTAxLjMyMTI4OTA2MjUpIiB5PSIwIiB4PSIwIiBpZD0idGV4dC1lbnRpdHktUEFDS0FHRS0xN2IyMWY3NS00YTc0LTU4NDktYWI5Yi0yZjc2NDg4NmFhM2ItYXR0ci00LWtleSIgY2xhc3M9ImVyIGVudGl0eUxhYmVsIj48L3RleHQ+PHJlY3QgaGVpZ2h0PSIyMi4wOTE3OTY4NzUiIHdpZHRoPSIxMjguMjM0Mzc1IiB5PSI5MC4yNzUzOTA2MjUiIHg9IjE0MC43OTY4NzUiIGNsYXNzPSJlciBhdHRyaWJ1dGVCb3hFdmVuIj48L3JlY3Q+PHRleHQgc3R5bGU9ImRvbWluYW50LWJhc2VsaW5lOiBtaWRkbGU7IGZvbnQtc2l6ZTogMTAuMnB4OyIgdHJhbnNmb3JtPSJ0cmFuc2xhdGUoMTQ1Ljc5Njg3NSwxMDEuMzIxMjg5MDYyNSkiIHk9IjAiIHg9IjAiIGlkPSJ0ZXh0LWVudGl0eS1QQUNLQUdFLTE3YjIxZjc1LTRhNzQtNTg0OS1hYjliLTJmNzY0ODg2YWEzYi1hdHRyLTQtY29tbWVudCIgY2xhc3M9ImVyIGVudGl0eUxhYmVsIj5QYWNrYWdlIGRlc2NyaXB0aW9uPC90ZXh0PjwvZz48ZyB0cmFuc2Zvcm09InRyYW5zbGF0ZSg0MzEuNjgzNTkzNzUsMzMxLjk3MTY3MjA1ODEwNTQ3ICkiIGlkPSJlbnRpdHktU1VCU0NSSVBUSU9OLTk0ZjNkOTM3LWY4ZWItNTU5Ni05ODI0LWYxZjhiYTliZWQ2NCI+PHJlY3QgaGVpZ2h0PSIxNzguNDU4OTg0Mzc1IiB3aWR0aD0iMzQzLjkwNjI1IiB5PSIwIiB4PSIwIiBjbGFzcz0iZXIgZW50aXR5Qm94Ij48L3JlY3Q+PHRleHQgc3R5bGU9ImRvbWluYW50LWJhc2VsaW5lOiBtaWRkbGU7IHRleHQtYW5jaG9yOiBtaWRkbGU7IGZvbnQtc2l6ZTogMTJweDsiIHRyYW5zZm9ybT0idHJhbnNsYXRlKDE3MS45NTMxMjUsMTIpIiB5PSIwIiB4PSIwIiBpZD0idGV4dC1lbnRpdHktU1VCU0NSSVBUSU9OLTk0ZjNkOTM3LWY4ZWItNTU5Ni05ODI0LWYxZjhiYTliZWQ2NCIgY2xhc3M9ImVyIGVudGl0eUxhYmVsIj5TVUJTQ1JJUFRJT048L3RleHQ+PHJlY3QgaGVpZ2h0PSIyMi4wOTE3OTY4NzUiIHdpZHRoPSI0Ni4xNDA2MjUiIHk9IjI0IiB4PSIwIiBjbGFzcz0iZXIgYXR0cmlidXRlQm94T2RkIj48L3JlY3Q+PHRleHQgc3R5bGU9ImRvbWluYW50LWJhc2VsaW5lOiBtaWRkbGU7IGZvbnQtc2l6ZTogMTAuMnB4OyIgdHJhbnNmb3JtPSJ0cmFuc2xhdGUoNSwzNS4wNDU4OTg0Mzc1KSIgeT0iMCIgeD0iMCIgaWQ9InRleHQtZW50aXR5LVNVQlNDUklQVElPTi05NGYzZDkzNy1mOGViLTU1OTYtOTgyNC1mMWY4YmE5YmVkNjQtYXR0ci0xLXR5cGUiIGNsYXNzPSJlciBlbnRpdHlMYWJlbCI+c3RyaW5nPC90ZXh0PjxyZWN0IGhlaWdodD0iMjIuMDkxNzk2ODc1IiB3aWR0aD0iNzMuNjQwNjI1IiB5PSIyNCIgeD0iNDYuMTQwNjI1IiBjbGFzcz0iZXIgYXR0cmlidXRlQm94T2RkIj48L3JlY3Q+PHRleHQgc3R5bGU9ImRvbWluYW50LWJhc2VsaW5lOiBtaWRkbGU7IGZvbnQtc2l6ZTogMTAuMnB4OyIgdHJhbnNmb3JtPSJ0cmFuc2xhdGUoNTEuMTQwNjI1LDM1LjA0NTg5ODQzNzUpIiB5PSIwIiB4PSIwIiBpZD0idGV4dC1lbnRpdHktU1VCU0NSSVBUSU9OLTk0ZjNkOTM3LWY4ZWItNTU5Ni05ODI0LWYxZjhiYTliZWQ2NC1hdHRyLTEtbmFtZSIgY2xhc3M9ImVyIGVudGl0eUxhYmVsIj5waG9uZU51bWJlcjwvdGV4dD48cmVjdCBoZWlnaHQ9IjIyLjA5MTc5Njg3NSIgd2lkdGg9IjIxLjU2MjUiIHk9IjI0IiB4PSIxMTkuNzgxMjUiIGNsYXNzPSJlciBhdHRyaWJ1dGVCb3hPZGQiPjwvcmVjdD48dGV4dCBzdHlsZT0iZG9taW5hbnQtYmFzZWxpbmU6IG1pZGRsZTsgZm9udC1zaXplOiAxMC4ycHg7IiB0cmFuc2Zvcm09InRyYW5zbGF0ZSgxMjQuNzgxMjUsMzUuMDQ1ODk4NDM3NSkiIHk9IjAiIHg9IjAiIGlkPSJ0ZXh0LWVudGl0eS1TVUJTQ1JJUFRJT04tOTRmM2Q5MzctZjhlYi01NTk2LTk4MjQtZjFmOGJhOWJlZDY0LWF0dHItMS1rZXkiIGNsYXNzPSJlciBlbnRpdHlMYWJlbCI+UEs8L3RleHQ+PHJlY3QgaGVpZ2h0PSIyMi4wOTE3OTY4NzUiIHdpZHRoPSIyMDIuNTYyNSIgeT0iMjQiIHg9IjE0MS4zNDM3NSIgY2xhc3M9ImVyIGF0dHJpYnV0ZUJveE9kZCI+PC9yZWN0Pjx0ZXh0IHN0eWxlPSJkb21pbmFudC1iYXNlbGluZTogbWlkZGxlOyBmb250LXNpemU6IDEwLjJweDsiIHRyYW5zZm9ybT0idHJhbnNsYXRlKDE0Ni4zNDM3NSwzNS4wNDU4OTg0Mzc1KSIgeT0iMCIgeD0iMCIgaWQ9InRleHQtZW50aXR5LVNVQlNDUklQVElPTi05NGYzZDkzNy1mOGViLTU1OTYtOTgyNC1mMWY4YmE5YmVkNjQtYXR0ci0xLWNvbW1lbnQiIGNsYXNzPSJlciBlbnRpdHlMYWJlbCI+TW9iaWxlIHBob25lIG51bWJlciB1c2VkIGFzIHByaW1hcnkga2V5PC90ZXh0PjxyZWN0IGhlaWdodD0iMjIuMDkxNzk2ODc1IiB3aWR0aD0iNDYuMTQwNjI1IiB5PSI0Ni4wOTE3OTY4NzUiIHg9IjAiIGNsYXNzPSJlciBhdHRyaWJ1dGVCb3hFdmVuIj48L3JlY3Q+PHRleHQgc3R5bGU9ImRvbWluYW50LWJhc2VsaW5lOiBtaWRkbGU7IGZvbnQtc2l6ZTogMTAuMnB4OyIgdHJhbnNmb3JtPSJ0cmFuc2xhdGUoNSw1Ny4xMzc2OTUzMTI1KSIgeT0iMCIgeD0iMCIgaWQ9InRleHQtZW50aXR5LVNVQlNDUklQVElPTi05NGYzZDkzNy1mOGViLTU1OTYtOTgyNC1mMWY4YmE5YmVkNjQtYXR0ci0yLXR5cGUiIGNsYXNzPSJlciBlbnRpdHlMYWJlbCI+c3RyaW5nPC90ZXh0PjxyZWN0IGhlaWdodD0iMjIuMDkxNzk2ODc1IiB3aWR0aD0iNzMuNjQwNjI1IiB5PSI0Ni4wOTE3OTY4NzUiIHg9IjQ2LjE0MDYyNSIgY2xhc3M9ImVyIGF0dHJpYnV0ZUJveEV2ZW4iPjwvcmVjdD48dGV4dCBzdHlsZT0iZG9taW5hbnQtYmFzZWxpbmU6IG1pZGRsZTsgZm9udC1zaXplOiAxMC4ycHg7IiB0cmFuc2Zvcm09InRyYW5zbGF0ZSg1MS4xNDA2MjUsNTcuMTM3Njk1MzEyNSkiIHk9IjAiIHg9IjAiIGlkPSJ0ZXh0LWVudGl0eS1TVUJTQ1JJUFRJT04tOTRmM2Q5MzctZjhlYi01NTk2LTk4MjQtZjFmOGJhOWJlZDY0LWF0dHItMi1uYW1lIiBjbGFzcz0iZXIgZW50aXR5TGFiZWwiPmVtcGxveWVlSWQ8L3RleHQ+PHJlY3QgaGVpZ2h0PSIyMi4wOTE3OTY4NzUiIHdpZHRoPSIyMS41NjI1IiB5PSI0Ni4wOTE3OTY4NzUiIHg9IjExOS43ODEyNSIgY2xhc3M9ImVyIGF0dHJpYnV0ZUJveEV2ZW4iPjwvcmVjdD48dGV4dCBzdHlsZT0iZG9taW5hbnQtYmFzZWxpbmU6IG1pZGRsZTsgZm9udC1zaXplOiAxMC4ycHg7IiB0cmFuc2Zvcm09InRyYW5zbGF0ZSgxMjQuNzgxMjUsNTcuMTM3Njk1MzEyNSkiIHk9IjAiIHg9IjAiIGlkPSJ0ZXh0LWVudGl0eS1TVUJTQ1JJUFRJT04tOTRmM2Q5MzctZjhlYi01NTk2LTk4MjQtZjFmOGJhOWJlZDY0LWF0dHItMi1rZXkiIGNsYXNzPSJlciBlbnRpdHlMYWJlbCI+Rks8L3RleHQ+PHJlY3QgaGVpZ2h0PSIyMi4wOTE3OTY4NzUiIHdpZHRoPSIyMDIuNTYyNSIgeT0iNDYuMDkxNzk2ODc1IiB4PSIxNDEuMzQzNzUiIGNsYXNzPSJlciBhdHRyaWJ1dGVCb3hFdmVuIj48L3JlY3Q+PHRleHQgc3R5bGU9ImRvbWluYW50LWJhc2VsaW5lOiBtaWRkbGU7IGZvbnQtc2l6ZTogMTAuMnB4OyIgdHJhbnNmb3JtPSJ0cmFuc2xhdGUoMTQ2LjM0Mzc1LDU3LjEzNzY5NTMxMjUpIiB5PSIwIiB4PSIwIiBpZD0idGV4dC1lbnRpdHktU1VCU0NSSVBUSU9OLTk0ZjNkOTM3LWY4ZWItNTU5Ni05ODI0LWYxZjhiYTliZWQ2NC1hdHRyLTItY29tbWVudCIgY2xhc3M9ImVyIGVudGl0eUxhYmVsIj5SZWZlcmVuY2UgdG8gRW1wbG95ZWU8L3RleHQ+PHJlY3QgaGVpZ2h0PSIyMi4wOTE3OTY4NzUiIHdpZHRoPSI0Ni4xNDA2MjUiIHk9IjY4LjE4MzU5Mzc1IiB4PSIwIiBjbGFzcz0iZXIgYXR0cmlidXRlQm94T2RkIj48L3JlY3Q+PHRleHQgc3R5bGU9ImRvbWluYW50LWJhc2VsaW5lOiBtaWRkbGU7IGZvbnQtc2l6ZTogMTAuMnB4OyIgdHJhbnNmb3JtPSJ0cmFuc2xhdGUoNSw3OS4yMjk0OTIxODc1KSIgeT0iMCIgeD0iMCIgaWQ9InRleHQtZW50aXR5LVNVQlNDUklQVElPTi05NGYzZDkzNy1mOGViLTU1OTYtOTgyNC1mMWY4YmE5YmVkNjQtYXR0ci0zLXR5cGUiIGNsYXNzPSJlciBlbnRpdHlMYWJlbCI+c3RyaW5nPC90ZXh0PjxyZWN0IGhlaWdodD0iMjIuMDkxNzk2ODc1IiB3aWR0aD0iNzMuNjQwNjI1IiB5PSI2OC4xODM1OTM3NSIgeD0iNDYuMTQwNjI1IiBjbGFzcz0iZXIgYXR0cmlidXRlQm94T2RkIj48L3JlY3Q+PHRleHQgc3R5bGU9ImRvbWluYW50LWJhc2VsaW5lOiBtaWRkbGU7IGZvbnQtc2l6ZTogMTAuMnB4OyIgdHJhbnNmb3JtPSJ0cmFuc2xhdGUoNTEuMTQwNjI1LDc5LjIyOTQ5MjE4NzUpIiB5PSIwIiB4PSIwIiBpZD0idGV4dC1lbnRpdHktU1VCU0NSSVBUSU9OLTk0ZjNkOTM3LWY4ZWItNTU5Ni05ODI0LWYxZjhiYTliZWQ2NC1hdHRyLTMtbmFtZSIgY2xhc3M9ImVyIGVudGl0eUxhYmVsIj52ZW5kb3JJZDwvdGV4dD48cmVjdCBoZWlnaHQ9IjIyLjA5MTc5Njg3NSIgd2lkdGg9IjIxLjU2MjUiIHk9IjY4LjE4MzU5Mzc1IiB4PSIxMTkuNzgxMjUiIGNsYXNzPSJlciBhdHRyaWJ1dGVCb3hPZGQiPjwvcmVjdD48dGV4dCBzdHlsZT0iZG9taW5hbnQtYmFzZWxpbmU6IG1pZGRsZTsgZm9udC1zaXplOiAxMC4ycHg7IiB0cmFuc2Zvcm09InRyYW5zbGF0ZSgxMjQuNzgxMjUsNzkuMjI5NDkyMTg3NSkiIHk9IjAiIHg9IjAiIGlkPSJ0ZXh0LWVudGl0eS1TVUJTQ1JJUFRJT04tOTRmM2Q5MzctZjhlYi01NTk2LTk4MjQtZjFmOGJhOWJlZDY0LWF0dHItMy1rZXkiIGNsYXNzPSJlciBlbnRpdHlMYWJlbCI+Rks8L3RleHQ+PHJlY3QgaGVpZ2h0PSIyMi4wOTE3OTY4NzUiIHdpZHRoPSIyMDIuNTYyNSIgeT0iNjguMTgzNTkzNzUiIHg9IjE0MS4zNDM3NSIgY2xhc3M9ImVyIGF0dHJpYnV0ZUJveE9kZCI+PC9yZWN0Pjx0ZXh0IHN0eWxlPSJkb21pbmFudC1iYXNlbGluZTogbWlkZGxlOyBmb250LXNpemU6IDEwLjJweDsiIHRyYW5zZm9ybT0idHJhbnNsYXRlKDE0Ni4zNDM3NSw3OS4yMjk0OTIxODc1KSIgeT0iMCIgeD0iMCIgaWQ9InRleHQtZW50aXR5LVNVQlNDUklQVElPTi05NGYzZDkzNy1mOGViLTU1OTYtOTgyNC1mMWY4YmE5YmVkNjQtYXR0ci0zLWNvbW1lbnQiIGNsYXNzPSJlciBlbnRpdHlMYWJlbCI+UmVmZXJlbmNlIHRvIFZlbmRvcjwvdGV4dD48cmVjdCBoZWlnaHQ9IjIyLjA5MTc5Njg3NSIgd2lkdGg9IjQ2LjE0MDYyNSIgeT0iOTAuMjc1MzkwNjI1IiB4PSIwIiBjbGFzcz0iZXIgYXR0cmlidXRlQm94RXZlbiI+PC9yZWN0Pjx0ZXh0IHN0eWxlPSJkb21pbmFudC1iYXNlbGluZTogbWlkZGxlOyBmb250LXNpemU6IDEwLjJweDsiIHRyYW5zZm9ybT0idHJhbnNsYXRlKDUsMTAxLjMyMTI4OTA2MjUpIiB5PSIwIiB4PSIwIiBpZD0idGV4dC1lbnRpdHktU1VCU0NSSVBUSU9OLTk0ZjNkOTM3LWY4ZWItNTU5Ni05ODI0LWYxZjhiYTliZWQ2NC1hdHRyLTQtdHlwZSIgY2xhc3M9ImVyIGVudGl0eUxhYmVsIj5zdHJpbmc8L3RleHQ+PHJlY3QgaGVpZ2h0PSIyMi4wOTE3OTY4NzUiIHdpZHRoPSI3My42NDA2MjUiIHk9IjkwLjI3NTM5MDYyNSIgeD0iNDYuMTQwNjI1IiBjbGFzcz0iZXIgYXR0cmlidXRlQm94RXZlbiI+PC9yZWN0Pjx0ZXh0IHN0eWxlPSJkb21pbmFudC1iYXNlbGluZTogbWlkZGxlOyBmb250LXNpemU6IDEwLjJweDsiIHRyYW5zZm9ybT0idHJhbnNsYXRlKDUxLjE0MDYyNSwxMDEuMzIxMjg5MDYyNSkiIHk9IjAiIHg9IjAiIGlkPSJ0ZXh0LWVudGl0eS1TVUJTQ1JJUFRJT04tOTRmM2Q5MzctZjhlYi01NTk2LTk4MjQtZjFmOGJhOWJlZDY0LWF0dHItNC1uYW1lIiBjbGFzcz0iZXIgZW50aXR5TGFiZWwiPnBhY2thZ2VJZDwvdGV4dD48cmVjdCBoZWlnaHQ9IjIyLjA5MTc5Njg3NSIgd2lkdGg9IjIxLjU2MjUiIHk9IjkwLjI3NTM5MDYyNSIgeD0iMTE5Ljc4MTI1IiBjbGFzcz0iZXIgYXR0cmlidXRlQm94RXZlbiI+PC9yZWN0Pjx0ZXh0IHN0eWxlPSJkb21pbmFudC1iYXNlbGluZTogbWlkZGxlOyBmb250LXNpemU6IDEwLjJweDsiIHRyYW5zZm9ybT0idHJhbnNsYXRlKDEyNC43ODEyNSwxMDEuMzIxMjg5MDYyNSkiIHk9IjAiIHg9IjAiIGlkPSJ0ZXh0LWVudGl0eS1TVUJTQ1JJUFRJT04tOTRmM2Q5MzctZjhlYi01NTk2LTk4MjQtZjFmOGJhOWJlZDY0LWF0dHItNC1rZXkiIGNsYXNzPSJlciBlbnRpdHlMYWJlbCI+Rks8L3RleHQ+PHJlY3QgaGVpZ2h0PSIyMi4wOTE3OTY4NzUiIHdpZHRoPSIyMDIuNTYyNSIgeT0iOTAuMjc1MzkwNjI1IiB4PSIxNDEuMzQzNzUiIGNsYXNzPSJlciBhdHRyaWJ1dGVCb3hFdmVuIj48L3JlY3Q+PHRleHQgc3R5bGU9ImRvbWluYW50LWJhc2VsaW5lOiBtaWRkbGU7IGZvbnQtc2l6ZTogMTAuMnB4OyIgdHJhbnNmb3JtPSJ0cmFuc2xhdGUoMTQ2LjM0Mzc1LDEwMS4zMjEyODkwNjI1KSIgeT0iMCIgeD0iMCIgaWQ9InRleHQtZW50aXR5LVNVQlNDUklQVElPTi05NGYzZDkzNy1mOGViLTU1OTYtOTgyNC1mMWY4YmE5YmVkNjQtYXR0ci00LWNvbW1lbnQiIGNsYXNzPSJlciBlbnRpdHlMYWJlbCI+UmVmZXJlbmNlIHRvIFBhY2thZ2U8L3RleHQ+PHJlY3QgaGVpZ2h0PSIyMiIgd2lkdGg9IjQ2LjE0MDYyNSIgeT0iMTEyLjM2NzE4NzUiIHg9IjAiIGNsYXNzPSJlciBhdHRyaWJ1dGVCb3hPZGQiPjwvcmVjdD48dGV4dCBzdHlsZT0iZG9taW5hbnQtYmFzZWxpbmU6IG1pZGRsZTsgZm9udC1zaXplOiAxMC4ycHg7IiB0cmFuc2Zvcm09InRyYW5zbGF0ZSg1LDEyMy4zNjcxODc1KSIgeT0iMCIgeD0iMCIgaWQ9InRleHQtZW50aXR5LVNVQlNDUklQVElPTi05NGYzZDkzNy1mOGViLTU1OTYtOTgyNC1mMWY4YmE5YmVkNjQtYXR0ci01LXR5cGUiIGNsYXNzPSJlciBlbnRpdHlMYWJlbCI+ZGF0ZTwvdGV4dD48cmVjdCBoZWlnaHQ9IjIyIiB3aWR0aD0iNzMuNjQwNjI1IiB5PSIxMTIuMzY3MTg3NSIgeD0iNDYuMTQwNjI1IiBjbGFzcz0iZXIgYXR0cmlidXRlQm94T2RkIj48L3JlY3Q+PHRleHQgc3R5bGU9ImRvbWluYW50LWJhc2VsaW5lOiBtaWRkbGU7IGZvbnQtc2l6ZTogMTAuMnB4OyIgdHJhbnNmb3JtPSJ0cmFuc2xhdGUoNTEuMTQwNjI1LDEyMy4zNjcxODc1KSIgeT0iMCIgeD0iMCIgaWQ9InRleHQtZW50aXR5LVNVQlNDUklQVElPTi05NGYzZDkzNy1mOGViLTU1OTYtOTgyNC1mMWY4YmE5YmVkNjQtYXR0ci01LW5hbWUiIGNsYXNzPSJlciBlbnRpdHlMYWJlbCI+Y29udHJhY3RTdGFydDwvdGV4dD48cmVjdCBoZWlnaHQ9IjIyIiB3aWR0aD0iMjEuNTYyNSIgeT0iMTEyLjM2NzE4NzUiIHg9IjExOS43ODEyNSIgY2xhc3M9ImVyIGF0dHJpYnV0ZUJveE9kZCI+PC9yZWN0Pjx0ZXh0IHN0eWxlPSJkb21pbmFudC1iYXNlbGluZTogbWlkZGxlOyBmb250LXNpemU6IDEwLjJweDsiIHRyYW5zZm9ybT0idHJhbnNsYXRlKDEyNC43ODEyNSwxMjMuMzY3MTg3NSkiIHk9IjAiIHg9IjAiIGlkPSJ0ZXh0LWVudGl0eS1TVUJTQ1JJUFRJT04tOTRmM2Q5MzctZjhlYi01NTk2LTk4MjQtZjFmOGJhOWJlZDY0LWF0dHItNS1rZXkiIGNsYXNzPSJlciBlbnRpdHlMYWJlbCI+PC90ZXh0PjxyZWN0IGhlaWdodD0iMjIiIHdpZHRoPSIyMDIuNTYyNSIgeT0iMTEyLjM2NzE4NzUiIHg9IjE0MS4zNDM3NSIgY2xhc3M9ImVyIGF0dHJpYnV0ZUJveE9kZCI+PC9yZWN0Pjx0ZXh0IHN0eWxlPSJkb21pbmFudC1iYXNlbGluZTogbWlkZGxlOyBmb250LXNpemU6IDEwLjJweDsiIHRyYW5zZm9ybT0idHJhbnNsYXRlKDE0Ni4zNDM3NSwxMjMuMzY3MTg3NSkiIHk9IjAiIHg9IjAiIGlkPSJ0ZXh0LWVudGl0eS1TVUJTQ1JJUFRJT04tOTRmM2Q5MzctZjhlYi01NTk2LTk4MjQtZjFmOGJhOWJlZDY0LWF0dHItNS1jb21tZW50IiBjbGFzcz0iZXIgZW50aXR5TGFiZWwiPkNvbnRyYWN0IHN0YXJ0IGRhdGU8L3RleHQ+PHJlY3QgaGVpZ2h0PSIyMiIgd2lkdGg9IjQ2LjE0MDYyNSIgeT0iMTM0LjM2NzE4NzUiIHg9IjAiIGNsYXNzPSJlciBhdHRyaWJ1dGVCb3hFdmVuIj48L3JlY3Q+PHRleHQgc3R5bGU9ImRvbWluYW50LWJhc2VsaW5lOiBtaWRkbGU7IGZvbnQtc2l6ZTogMTAuMnB4OyIgdHJhbnNmb3JtPSJ0cmFuc2xhdGUoNSwxNDUuMzY3MTg3NSkiIHk9IjAiIHg9IjAiIGlkPSJ0ZXh0LWVudGl0eS1TVUJTQ1JJUFRJT04tOTRmM2Q5MzctZjhlYi01NTk2LTk4MjQtZjFmOGJhOWJlZDY0LWF0dHItNi10eXBlIiBjbGFzcz0iZXIgZW50aXR5TGFiZWwiPmRhdGU8L3RleHQ+PHJlY3QgaGVpZ2h0PSIyMiIgd2lkdGg9IjczLjY0MDYyNSIgeT0iMTM0LjM2NzE4NzUiIHg9IjQ2LjE0MDYyNSIgY2xhc3M9ImVyIGF0dHJpYnV0ZUJveEV2ZW4iPjwvcmVjdD48dGV4dCBzdHlsZT0iZG9taW5hbnQtYmFzZWxpbmU6IG1pZGRsZTsgZm9udC1zaXplOiAxMC4ycHg7IiB0cmFuc2Zvcm09InRyYW5zbGF0ZSg1MS4xNDA2MjUsMTQ1LjM2NzE4NzUpIiB5PSIwIiB4PSIwIiBpZD0idGV4dC1lbnRpdHktU1VCU0NSSVBUSU9OLTk0ZjNkOTM3LWY4ZWItNTU5Ni05ODI0LWYxZjhiYTliZWQ2NC1hdHRyLTYtbmFtZSIgY2xhc3M9ImVyIGVudGl0eUxhYmVsIj5jb250cmFjdEVuZDwvdGV4dD48cmVjdCBoZWlnaHQ9IjIyIiB3aWR0aD0iMjEuNTYyNSIgeT0iMTM0LjM2NzE4NzUiIHg9IjExOS43ODEyNSIgY2xhc3M9ImVyIGF0dHJpYnV0ZUJveEV2ZW4iPjwvcmVjdD48dGV4dCBzdHlsZT0iZG9taW5hbnQtYmFzZWxpbmU6IG1pZGRsZTsgZm9udC1zaXplOiAxMC4ycHg7IiB0cmFuc2Zvcm09InRyYW5zbGF0ZSgxMjQuNzgxMjUsMTQ1LjM2NzE4NzUpIiB5PSIwIiB4PSIwIiBpZD0idGV4dC1lbnRpdHktU1VCU0NSSVBUSU9OLTk0ZjNkOTM3LWY4ZWItNTU5Ni05ODI0LWYxZjhiYTliZWQ2NC1hdHRyLTYta2V5IiBjbGFzcz0iZXIgZW50aXR5TGFiZWwiPjwvdGV4dD48cmVjdCBoZWlnaHQ9IjIyIiB3aWR0aD0iMjAyLjU2MjUiIHk9IjEzNC4zNjcxODc1IiB4PSIxNDEuMzQzNzUiIGNsYXNzPSJlciBhdHRyaWJ1dGVCb3hFdmVuIj48L3JlY3Q+PHRleHQgc3R5bGU9ImRvbWluYW50LWJhc2VsaW5lOiBtaWRkbGU7IGZvbnQtc2l6ZTogMTAuMnB4OyIgdHJhbnNmb3JtPSJ0cmFuc2xhdGUoMTQ2LjM0Mzc1LDE0NS4zNjcxODc1KSIgeT0iMCIgeD0iMCIgaWQ9InRleHQtZW50aXR5LVNVQlNDUklQVElPTi05NGYzZDkzNy1mOGViLTU1OTYtOTgyNC1mMWY4YmE5YmVkNjQtYXR0ci02LWNvbW1lbnQiIGNsYXNzPSJlciBlbnRpdHlMYWJlbCI+Q29udHJhY3QgZW5kIGRhdGU8L3RleHQ+PHJlY3QgaGVpZ2h0PSIyMi4wOTE3OTY4NzUiIHdpZHRoPSI0Ni4xNDA2MjUiIHk9IjE1Ni4zNjcxODc1IiB4PSIwIiBjbGFzcz0iZXIgYXR0cmlidXRlQm94T2RkIj48L3JlY3Q+PHRleHQgc3R5bGU9ImRvbWluYW50LWJhc2VsaW5lOiBtaWRkbGU7IGZvbnQtc2l6ZTogMTAuMnB4OyIgdHJhbnNmb3JtPSJ0cmFuc2xhdGUoNSwxNjcuNDEzMDg1OTM3NSkiIHk9IjAiIHg9IjAiIGlkPSJ0ZXh0LWVudGl0eS1TVUJTQ1JJUFRJT04tOTRmM2Q5MzctZjhlYi01NTk2LTk4MjQtZjFmOGJhOWJlZDY0LWF0dHItNy10eXBlIiBjbGFzcz0iZXIgZW50aXR5TGFiZWwiPmJvb2xlYW48L3RleHQ+PHJlY3QgaGVpZ2h0PSIyMi4wOTE3OTY4NzUiIHdpZHRoPSI3My42NDA2MjUiIHk9IjE1Ni4zNjcxODc1IiB4PSI0Ni4xNDA2MjUiIGNsYXNzPSJlciBhdHRyaWJ1dGVCb3hPZGQiPjwvcmVjdD48dGV4dCBzdHlsZT0iZG9taW5hbnQtYmFzZWxpbmU6IG1pZGRsZTsgZm9udC1zaXplOiAxMC4ycHg7IiB0cmFuc2Zvcm09InRyYW5zbGF0ZSg1MS4xNDA2MjUsMTY3LjQxMzA4NTkzNzUpIiB5PSIwIiB4PSIwIiBpZD0idGV4dC1lbnRpdHktU1VCU0NSSVBUSU9OLTk0ZjNkOTM3LWY4ZWItNTU5Ni05ODI0LWYxZjhiYTliZWQ2NC1hdHRyLTctbmFtZSIgY2xhc3M9ImVyIGVudGl0eUxhYmVsIj5hY3RpdmU8L3RleHQ+PHJlY3QgaGVpZ2h0PSIyMi4wOTE3OTY4NzUiIHdpZHRoPSIyMS41NjI1IiB5PSIxNTYuMzY3MTg3NSIgeD0iMTE5Ljc4MTI1IiBjbGFzcz0iZXIgYXR0cmlidXRlQm94T2RkIj48L3JlY3Q+PHRleHQgc3R5bGU9ImRvbWluYW50LWJhc2VsaW5lOiBtaWRkbGU7IGZvbnQtc2l6ZTogMTAuMnB4OyIgdHJhbnNmb3JtPSJ0cmFuc2xhdGUoMTI0Ljc4MTI1LDE2Ny40MTMwODU5Mzc1KSIgeT0iMCIgeD0iMCIgaWQ9InRleHQtZW50aXR5LVNVQlNDUklQVElPTi05NGYzZDkzNy1mOGViLTU1OTYtOTgyNC1mMWY4YmE5YmVkNjQtYXR0ci03LWtleSIgY2xhc3M9ImVyIGVudGl0eUxhYmVsIj48L3RleHQ+PHJlY3QgaGVpZ2h0PSIyMi4wOTE3OTY4NzUiIHdpZHRoPSIyMDIuNTYyNSIgeT0iMTU2LjM2NzE4NzUiIHg9IjE0MS4zNDM3NSIgY2xhc3M9ImVyIGF0dHJpYnV0ZUJveE9kZCI+PC9yZWN0Pjx0ZXh0IHN0eWxlPSJkb21pbmFudC1iYXNlbGluZTogbWlkZGxlOyBmb250LXNpemU6IDEwLjJweDsiIHRyYW5zZm9ybT0idHJhbnNsYXRlKDE0Ni4zNDM3NSwxNjcuNDEzMDg1OTM3NSkiIHk9IjAiIHg9IjAiIGlkPSJ0ZXh0LWVudGl0eS1TVUJTQ1JJUFRJT04tOTRmM2Q5MzctZjhlYi01NTk2LTk4MjQtZjFmOGJhOWJlZDY0LWF0dHItNy1jb21tZW50IiBjbGFzcz0iZXIgZW50aXR5TGFiZWwiPlN1YnNjcmlwdGlvbiBhY3RpdmUgc3RhdHVzPC90ZXh0PjwvZz48ZyB0cmFuc2Zvcm09InRyYW5zbGF0ZSg4NzUuNTg5ODQzNzUsMzc2LjA0MzU0ODU4Mzk4NDQgKSIgaWQ9ImVudGl0eS1FVkVOVFRZUEUtNzRjZGI0MDctOWIyZS01OWE5LWE4NmQtNDEzZmU5NmEwNzVjIj48cmVjdCBoZWlnaHQ9IjkwLjMxNTIzNTEzNzkzOTQ1IiB3aWR0aD0iMzM4LjY0MDYyNSIgeT0iMCIgeD0iMCIgY2xhc3M9ImVyIGVudGl0eUJveCI+PC9yZWN0Pjx0ZXh0IHN0eWxlPSJkb21pbmFudC1iYXNlbGluZTogbWlkZGxlOyB0ZXh0LWFuY2hvcjogbWlkZGxlOyBmb250LXNpemU6IDEycHg7IiB0cmFuc2Zvcm09InRyYW5zbGF0ZSgxNjkuMzIwMzEyNSwxMikiIHk9IjAiIHg9IjAiIGlkPSJ0ZXh0LWVudGl0eS1FVkVOVFRZUEUtNzRjZGI0MDctOWIyZS01OWE5LWE4NmQtNDEzZmU5NmEwNzVjIiBjbGFzcz0iZXIgZW50aXR5TGFiZWwiPkVWRU5UX1RZUEU8L3RleHQ+PHJlY3QgaGVpZ2h0PSIyMi4wOTE3OTY4NzUiIHdpZHRoPSIzNS43NSIgeT0iMjQiIHg9IjAiIGNsYXNzPSJlciBhdHRyaWJ1dGVCb3hPZGQiPjwvcmVjdD48dGV4dCBzdHlsZT0iZG9taW5hbnQtYmFzZWxpbmU6IG1pZGRsZTsgZm9udC1zaXplOiAxMC4ycHg7IiB0cmFuc2Zvcm09InRyYW5zbGF0ZSg1LDM1LjA0NTg5ODQzNzUpIiB5PSIwIiB4PSIwIiBpZD0idGV4dC1lbnRpdHktRVZFTlRUWVBFLTc0Y2RiNDA3LTliMmUtNTlhOS1hODZkLTQxM2ZlOTZhMDc1Yy1hdHRyLTEtdHlwZSIgY2xhc3M9ImVyIGVudGl0eUxhYmVsIj5pbnQ8L3RleHQ+PHJlY3QgaGVpZ2h0PSIyMi4wOTE3OTY4NzUiIHdpZHRoPSI4Mi42NzE4NzUiIHk9IjI0IiB4PSIzNS43NSIgY2xhc3M9ImVyIGF0dHJpYnV0ZUJveE9kZCI+PC9yZWN0Pjx0ZXh0IHN0eWxlPSJkb21pbmFudC1iYXNlbGluZTogbWlkZGxlOyBmb250LXNpemU6IDEwLjJweDsiIHRyYW5zZm9ybT0idHJhbnNsYXRlKDQwLjc1LDM1LjA0NTg5ODQzNzUpIiB5PSIwIiB4PSIwIiBpZD0idGV4dC1lbnRpdHktRVZFTlRUWVBFLTc0Y2RiNDA3LTliMmUtNTlhOS1hODZkLTQxM2ZlOTZhMDc1Yy1hdHRyLTEtbmFtZSIgY2xhc3M9ImVyIGVudGl0eUxhYmVsIj5ldmVudFR5cGVJZDwvdGV4dD48cmVjdCBoZWlnaHQ9IjIyLjA5MTc5Njg3NSIgd2lkdGg9IjIxLjU2MjUiIHk9IjI0IiB4PSIxMTguNDIxODc1IiBjbGFzcz0iZXIgYXR0cmlidXRlQm94T2RkIj48L3JlY3Q+PHRleHQgc3R5bGU9ImRvbWluYW50LWJhc2VsaW5lOiBtaWRkbGU7IGZvbnQtc2l6ZTogMTAuMnB4OyIgdHJhbnNmb3JtPSJ0cmFuc2xhdGUoMTIzLjQyMTg3NSwzNS4wNDU4OTg0Mzc1KSIgeT0iMCIgeD0iMCIgaWQ9InRleHQtZW50aXR5LUVWRU5UVFlQRS03NGNkYjQwNy05YjJlLTU5YTktYTg2ZC00MTNmZTk2YTA3NWMtYXR0ci0xLWtleSIgY2xhc3M9ImVyIGVudGl0eUxhYmVsIj5QSzwvdGV4dD48cmVjdCBoZWlnaHQ9IjIyLjA5MTc5Njg3NSIgd2lkdGg9IjE5OC42NTYyNSIgeT0iMjQiIHg9IjEzOS45ODQzNzUiIGNsYXNzPSJlciBhdHRyaWJ1dGVCb3hPZGQiPjwvcmVjdD48dGV4dCBzdHlsZT0iZG9taW5hbnQtYmFzZWxpbmU6IG1pZGRsZTsgZm9udC1zaXplOiAxMC4ycHg7IiB0cmFuc2Zvcm09InRyYW5zbGF0ZSgxNDQuOTg0Mzc1LDM1LjA0NTg5ODQzNzUpIiB5PSIwIiB4PSIwIiBpZD0idGV4dC1lbnRpdHktRVZFTlRUWVBFLTc0Y2RiNDA3LTliMmUtNTlhOS1hODZkLTQxM2ZlOTZhMDc1Yy1hdHRyLTEtY29tbWVudCIgY2xhc3M9ImVyIGVudGl0eUxhYmVsIj5VbmlxdWUgZXZlbnQgdHlwZSBpZGVudGlmaWVyPC90ZXh0PjxyZWN0IGhlaWdodD0iMjIuMTMxNjQxMzg3OTM5NDUzIiB3aWR0aD0iMzUuNzUiIHk9IjQ2LjA5MTc5Njg3NSIgeD0iMCIgY2xhc3M9ImVyIGF0dHJpYnV0ZUJveEV2ZW4iPjwvcmVjdD48dGV4dCBzdHlsZT0iZG9taW5hbnQtYmFzZWxpbmU6IG1pZGRsZTsgZm9udC1zaXplOiAxMC4ycHg7IiB0cmFuc2Zvcm09InRyYW5zbGF0ZSg1LDU3LjE1NzYxNzU2ODk2OTczKSIgeT0iMCIgeD0iMCIgaWQ9InRleHQtZW50aXR5LUVWRU5UVFlQRS03NGNkYjQwNy05YjJlLTU5YTktYTg2ZC00MTNmZTk2YTA3NWMtYXR0ci0yLXR5cGUiIGNsYXNzPSJlciBlbnRpdHlMYWJlbCI+c3RyaW5nPC90ZXh0PjxyZWN0IGhlaWdodD0iMjIuMTMxNjQxMzg3OTM5NDUzIiB3aWR0aD0iODIuNjcxODc1IiB5PSI0Ni4wOTE3OTY4NzUiIHg9IjM1Ljc1IiBjbGFzcz0iZXIgYXR0cmlidXRlQm94RXZlbiI+PC9yZWN0Pjx0ZXh0IHN0eWxlPSJkb21pbmFudC1iYXNlbGluZTogbWlkZGxlOyBmb250LXNpemU6IDEwLjJweDsiIHRyYW5zZm9ybT0idHJhbnNsYXRlKDQwLjc1LDU3LjE1NzYxNzU2ODk2OTczKSIgeT0iMCIgeD0iMCIgaWQ9InRleHQtZW50aXR5LUVWRU5UVFlQRS03NGNkYjQwNy05YjJlLTU5YTktYTg2ZC00MTNmZTk2YTA3NWMtYXR0ci0yLW5hbWUiIGNsYXNzPSJlciBlbnRpdHlMYWJlbCI+ZXZlbnRUeXBlTmFtZTwvdGV4dD48cmVjdCBoZWlnaHQ9IjIyLjEzMTY0MTM4NzkzOTQ1MyIgd2lkdGg9IjIxLjU2MjUiIHk9IjQ2LjA5MTc5Njg3NSIgeD0iMTE4LjQyMTg3NSIgY2xhc3M9ImVyIGF0dHJpYnV0ZUJveEV2ZW4iPjwvcmVjdD48dGV4dCBzdHlsZT0iZG9taW5hbnQtYmFzZWxpbmU6IG1pZGRsZTsgZm9udC1zaXplOiAxMC4ycHg7IiB0cmFuc2Zvcm09InRyYW5zbGF0ZSgxMjMuNDIxODc1LDU3LjE1NzYxNzU2ODk2OTczKSIgeT0iMCIgeD0iMCIgaWQ9InRleHQtZW50aXR5LUVWRU5UVFlQRS03NGNkYjQwNy05YjJlLTU5YTktYTg2ZC00MTNmZTk2YTA3NWMtYXR0ci0yLWtleSIgY2xhc3M9ImVyIGVudGl0eUxhYmVsIj48L3RleHQ+PHJlY3QgaGVpZ2h0PSIyMi4xMzE2NDEzODc5Mzk0NTMiIHdpZHRoPSIxOTguNjU2MjUiIHk9IjQ2LjA5MTc5Njg3NSIgeD0iMTM5Ljk4NDM3NSIgY2xhc3M9ImVyIGF0dHJpYnV0ZUJveEV2ZW4iPjwvcmVjdD48dGV4dCBzdHlsZT0iZG9taW5hbnQtYmFzZWxpbmU6IG1pZGRsZTsgZm9udC1zaXplOiAxMC4ycHg7IiB0cmFuc2Zvcm09InRyYW5zbGF0ZSgxNDQuOTg0Mzc1LDU3LjE1NzYxNzU2ODk2OTczKSIgeT0iMCIgeD0iMCIgaWQ9InRleHQtZW50aXR5LUVWRU5UVFlQRS03NGNkYjQwNy05YjJlLTU5YTktYTg2ZC00MTNmZTk2YTA3NWMtYXR0ci0yLWNvbW1lbnQiIGNsYXNzPSJlciBlbnRpdHlMYWJlbCI+RXZlbnQgdHlwZSBuYW1lIChlLmcuLCBWb2ljZSwgU01TLCBEYXRhKTwvdGV4dD48cmVjdCBoZWlnaHQ9IjIyLjA5MTc5Njg3NSIgd2lkdGg9IjM1Ljc1IiB5PSI2OC4yMjM0MzgyNjI5Mzk0NSIgeD0iMCIgY2xhc3M9ImVyIGF0dHJpYnV0ZUJveE9kZCI+PC9yZWN0Pjx0ZXh0IHN0eWxlPSJkb21pbmFudC1iYXNlbGluZTogbWlkZGxlOyBmb250LXNpemU6IDEwLjJweDsiIHRyYW5zZm9ybT0idHJhbnNsYXRlKDUsNzkuMjY5MzM2NzAwNDM5NDUpIiB5PSIwIiB4PSIwIiBpZD0idGV4dC1lbnRpdHktRVZFTlRUWVBFLTc0Y2RiNDA3LTliMmUtNTlhOS1hODZkLTQxM2ZlOTZhMDc1Yy1hdHRyLTMtdHlwZSIgY2xhc3M9ImVyIGVudGl0eUxhYmVsIj5zdHJpbmc8L3RleHQ+PHJlY3QgaGVpZ2h0PSIyMi4wOTE3OTY4NzUiIHdpZHRoPSI4Mi42NzE4NzUiIHk9IjY4LjIyMzQzODI2MjkzOTQ1IiB4PSIzNS43NSIgY2xhc3M9ImVyIGF0dHJpYnV0ZUJveE9kZCI+PC9yZWN0Pjx0ZXh0IHN0eWxlPSJkb21pbmFudC1iYXNlbGluZTogbWlkZGxlOyBmb250LXNpemU6IDEwLjJweDsiIHRyYW5zZm9ybT0idHJhbnNsYXRlKDQwLjc1LDc5LjI2OTMzNjcwMDQzOTQ1KSIgeT0iMCIgeD0iMCIgaWQ9InRleHQtZW50aXR5LUVWRU5UVFlQRS03NGNkYjQwNy05YjJlLTU5YTktYTg2ZC00MTNmZTk2YTA3NWMtYXR0ci0zLW5hbWUiIGNsYXNzPSJlciBlbnRpdHlMYWJlbCI+ZGVzY3JpcHRpb248L3RleHQ+PHJlY3QgaGVpZ2h0PSIyMi4wOTE3OTY4NzUiIHdpZHRoPSIyMS41NjI1IiB5PSI2OC4yMjM0MzgyNjI5Mzk0NSIgeD0iMTE4LjQyMTg3NSIgY2xhc3M9ImVyIGF0dHJpYnV0ZUJveE9kZCI+PC9yZWN0Pjx0ZXh0IHN0eWxlPSJkb21pbmFudC1iYXNlbGluZTogbWlkZGxlOyBmb250LXNpemU6IDEwLjJweDsiIHRyYW5zZm9ybT0idHJhbnNsYXRlKDEyMy40MjE4NzUsNzkuMjY5MzM2NzAwNDM5NDUpIiB5PSIwIiB4PSIwIiBpZD0idGV4dC1lbnRpdHktRVZFTlRUWVBFLTc0Y2RiNDA3LTliMmUtNTlhOS1hODZkLTQxM2ZlOTZhMDc1Yy1hdHRyLTMta2V5IiBjbGFzcz0iZXIgZW50aXR5TGFiZWwiPjwvdGV4dD48cmVjdCBoZWlnaHQ9IjIyLjA5MTc5Njg3NSIgd2lkdGg9IjE5OC42NTYyNSIgeT0iNjguMjIzNDM4MjYyOTM5NDUiIHg9IjEzOS45ODQzNzUiIGNsYXNzPSJlciBhdHRyaWJ1dGVCb3hPZGQiPjwvcmVjdD48dGV4dCBzdHlsZT0iZG9taW5hbnQtYmFzZWxpbmU6IG1pZGRsZTsgZm9udC1zaXplOiAxMC4ycHg7IiB0cmFuc2Zvcm09InRyYW5zbGF0ZSgxNDQuOTg0Mzc1LDc5LjI2OTMzNjcwMDQzOTQ1KSIgeT0iMCIgeD0iMCIgaWQ9InRleHQtZW50aXR5LUVWRU5UVFlQRS03NGNkYjQwNy05YjJlLTU5YTktYTg2ZC00MTNmZTk2YTA3NWMtYXR0ci0zLWNvbW1lbnQiIGNsYXNzPSJlciBlbnRpdHlMYWJlbCI+RGVzY3JpcHRpb24gb2YgZXZlbnQgdHlwZTwvdGV4dD48L2c+PGcgdHJhbnNmb3JtPSJ0cmFuc2xhdGUoNjgwLjgxMjUsNjIxLjU4ODI3MjA5NDcyNjYgKSIgaWQ9ImVudGl0eS1FVkVOVC0xMjQzNDMxNi00YTg3LTU4MDAtOTgxYS02OGU5NjcwZDFmYjMiPjxyZWN0IGhlaWdodD0iMTc4LjYzMDQ3MDI3NTg3ODkiIHdpZHRoPSIyODYuOTIxODc1IiB5PSIwIiB4PSIwIiBjbGFzcz0iZXIgZW50aXR5Qm94Ij48L3JlY3Q+PHRleHQgc3R5bGU9ImRvbWluYW50LWJhc2VsaW5lOiBtaWRkbGU7IHRleHQtYW5jaG9yOiBtaWRkbGU7IGZvbnQtc2l6ZTogMTJweDsiIHRyYW5zZm9ybT0idHJhbnNsYXRlKDE0My40NjA5Mzc1LDEyKSIgeT0iMCIgeD0iMCIgaWQ9InRleHQtZW50aXR5LUVWRU5ULTEyNDM0MzE2LTRhODctNTgwMC05ODFhLTY4ZTk2NzBkMWZiMyIgY2xhc3M9ImVyIGVudGl0eUxhYmVsIj5FVkVOVDwvdGV4dD48cmVjdCBoZWlnaHQ9IjIyLjA5MTc5Njg3NSIgd2lkdGg9IjUxLjY0MDYyNSIgeT0iMjQiIHg9IjAiIGNsYXNzPSJlciBhdHRyaWJ1dGVCb3hPZGQiPjwvcmVjdD48dGV4dCBzdHlsZT0iZG9taW5hbnQtYmFzZWxpbmU6IG1pZGRsZTsgZm9udC1zaXplOiAxMC4ycHg7IiB0cmFuc2Zvcm09InRyYW5zbGF0ZSg1LDM1LjA0NTg5ODQzNzUpIiB5PSIwIiB4PSIwIiBpZD0idGV4dC1lbnRpdHktRVZFTlQtMTI0MzQzMTYtNGE4Ny01ODAwLTk4MWEtNjhlOTY3MGQxZmIzLWF0dHItMS10eXBlIiBjbGFzcz0iZXIgZW50aXR5TGFiZWwiPnN0cmluZzwvdGV4dD48cmVjdCBoZWlnaHQ9IjIyLjA5MTc5Njg3NSIgd2lkdGg9IjczLjY0MDYyNSIgeT0iMjQiIHg9IjUxLjY0MDYyNSIgY2xhc3M9ImVyIGF0dHJpYnV0ZUJveE9kZCI+PC9yZWN0Pjx0ZXh0IHN0eWxlPSJkb21pbmFudC1iYXNlbGluZTogbWlkZGxlOyBmb250LXNpemU6IDEwLjJweDsiIHRyYW5zZm9ybT0idHJhbnNsYXRlKDU2LjY0MDYyNSwzNS4wNDU4OTg0Mzc1KSIgeT0iMCIgeD0iMCIgaWQ9InRleHQtZW50aXR5LUVWRU5ULTEyNDM0MzE2LTRhODctNTgwMC05ODFhLTY4ZTk2NzBkMWZiMy1hdHRyLTEtbmFtZSIgY2xhc3M9ImVyIGVudGl0eUxhYmVsIj5ldmVudElkPC90ZXh0PjxyZWN0IGhlaWdodD0iMjIuMDkxNzk2ODc1IiB3aWR0aD0iMjEuNTYyNSIgeT0iMjQiIHg9IjEyNS4yODEyNSIgY2xhc3M9ImVyIGF0dHJpYnV0ZUJveE9kZCI+PC9yZWN0Pjx0ZXh0IHN0eWxlPSJkb21pbmFudC1iYXNlbGluZTogbWlkZGxlOyBmb250LXNpemU6IDEwLjJweDsiIHRyYW5zZm9ybT0idHJhbnNsYXRlKDEzMC4yODEyNSwzNS4wNDU4OTg0Mzc1KSIgeT0iMCIgeD0iMCIgaWQ9InRleHQtZW50aXR5LUVWRU5ULTEyNDM0MzE2LTRhODctNTgwMC05ODFhLTY4ZTk2NzBkMWZiMy1hdHRyLTEta2V5IiBjbGFzcz0iZXIgZW50aXR5TGFiZWwiPlBLPC90ZXh0PjxyZWN0IGhlaWdodD0iMjIuMDkxNzk2ODc1IiB3aWR0aD0iMTQwLjA3ODEyNSIgeT0iMjQiIHg9IjE0Ni44NDM3NSIgY2xhc3M9ImVyIGF0dHJpYnV0ZUJveE9kZCI+PC9yZWN0Pjx0ZXh0IHN0eWxlPSJkb21pbmFudC1iYXNlbGluZTogbWlkZGxlOyBmb250LXNpemU6IDEwLjJweDsiIHRyYW5zZm9ybT0idHJhbnNsYXRlKDE1MS44NDM3NSwzNS4wNDU4OTg0Mzc1KSIgeT0iMCIgeD0iMCIgaWQ9InRleHQtZW50aXR5LUVWRU5ULTEyNDM0MzE2LTRhODctNTgwMC05ODFhLTY4ZTk2NzBkMWZiMy1hdHRyLTEtY29tbWVudCIgY2xhc3M9ImVyIGVudGl0eUxhYmVsIj5VbmlxdWUgZXZlbnQgaWRlbnRpZmllcjwvdGV4dD48cmVjdCBoZWlnaHQ9IjIyLjA5MTc5Njg3NSIgd2lkdGg9IjUxLjY0MDYyNSIgeT0iNDYuMDkxNzk2ODc1IiB4PSIwIiBjbGFzcz0iZXIgYXR0cmlidXRlQm94RXZlbiI+PC9yZWN0Pjx0ZXh0IHN0eWxlPSJkb21pbmFudC1iYXNlbGluZTogbWlkZGxlOyBmb250LXNpemU6IDEwLjJweDsiIHRyYW5zZm9ybT0idHJhbnNsYXRlKDUsNTcuMTM3Njk1MzEyNSkiIHk9IjAiIHg9IjAiIGlkPSJ0ZXh0LWVudGl0eS1FVkVOVC0xMjQzNDMxNi00YTg3LTU4MDAtOTgxYS02OGU5NjcwZDFmYjMtYXR0ci0yLXR5cGUiIGNsYXNzPSJlciBlbnRpdHlMYWJlbCI+c3RyaW5nPC90ZXh0PjxyZWN0IGhlaWdodD0iMjIuMDkxNzk2ODc1IiB3aWR0aD0iNzMuNjQwNjI1IiB5PSI0Ni4wOTE3OTY4NzUiIHg9IjUxLjY0MDYyNSIgY2xhc3M9ImVyIGF0dHJpYnV0ZUJveEV2ZW4iPjwvcmVjdD48dGV4dCBzdHlsZT0iZG9taW5hbnQtYmFzZWxpbmU6IG1pZGRsZTsgZm9udC1zaXplOiAxMC4ycHg7IiB0cmFuc2Zvcm09InRyYW5zbGF0ZSg1Ni42NDA2MjUsNTcuMTM3Njk1MzEyNSkiIHk9IjAiIHg9IjAiIGlkPSJ0ZXh0LWVudGl0eS1FVkVOVC0xMjQzNDMxNi00YTg3LTU4MDAtOTgxYS02OGU5NjcwZDFmYjMtYXR0ci0yLW5hbWUiIGNsYXNzPSJlciBlbnRpdHlMYWJlbCI+cGhvbmVOdW1iZXI8L3RleHQ+PHJlY3QgaGVpZ2h0PSIyMi4wOTE3OTY4NzUiIHdpZHRoPSIyMS41NjI1IiB5PSI0Ni4wOTE3OTY4NzUiIHg9IjEyNS4yODEyNSIgY2xhc3M9ImVyIGF0dHJpYnV0ZUJveEV2ZW4iPjwvcmVjdD48dGV4dCBzdHlsZT0iZG9taW5hbnQtYmFzZWxpbmU6IG1pZGRsZTsgZm9udC1zaXplOiAxMC4ycHg7IiB0cmFuc2Zvcm09InRyYW5zbGF0ZSgxMzAuMjgxMjUsNTcuMTM3Njk1MzEyNSkiIHk9IjAiIHg9IjAiIGlkPSJ0ZXh0LWVudGl0eS1FVkVOVC0xMjQzNDMxNi00YTg3LTU4MDAtOTgxYS02OGU5NjcwZDFmYjMtYXR0ci0yLWtleSIgY2xhc3M9ImVyIGVudGl0eUxhYmVsIj5GSzwvdGV4dD48cmVjdCBoZWlnaHQ9IjIyLjA5MTc5Njg3NSIgd2lkdGg9IjE0MC4wNzgxMjUiIHk9IjQ2LjA5MTc5Njg3NSIgeD0iMTQ2Ljg0Mzc1IiBjbGFzcz0iZXIgYXR0cmlidXRlQm94RXZlbiI+PC9yZWN0Pjx0ZXh0IHN0eWxlPSJkb21pbmFudC1iYXNlbGluZTogbWlkZGxlOyBmb250LXNpemU6IDEwLjJweDsiIHRyYW5zZm9ybT0idHJhbnNsYXRlKDE1MS44NDM3NSw1Ny4xMzc2OTUzMTI1KSIgeT0iMCIgeD0iMCIgaWQ9InRleHQtZW50aXR5LUVWRU5ULTEyNDM0MzE2LTRhODctNTgwMC05ODFhLTY4ZTk2NzBkMWZiMy1hdHRyLTItY29tbWVudCIgY2xhc3M9ImVyIGVudGl0eUxhYmVsIj5SZWZlcmVuY2UgdG8gU3Vic2NyaXB0aW9uPC90ZXh0PjxyZWN0IGhlaWdodD0iMjIuMDkxNzk2ODc1IiB3aWR0aD0iNTEuNjQwNjI1IiB5PSI2OC4xODM1OTM3NSIgeD0iMCIgY2xhc3M9ImVyIGF0dHJpYnV0ZUJveE9kZCI+PC9yZWN0Pjx0ZXh0IHN0eWxlPSJkb21pbmFudC1iYXNlbGluZTogbWlkZGxlOyBmb250LXNpemU6IDEwLjJweDsiIHRyYW5zZm9ybT0idHJhbnNsYXRlKDUsNzkuMjI5NDkyMTg3NSkiIHk9IjAiIHg9IjAiIGlkPSJ0ZXh0LWVudGl0eS1FVkVOVC0xMjQzNDMxNi00YTg3LTU4MDAtOTgxYS02OGU5NjcwZDFmYjMtYXR0ci0zLXR5cGUiIGNsYXNzPSJlciBlbnRpdHlMYWJlbCI+aW50PC90ZXh0PjxyZWN0IGhlaWdodD0iMjIuMDkxNzk2ODc1IiB3aWR0aD0iNzMuNjQwNjI1IiB5PSI2OC4xODM1OTM3NSIgeD0iNTEuNjQwNjI1IiBjbGFzcz0iZXIgYXR0cmlidXRlQm94T2RkIj48L3JlY3Q+PHRleHQgc3R5bGU9ImRvbWluYW50LWJhc2VsaW5lOiBtaWRkbGU7IGZvbnQtc2l6ZTogMTAuMnB4OyIgdHJhbnNmb3JtPSJ0cmFuc2xhdGUoNTYuNjQwNjI1LDc5LjIyOTQ5MjE4NzUpIiB5PSIwIiB4PSIwIiBpZD0idGV4dC1lbnRpdHktRVZFTlQtMTI0MzQzMTYtNGE4Ny01ODAwLTk4MWEtNjhlOTY3MGQxZmIzLWF0dHItMy1uYW1lIiBjbGFzcz0iZXIgZW50aXR5TGFiZWwiPmV2ZW50VHlwZUlkPC90ZXh0PjxyZWN0IGhlaWdodD0iMjIuMDkxNzk2ODc1IiB3aWR0aD0iMjEuNTYyNSIgeT0iNjguMTgzNTkzNzUiIHg9IjEyNS4yODEyNSIgY2xhc3M9ImVyIGF0dHJpYnV0ZUJveE9kZCI+PC9yZWN0Pjx0ZXh0IHN0eWxlPSJkb21pbmFudC1iYXNlbGluZTogbWlkZGxlOyBmb250LXNpemU6IDEwLjJweDsiIHRyYW5zZm9ybT0idHJhbnNsYXRlKDEzMC4yODEyNSw3OS4yMjk0OTIxODc1KSIgeT0iMCIgeD0iMCIgaWQ9InRleHQtZW50aXR5LUVWRU5ULTEyNDM0MzE2LTRhODctNTgwMC05ODFhLTY4ZTk2NzBkMWZiMy1hdHRyLTMta2V5IiBjbGFzcz0iZXIgZW50aXR5TGFiZWwiPkZLPC90ZXh0PjxyZWN0IGhlaWdodD0iMjIuMDkxNzk2ODc1IiB3aWR0aD0iMTQwLjA3ODEyNSIgeT0iNjguMTgzNTkzNzUiIHg9IjE0Ni44NDM3NSIgY2xhc3M9ImVyIGF0dHJpYnV0ZUJveE9kZCI+PC9yZWN0Pjx0ZXh0IHN0eWxlPSJkb21pbmFudC1iYXNlbGluZTogbWlkZGxlOyBmb250LXNpemU6IDEwLjJweDsiIHRyYW5zZm9ybT0idHJhbnNsYXRlKDE1MS44NDM3NSw3OS4yMjk0OTIxODc1KSIgeT0iMCIgeD0iMCIgaWQ9InRleHQtZW50aXR5LUVWRU5ULTEyNDM0MzE2LTRhODctNTgwMC05ODFhLTY4ZTk2NzBkMWZiMy1hdHRyLTMtY29tbWVudCIgY2xhc3M9ImVyIGVudGl0eUxhYmVsIj5SZWZlcmVuY2UgdG8gRXZlbnQgVHlwZTwvdGV4dD48cmVjdCBoZWlnaHQ9IjIyLjA5MTc5Njg3NSIgd2lkdGg9IjUxLjY0MDYyNSIgeT0iOTAuMjc1MzkwNjI1IiB4PSIwIiBjbGFzcz0iZXIgYXR0cmlidXRlQm94RXZlbiI+PC9yZWN0Pjx0ZXh0IHN0eWxlPSJkb21pbmFudC1iYXNlbGluZTogbWlkZGxlOyBmb250LXNpemU6IDEwLjJweDsiIHRyYW5zZm9ybT0idHJhbnNsYXRlKDUsMTAxLjMyMTI4OTA2MjUpIiB5PSIwIiB4PSIwIiBpZD0idGV4dC1lbnRpdHktRVZFTlQtMTI0MzQzMTYtNGE4Ny01ODAwLTk4MWEtNjhlOTY3MGQxZmIzLWF0dHItNC10eXBlIiBjbGFzcz0iZXIgZW50aXR5TGFiZWwiPmRhdGV0aW1lPC90ZXh0PjxyZWN0IGhlaWdodD0iMjIuMDkxNzk2ODc1IiB3aWR0aD0iNzMuNjQwNjI1IiB5PSI5MC4yNzUzOTA2MjUiIHg9IjUxLjY0MDYyNSIgY2xhc3M9ImVyIGF0dHJpYnV0ZUJveEV2ZW4iPjwvcmVjdD48dGV4dCBzdHlsZT0iZG9taW5hbnQtYmFzZWxpbmU6IG1pZGRsZTsgZm9udC1zaXplOiAxMC4ycHg7IiB0cmFuc2Zvcm09InRyYW5zbGF0ZSg1Ni42NDA2MjUsMTAxLjMyMTI4OTA2MjUpIiB5PSIwIiB4PSIwIiBpZD0idGV4dC1lbnRpdHktRVZFTlQtMTI0MzQzMTYtNGE4Ny01ODAwLTk4MWEtNjhlOTY3MGQxZmIzLWF0dHItNC1uYW1lIiBjbGFzcz0iZXIgZW50aXR5TGFiZWwiPnRpbWVzdGFtcDwvdGV4dD48cmVjdCBoZWlnaHQ9IjIyLjA5MTc5Njg3NSIgd2lkdGg9IjIxLjU2MjUiIHk9IjkwLjI3NTM5MDYyNSIgeD0iMTI1LjI4MTI1IiBjbGFzcz0iZXIgYXR0cmlidXRlQm94RXZlbiI+PC9yZWN0Pjx0ZXh0IHN0eWxlPSJkb21pbmFudC1iYXNlbGluZTogbWlkZGxlOyBmb250LXNpemU6IDEwLjJweDsiIHRyYW5zZm9ybT0idHJhbnNsYXRlKDEzMC4yODEyNSwxMDEuMzIxMjg5MDYyNSkiIHk9IjAiIHg9IjAiIGlkPSJ0ZXh0LWVudGl0eS1FVkVOVC0xMjQzNDMxNi00YTg3LTU4MDAtOTgxYS02OGU5NjcwZDFmYjMtYXR0ci00LWtleSIgY2xhc3M9ImVyIGVudGl0eUxhYmVsIj48L3RleHQ+PHJlY3QgaGVpZ2h0PSIyMi4wOTE3OTY4NzUiIHdpZHRoPSIxNDAuMDc4MTI1IiB5PSI5MC4yNzUzOTA2MjUiIHg9IjE0Ni44NDM3NSIgY2xhc3M9ImVyIGF0dHJpYnV0ZUJveEV2ZW4iPjwvcmVjdD48dGV4dCBzdHlsZT0iZG9taW5hbnQtYmFzZWxpbmU6IG1pZGRsZTsgZm9udC1zaXplOiAxMC4ycHg7IiB0cmFuc2Zvcm09InRyYW5zbGF0ZSgxNTEuODQzNzUsMTAxLjMyMTI4OTA2MjUpIiB5PSIwIiB4PSIwIiBpZD0idGV4dC1lbnRpdHktRVZFTlQtMTI0MzQzMTYtNGE4Ny01ODAwLTk4MWEtNjhlOTY3MGQxZmIzLWF0dHItNC1jb21tZW50IiBjbGFzcz0iZXIgZW50aXR5TGFiZWwiPkV2ZW50IHRpbWVzdGFtcDwvdGV4dD48cmVjdCBoZWlnaHQ9IjIyLjEzMTY0MTM4NzkzOTQ1MyIgd2lkdGg9IjUxLjY0MDYyNSIgeT0iMTEyLjM2NzE4NzUiIHg9IjAiIGNsYXNzPSJlciBhdHRyaWJ1dGVCb3hPZGQiPjwvcmVjdD48dGV4dCBzdHlsZT0iZG9taW5hbnQtYmFzZWxpbmU6IG1pZGRsZTsgZm9udC1zaXplOiAxMC4ycHg7IiB0cmFuc2Zvcm09InRyYW5zbGF0ZSg1LDEyMy40MzMwMDgxOTM5Njk3MykiIHk9IjAiIHg9IjAiIGlkPSJ0ZXh0LWVudGl0eS1FVkVOVC0xMjQzNDMxNi00YTg3LTU4MDAtOTgxYS02OGU5NjcwZDFmYjMtYXR0ci01LXR5cGUiIGNsYXNzPSJlciBlbnRpdHlMYWJlbCI+ZGVjaW1hbDwvdGV4dD48cmVjdCBoZWlnaHQ9IjIyLjEzMTY0MTM4NzkzOTQ1MyIgd2lkdGg9IjczLjY0MDYyNSIgeT0iMTEyLjM2NzE4NzUiIHg9IjUxLjY0MDYyNSIgY2xhc3M9ImVyIGF0dHJpYnV0ZUJveE9kZCI+PC9yZWN0Pjx0ZXh0IHN0eWxlPSJkb21pbmFudC1iYXNlbGluZTogbWlkZGxlOyBmb250LXNpemU6IDEwLjJweDsiIHRyYW5zZm9ybT0idHJhbnNsYXRlKDU2LjY0MDYyNSwxMjMuNDMzMDA4MTkzOTY5NzMpIiB5PSIwIiB4PSIwIiBpZD0idGV4dC1lbnRpdHktRVZFTlQtMTI0MzQzMTYtNGE4Ny01ODAwLTk4MWEtNjhlOTY3MGQxZmIzLWF0dHItNS1uYW1lIiBjbGFzcz0iZXIgZW50aXR5TGFiZWwiPmR1cmF0aW9uPC90ZXh0PjxyZWN0IGhlaWdodD0iMjIuMTMxNjQxMzg3OTM5NDUzIiB3aWR0aD0iMjEuNTYyNSIgeT0iMTEyLjM2NzE4NzUiIHg9IjEyNS4yODEyNSIgY2xhc3M9ImVyIGF0dHJpYnV0ZUJveE9kZCI+PC9yZWN0Pjx0ZXh0IHN0eWxlPSJkb21pbmFudC1iYXNlbGluZTogbWlkZGxlOyBmb250LXNpemU6IDEwLjJweDsiIHRyYW5zZm9ybT0idHJhbnNsYXRlKDEzMC4yODEyNSwxMjMuNDMzMDA4MTkzOTY5NzMpIiB5PSIwIiB4PSIwIiBpZD0idGV4dC1lbnRpdHktRVZFTlQtMTI0MzQzMTYtNGE4Ny01ODAwLTk4MWEtNjhlOTY3MGQxZmIzLWF0dHItNS1rZXkiIGNsYXNzPSJlciBlbnRpdHlMYWJlbCI+PC90ZXh0PjxyZWN0IGhlaWdodD0iMjIuMTMxNjQxMzg3OTM5NDUzIiB3aWR0aD0iMTQwLjA3ODEyNSIgeT0iMTEyLjM2NzE4NzUiIHg9IjE0Ni44NDM3NSIgY2xhc3M9ImVyIGF0dHJpYnV0ZUJveE9kZCI+PC9yZWN0Pjx0ZXh0IHN0eWxlPSJkb21pbmFudC1iYXNlbGluZTogbWlkZGxlOyBmb250LXNpemU6IDEwLjJweDsiIHRyYW5zZm9ybT0idHJhbnNsYXRlKDE1MS44NDM3NSwxMjMuNDMzMDA4MTkzOTY5NzMpIiB5PSIwIiB4PSIwIiBpZD0idGV4dC1lbnRpdHktRVZFTlQtMTI0MzQzMTYtNGE4Ny01ODAwLTk4MWEtNjhlOTY3MGQxZmIzLWF0dHItNS1jb21tZW50IiBjbGFzcz0iZXIgZW50aXR5TGFiZWwiPkR1cmF0aW9uIChmb3Igdm9pY2UgZXZlbnRzKTwvdGV4dD48cmVjdCBoZWlnaHQ9IjIyLjEzMTY0MTM4NzkzOTQ1MyIgd2lkdGg9IjUxLjY0MDYyNSIgeT0iMTM0LjQ5ODgyODg4NzkzOTQ1IiB4PSIwIiBjbGFzcz0iZXIgYXR0cmlidXRlQm94RXZlbiI+PC9yZWN0Pjx0ZXh0IHN0eWxlPSJkb21pbmFudC1iYXNlbGluZTogbWlkZGxlOyBmb250LXNpemU6IDEwLjJweDsiIHRyYW5zZm9ybT0idHJhbnNsYXRlKDUsMTQ1LjU2NDY0OTU4MTkwOTE4KSIgeT0iMCIgeD0iMCIgaWQ9InRleHQtZW50aXR5LUVWRU5ULTEyNDM0MzE2LTRhODctNTgwMC05ODFhLTY4ZTk2NzBkMWZiMy1hdHRyLTYtdHlwZSIgY2xhc3M9ImVyIGVudGl0eUxhYmVsIj5kZWNpbWFsPC90ZXh0PjxyZWN0IGhlaWdodD0iMjIuMTMxNjQxMzg3OTM5NDUzIiB3aWR0aD0iNzMuNjQwNjI1IiB5PSIxMzQuNDk4ODI4ODg3OTM5NDUiIHg9IjUxLjY0MDYyNSIgY2xhc3M9ImVyIGF0dHJpYnV0ZUJveEV2ZW4iPjwvcmVjdD48dGV4dCBzdHlsZT0iZG9taW5hbnQtYmFzZWxpbmU6IG1pZGRsZTsgZm9udC1zaXplOiAxMC4ycHg7IiB0cmFuc2Zvcm09InRyYW5zbGF0ZSg1Ni42NDA2MjUsMTQ1LjU2NDY0OTU4MTkwOTE4KSIgeT0iMCIgeD0iMCIgaWQ9InRleHQtZW50aXR5LUVWRU5ULTEyNDM0MzE2LTRhODctNTgwMC05ODFhLTY4ZTk2NzBkMWZiMy1hdHRyLTYtbmFtZSIgY2xhc3M9ImVyIGVudGl0eUxhYmVsIj5kYXRhVXNhZ2U8L3RleHQ+PHJlY3QgaGVpZ2h0PSIyMi4xMzE2NDEzODc5Mzk0NTMiIHdpZHRoPSIyMS41NjI1IiB5PSIxMzQuNDk4ODI4ODg3OTM5NDUiIHg9IjEyNS4yODEyNSIgY2xhc3M9ImVyIGF0dHJpYnV0ZUJveEV2ZW4iPjwvcmVjdD48dGV4dCBzdHlsZT0iZG9taW5hbnQtYmFzZWxpbmU6IG1pZGRsZTsgZm9udC1zaXplOiAxMC4ycHg7IiB0cmFuc2Zvcm09InRyYW5zbGF0ZSgxMzAuMjgxMjUsMTQ1LjU2NDY0OTU4MTkwOTE4KSIgeT0iMCIgeD0iMCIgaWQ9InRleHQtZW50aXR5LUVWRU5ULTEyNDM0MzE2LTRhODctNTgwMC05ODFhLTY4ZTk2NzBkMWZiMy1hdHRyLTYta2V5IiBjbGFzcz0iZXIgZW50aXR5TGFiZWwiPjwvdGV4dD48cmVjdCBoZWlnaHQ9IjIyLjEzMTY0MTM4NzkzOTQ1MyIgd2lkdGg9IjE0MC4wNzgxMjUiIHk9IjEzNC40OTg4Mjg4ODc5Mzk0NSIgeD0iMTQ2Ljg0Mzc1IiBjbGFzcz0iZXIgYXR0cmlidXRlQm94RXZlbiI+PC9yZWN0Pjx0ZXh0IHN0eWxlPSJkb21pbmFudC1iYXNlbGluZTogbWlkZGxlOyBmb250LXNpemU6IDEwLjJweDsiIHRyYW5zZm9ybT0idHJhbnNsYXRlKDE1MS44NDM3NSwxNDUuNTY0NjQ5NTgxOTA5MTgpIiB5PSIwIiB4PSIwIiBpZD0idGV4dC1lbnRpdHktRVZFTlQtMTI0MzQzMTYtNGE4Ny01ODAwLTk4MWEtNjhlOTY3MGQxZmIzLWF0dHItNi1jb21tZW50IiBjbGFzcz0iZXIgZW50aXR5TGFiZWwiPkRhdGEgdXNhZ2UgKGZvciBkYXRhIGV2ZW50cyk8L3RleHQ+PHJlY3QgaGVpZ2h0PSIyMiIgd2lkdGg9IjUxLjY0MDYyNSIgeT0iMTU2LjYzMDQ3MDI3NTg3ODkiIHg9IjAiIGNsYXNzPSJlciBhdHRyaWJ1dGVCb3hPZGQiPjwvcmVjdD48dGV4dCBzdHlsZT0iZG9taW5hbnQtYmFzZWxpbmU6IG1pZGRsZTsgZm9udC1zaXplOiAxMC4ycHg7IiB0cmFuc2Zvcm09InRyYW5zbGF0ZSg1LDE2Ny42MzA0NzAyNzU4Nzg5KSIgeT0iMCIgeD0iMCIgaWQ9InRleHQtZW50aXR5LUVWRU5ULTEyNDM0MzE2LTRhODctNTgwMC05ODFhLTY4ZTk2NzBkMWZiMy1hdHRyLTctdHlwZSIgY2xhc3M9ImVyIGVudGl0eUxhYmVsIj5kZWNpbWFsPC90ZXh0PjxyZWN0IGhlaWdodD0iMjIiIHdpZHRoPSI3My42NDA2MjUiIHk9IjE1Ni42MzA0NzAyNzU4Nzg5IiB4PSI1MS42NDA2MjUiIGNsYXNzPSJlciBhdHRyaWJ1dGVCb3hPZGQiPjwvcmVjdD48dGV4dCBzdHlsZT0iZG9taW5hbnQtYmFzZWxpbmU6IG1pZGRsZTsgZm9udC1zaXplOiAxMC4ycHg7IiB0cmFuc2Zvcm09InRyYW5zbGF0ZSg1Ni42NDA2MjUsMTY3LjYzMDQ3MDI3NTg3ODkpIiB5PSIwIiB4PSIwIiBpZD0idGV4dC1lbnRpdHktRVZFTlQtMTI0MzQzMTYtNGE4Ny01ODAwLTk4MWEtNjhlOTY3MGQxZmIzLWF0dHItNy1uYW1lIiBjbGFzcz0iZXIgZW50aXR5TGFiZWwiPmNvc3Q8L3RleHQ+PHJlY3QgaGVpZ2h0PSIyMiIgd2lkdGg9IjIxLjU2MjUiIHk9IjE1Ni42MzA0NzAyNzU4Nzg5IiB4PSIxMjUuMjgxMjUiIGNsYXNzPSJlciBhdHRyaWJ1dGVCb3hPZGQiPjwvcmVjdD48dGV4dCBzdHlsZT0iZG9taW5hbnQtYmFzZWxpbmU6IG1pZGRsZTsgZm9udC1zaXplOiAxMC4ycHg7IiB0cmFuc2Zvcm09InRyYW5zbGF0ZSgxMzAuMjgxMjUsMTY3LjYzMDQ3MDI3NTg3ODkpIiB5PSIwIiB4PSIwIiBpZD0idGV4dC1lbnRpdHktRVZFTlQtMTI0MzQzMTYtNGE4Ny01ODAwLTk4MWEtNjhlOTY3MGQxZmIzLWF0dHItNy1rZXkiIGNsYXNzPSJlciBlbnRpdHlMYWJlbCI+PC90ZXh0PjxyZWN0IGhlaWdodD0iMjIiIHdpZHRoPSIxNDAuMDc4MTI1IiB5PSIxNTYuNjMwNDcwMjc1ODc4OSIgeD0iMTQ2Ljg0Mzc1IiBjbGFzcz0iZXIgYXR0cmlidXRlQm94T2RkIj48L3JlY3Q+PHRleHQgc3R5bGU9ImRvbWluYW50LWJhc2VsaW5lOiBtaWRkbGU7IGZvbnQtc2l6ZTogMTAuMnB4OyIgdHJhbnNmb3JtPSJ0cmFuc2xhdGUoMTUxLjg0Mzc1LDE2Ny42MzA0NzAyNzU4Nzg5KSIgeT0iMCIgeD0iMCIgaWQ9InRleHQtZW50aXR5LUVWRU5ULTEyNDM0MzE2LTRhODctNTgwMC05ODFhLTY4ZTk2NzBkMWZiMy1hdHRyLTctY29tbWVudCIgY2xhc3M9ImVyIGVudGl0eUxhYmVsIj5Db3N0IG9mIHRoZSBldmVudDwvdGV4dD48L2c+PHJlY3QgaGVpZ2h0PSIxNCIgd2lkdGg9IjE3LjcxODc1IiB5PSIyNjMuMTc2OTQwOTE3OTY4NzUiIHg9IjE0OC4zMzkyNjM5MTYwMTU2MiIgY2xhc3M9ImVyIHJlbGF0aW9uc2hpcExhYmVsQm94Ij48L3JlY3Q+PHRleHQgc3R5bGU9InRleHQtYW5jaG9yOiBtaWRkbGU7IGRvbWluYW50LWJhc2VsaW5lOiBtaWRkbGU7IGZvbnQtc2l6ZTogMTJweDsiIHk9IjI3MC4xNzY5NDA5MTc5Njg3NSIgeD0iMTU3LjE5ODYzODkxNjAxNTYyIiBpZD0icmVsMzMiIGNsYXNzPSJlciByZWxhdGlvbnNoaXBMYWJlbCI+aGFzPC90ZXh0PjxyZWN0IGhlaWdodD0iMTQiIHdpZHRoPSIyNi43OTY4NzUiIHk9IjI3NC4wOTQ4MTgxMTUyMzQ0IiB4PSIzNjQuMzg5OTIzMDk1NzAzMSIgY2xhc3M9ImVyIHJlbGF0aW9uc2hpcExhYmVsQm94Ij48L3JlY3Q+PHRleHQgc3R5bGU9InRleHQtYW5jaG9yOiBtaWRkbGU7IGRvbWluYW50LWJhc2VsaW5lOiBtaWRkbGU7IGZvbnQtc2l6ZTogMTJweDsiIHk9IjI4MS4wOTQ4MTgxMTUyMzQ0IiB4PSIzNzcuNzg4MzYwNTk1NzAzMSIgaWQ9InJlbDM0IiBjbGFzcz0iZXIgcmVsYXRpb25zaGlwTGFiZWwiPm93bnM8L3RleHQ+PHJlY3QgaGVpZ2h0PSIxNCIgd2lkdGg9IjQ1LjE4NzUiIHk9IjI0MS43Njg0OTM2NTIzNDM3NSIgeD0iNTgxLjA0MzI3MzkyNTc4MTIiIGNsYXNzPSJlciByZWxhdGlvbnNoaXBMYWJlbEJveCI+PC9yZWN0Pjx0ZXh0IHN0eWxlPSJ0ZXh0LWFuY2hvcjogbWlkZGxlOyBkb21pbmFudC1iYXNlbGluZTogbWlkZGxlOyBmb250LXNpemU6IDEycHg7IiB5PSIyNDguNzY4NDkzNjUyMzQzNzUiIHg9IjYwMy42MzcwMjM5MjU3ODEyIiBpZD0icmVsMzUiIGNsYXNzPSJlciByZWxhdGlvbnNoaXBMYWJlbCI+cHJvdmlkZXM8L3RleHQ+PHJlY3QgaGVpZ2h0PSIxNCIgd2lkdGg9IjM5LjA0Njg3NSIgeT0iMjg5LjY5MDA2MzQ3NjU2MjUiIHg9IjkwMS41ODI0NTg0OTYwOTM4IiBjbGFzcz0iZXIgcmVsYXRpb25zaGlwTGFiZWxCb3giPjwvcmVjdD48dGV4dCBzdHlsZT0idGV4dC1hbmNob3I6IG1pZGRsZTsgZG9taW5hbnQtYmFzZWxpbmU6IG1pZGRsZTsgZm9udC1zaXplOiAxMnB4OyIgeT0iMjk2LjY5MDA2MzQ3NjU2MjUiIHg9IjkyMS4xMDU4OTU5OTYwOTM4IiBpZD0icmVsMzYiIGNsYXNzPSJlciByZWxhdGlvbnNoaXBMYWJlbCI+ZGVmaW5lczwvdGV4dD48cmVjdCBoZWlnaHQ9IjE0IiB3aWR0aD0iNTIuODEyNSIgeT0iNTcxLjM3NTc5MzQ1NzAzMTIiIHg9IjU5Ny41OTY4MDE3NTc4MTI1IiBjbGFzcz0iZXIgcmVsYXRpb25zaGlwTGFiZWxCb3giPjwvcmVjdD48dGV4dCBzdHlsZT0idGV4dC1hbmNob3I6IG1pZGRsZTsgZG9taW5hbnQtYmFzZWxpbmU6IG1pZGRsZTsgZm9udC1zaXplOiAxMnB4OyIgeT0iNTc4LjM3NTc5MzQ1NzAzMTIiIHg9IjYyNC4wMDMwNTE3NTc4MTI1IiBpZD0icmVsMzciIGNsYXNzPSJlciByZWxhdGlvbnNoaXBMYWJlbCI+Z2VuZXJhdGVzPC90ZXh0PjxyZWN0IGhlaWdodD0iMTQiIHdpZHRoPSI2MS4yMDMxMjUiIHk9IjU1MS43NjgwNjY0MDYyNSIgeD0iMTAwMi44NDM5OTQxNDA2MjUiIGNsYXNzPSJlciByZWxhdGlvbnNoaXBMYWJlbEJveCI+PC9yZWN0Pjx0ZXh0IHN0eWxlPSJ0ZXh0LWFuY2hvcjogbWlkZGxlOyBkb21pbmFudC1iYXNlbGluZTogbWlkZGxlOyBmb250LXNpemU6IDEycHg7IiB5PSI1NTguNzY4MDY2NDA2MjUiIHg9IjEwMzMuNDQ1NTU2NjQwNjI1IiBpZD0icmVsMzgiIGNsYXNzPSJlciByZWxhdGlvbnNoaXBMYWJlbCI+Y2F0ZWdvcml6ZXM8L3RleHQ+PC9zdmc+;" parent="1" vertex="1">
                        <mxGeometry x="-300" y="-20" width="1234.23046875" height="820.21875" as="geometry"/>
                    </mxCell>
                </UserObject>
            </root>
        </mxGraphModel>
    </diagram>
</mxfile>